<?xml version="1.0" encoding="utf-8" standalone="no"?>
<!DOCTYPE svg PUBLIC "-//W3C//DTD SVG 1.1//EN"
  "http://www.w3.org/Graphics/SVG/1.1/DTD/svg11.dtd">
<!-- Created with matplotlib (https://matplotlib.org/) -->
<svg height="214.100156pt" version="1.1" viewBox="0 0 561.687138 214.100156" width="561.687138pt" xmlns="http://www.w3.org/2000/svg" xmlns:xlink="http://www.w3.org/1999/xlink">
 <defs>
  <style type="text/css">
*{stroke-linecap:butt;stroke-linejoin:round;}
  </style>
 </defs>
 <g id="figure_1">
  <g id="patch_1">
   <path d="M 0 214.100156 
L 561.687138 214.100156 
L 561.687138 0 
L 0 0 
z
" style="fill:#ffffff;"/>
  </g>
  <g id="axes_1">
   <g id="patch_2">
    <path d="M 42.501875 185.8725 
L 182.001875 185.8725 
L 182.001875 22.7925 
L 42.501875 22.7925 
z
" style="fill:#eaeaf2;"/>
   </g>
   <g id="matplotlib.axis_1">
    <g id="xtick_1">
     <g id="line2d_1">
      <path clip-path="url(#pc50786892b)" d="M 72.13592 185.8725 
L 72.13592 22.7925 
" style="fill:none;stroke:#ffffff;stroke-linecap:round;"/>
     </g>
     <g id="text_1">
      <!-- 0.6 -->
      <defs>
       <path d="M 4.4375 36.328125 
Q 4.4375 56.34375 11.078125 66.625 
Q 17.71875 76.90625 30.328125 76.90625 
Q 54.34375 76.90625 54.34375 38.140625 
Q 54.34375 19 47.578125 8.859375 
Q 40.828125 -1.265625 28.609375 -1.265625 
Q 17.09375 -1.265625 10.765625 8.34375 
Q 4.4375 17.96875 4.4375 36.328125 
z
M 14.203125 36.765625 
Q 14.203125 6.640625 29.5 6.640625 
Q 44.53125 6.640625 44.53125 37.25 
Q 44.53125 68.953125 29.78125 68.953125 
Q 14.203125 68.953125 14.203125 36.765625 
z
" id="MicrosoftYaHei-48"/>
       <path d="M 5.8125 5.03125 
Q 5.8125 7.671875 7.609375 9.46875 
Q 9.421875 11.28125 12.109375 11.28125 
Q 14.84375 11.28125 16.640625 9.453125 
Q 18.453125 7.625 18.453125 5.03125 
Q 18.453125 2.484375 16.640625 0.65625 
Q 14.84375 -1.171875 12.0625 -1.171875 
Q 9.375 -1.171875 7.59375 0.65625 
Q 5.8125 2.484375 5.8125 5.03125 
z
" id="MicrosoftYaHei-46"/>
       <path d="M 49.703125 65.921875 
Q 43.796875 68.953125 37.359375 68.953125 
Q 27.546875 68.953125 21.578125 60.40625 
Q 15.625 51.859375 15.53125 37.0625 
L 15.765625 37.0625 
Q 21.140625 47.46875 32.90625 47.46875 
Q 42.71875 47.46875 48.578125 41.0625 
Q 54.4375 34.671875 54.4375 24.078125 
Q 54.4375 12.984375 47.671875 5.859375 
Q 40.921875 -1.265625 30.421875 -1.265625 
Q 18.890625 -1.265625 12.328125 7.734375 
Q 5.765625 16.75 5.765625 33.296875 
Q 5.765625 53.328125 14.375 65.109375 
Q 23 76.90625 37.0625 76.90625 
Q 45.125 76.90625 49.703125 74.703125 
z
M 16.109375 24.75 
Q 16.109375 17.28125 20.09375 11.953125 
Q 24.078125 6.640625 30.671875 6.640625 
Q 36.921875 6.640625 40.828125 11.234375 
Q 44.734375 15.828125 44.734375 23.046875 
Q 44.734375 30.859375 41.046875 35.203125 
Q 37.359375 39.546875 30.5625 39.546875 
Q 24.125 39.546875 20.109375 35.15625 
Q 16.109375 30.765625 16.109375 24.75 
z
" id="MicrosoftYaHei-54"/>
      </defs>
      <g style="fill:#262626;" transform="translate(64.361154 204.165625)scale(0.11 -0.11)">
       <use xlink:href="#MicrosoftYaHei-48"/>
       <use x="58.642578" xlink:href="#MicrosoftYaHei-46"/>
       <use x="82.714844" xlink:href="#MicrosoftYaHei-54"/>
      </g>
     </g>
    </g>
    <g id="xtick_2">
     <g id="line2d_2">
      <path clip-path="url(#pc50786892b)" d="M 123.898443 185.8725 
L 123.898443 22.7925 
" style="fill:none;stroke:#ffffff;stroke-linecap:round;"/>
     </g>
     <g id="text_2">
      <!-- 0.8 -->
      <defs>
       <path d="M 4.78125 21.09375 
Q 4.78125 27.640625 8.6875 33.15625 
Q 12.59375 38.671875 18.75 41.015625 
Q 13.8125 43.796875 10.9375 48.140625 
Q 8.0625 52.484375 8.0625 57.5625 
Q 8.0625 62.9375 10.8125 67.375 
Q 13.578125 71.828125 18.484375 74.359375 
Q 23.390625 76.90625 29.296875 76.90625 
Q 35.25 76.90625 40.1875 74.390625 
Q 45.125 71.875 47.859375 67.421875 
Q 50.59375 62.984375 50.59375 57.5625 
Q 50.59375 52.59375 47.78125 48.21875 
Q 44.96875 43.84375 39.984375 41.015625 
Q 46.140625 38.625 50 33.109375 
Q 53.859375 27.59375 53.859375 21.09375 
Q 53.859375 14.65625 50.78125 9.546875 
Q 47.703125 4.4375 42.03125 1.609375 
Q 36.375 -1.21875 29.296875 -1.21875 
Q 22.265625 -1.21875 16.640625 1.609375 
Q 11.03125 4.4375 7.90625 9.5625 
Q 4.78125 14.703125 4.78125 21.09375 
z
M 14.15625 21.53125 
Q 14.15625 14.796875 18.3125 10.734375 
Q 22.46875 6.6875 29.34375 6.6875 
Q 36.078125 6.6875 40.34375 10.8125 
Q 44.625 14.9375 44.625 21.53125 
Q 44.625 27.78125 40.296875 32.046875 
Q 35.984375 36.328125 29.34375 36.328125 
Q 22.75 36.328125 18.453125 32.15625 
Q 14.15625 27.984375 14.15625 21.53125 
z
M 16.890625 56.78125 
Q 16.890625 51.703125 20.5 48.0625 
Q 24.125 44.4375 29.34375 44.4375 
Q 34.46875 44.4375 38.203125 48.09375 
Q 41.9375 51.765625 41.9375 56.78125 
Q 41.9375 61.921875 38.34375 65.484375 
Q 34.765625 69.046875 29.34375 69.046875 
Q 23.96875 69.046875 20.421875 65.546875 
Q 16.890625 62.0625 16.890625 56.78125 
z
" id="MicrosoftYaHei-56"/>
      </defs>
      <g style="fill:#262626;" transform="translate(116.123677 204.165625)scale(0.11 -0.11)">
       <use xlink:href="#MicrosoftYaHei-48"/>
       <use x="58.642578" xlink:href="#MicrosoftYaHei-46"/>
       <use x="82.714844" xlink:href="#MicrosoftYaHei-56"/>
      </g>
     </g>
    </g>
    <g id="xtick_3">
     <g id="line2d_3">
      <path clip-path="url(#pc50786892b)" d="M 175.660966 185.8725 
L 175.660966 22.7925 
" style="fill:none;stroke:#ffffff;stroke-linecap:round;"/>
     </g>
     <g id="text_3">
      <!-- 1.0 -->
      <defs>
       <path d="M 27.828125 0 
L 27.828125 64.703125 
Q 25.59375 62.453125 20.234375 59.671875 
Q 14.890625 56.890625 10.359375 55.765625 
L 10.359375 65.140625 
Q 16.359375 66.796875 23.1875 70.4375 
Q 30.03125 74.078125 33.6875 77.296875 
L 37.3125 77.296875 
L 37.3125 0 
z
" id="MicrosoftYaHei-49"/>
      </defs>
      <g style="fill:#262626;" transform="translate(167.8862 204.165625)scale(0.11 -0.11)">
       <use xlink:href="#MicrosoftYaHei-49"/>
       <use x="58.642578" xlink:href="#MicrosoftYaHei-46"/>
       <use x="82.714844" xlink:href="#MicrosoftYaHei-48"/>
      </g>
     </g>
    </g>
   </g>
   <g id="matplotlib.axis_2">
    <g id="ytick_1">
     <g id="line2d_4">
      <path clip-path="url(#pc50786892b)" d="M 42.501875 185.8725 
L 182.001875 185.8725 
" style="fill:none;stroke:#ffffff;stroke-linecap:round;"/>
     </g>
     <g id="text_4">
      <!-- 0 -->
      <g style="fill:#262626;" transform="translate(26.551406 190.269062)scale(0.11 -0.11)">
       <use xlink:href="#MicrosoftYaHei-48"/>
      </g>
     </g>
    </g>
    <g id="ytick_2">
     <g id="line2d_5">
      <path clip-path="url(#pc50786892b)" d="M 42.501875 162.014699 
L 182.001875 162.014699 
" style="fill:none;stroke:#ffffff;stroke-linecap:round;"/>
     </g>
     <g id="text_5">
      <!-- 200 -->
      <defs>
       <path d="M 41.65625 55.8125 
Q 41.65625 61.921875 37.796875 65.40625 
Q 33.9375 68.890625 27.296875 68.890625 
Q 22.609375 68.890625 17.8125 66.5 
Q 13.03125 64.109375 8.890625 59.671875 
L 8.890625 68.953125 
Q 12.59375 72.796875 17.296875 74.84375 
Q 22.015625 76.90625 28.375 76.90625 
Q 38.625 76.90625 44.875 71.40625 
Q 51.125 65.921875 51.125 56.546875 
Q 51.125 48.1875 47.28125 42.078125 
Q 43.453125 35.984375 34.1875 29.59375 
Q 24.703125 23.046875 21.5 20.21875 
Q 18.3125 17.390625 17.03125 14.796875 
Q 15.765625 12.203125 15.765625 8.5 
L 53.375 8.5 
L 53.375 0 
L 5.8125 0 
L 5.8125 3.765625 
Q 5.8125 10.296875 7.59375 14.859375 
Q 9.375 19.4375 13.46875 23.75 
Q 17.578125 28.078125 26.265625 34.125 
Q 35.15625 40.375 38.40625 45.09375 
Q 41.65625 49.8125 41.65625 55.8125 
z
" id="MicrosoftYaHei-50"/>
      </defs>
      <g style="fill:#262626;" transform="translate(13.650469 166.411261)scale(0.11 -0.11)">
       <use xlink:href="#MicrosoftYaHei-50"/>
       <use x="58.642578" xlink:href="#MicrosoftYaHei-48"/>
       <use x="117.285156" xlink:href="#MicrosoftYaHei-48"/>
      </g>
     </g>
    </g>
    <g id="ytick_3">
     <g id="line2d_6">
      <path clip-path="url(#pc50786892b)" d="M 42.501875 138.156898 
L 182.001875 138.156898 
" style="fill:none;stroke:#ffffff;stroke-linecap:round;"/>
     </g>
     <g id="text_6">
      <!-- 400 -->
      <defs>
       <path d="M 45.40625 75.640625 
L 45.40625 25.6875 
L 56.734375 25.6875 
L 56.734375 17.78125 
L 45.40625 17.78125 
L 45.40625 0 
L 36.140625 0 
L 36.140625 17.78125 
L 0.828125 17.78125 
L 0.828125 25.25 
Q 10.25 35.84375 19.765625 49.65625 
Q 29.296875 63.484375 35.5 75.640625 
z
M 11.578125 25.6875 
L 36.140625 25.6875 
L 36.140625 61.71875 
Q 31.0625 52.59375 25.25 44.015625 
Q 19.4375 35.453125 11.578125 25.6875 
z
" id="MicrosoftYaHei-52"/>
      </defs>
      <g style="fill:#262626;" transform="translate(13.650469 142.55346)scale(0.11 -0.11)">
       <use xlink:href="#MicrosoftYaHei-52"/>
       <use x="58.642578" xlink:href="#MicrosoftYaHei-48"/>
       <use x="117.285156" xlink:href="#MicrosoftYaHei-48"/>
      </g>
     </g>
    </g>
    <g id="ytick_4">
     <g id="line2d_7">
      <path clip-path="url(#pc50786892b)" d="M 42.501875 114.299096 
L 182.001875 114.299096 
" style="fill:none;stroke:#ffffff;stroke-linecap:round;"/>
     </g>
     <g id="text_7">
      <!-- 600 -->
      <g style="fill:#262626;" transform="translate(13.650469 118.695659)scale(0.11 -0.11)">
       <use xlink:href="#MicrosoftYaHei-54"/>
       <use x="58.642578" xlink:href="#MicrosoftYaHei-48"/>
       <use x="117.285156" xlink:href="#MicrosoftYaHei-48"/>
      </g>
     </g>
    </g>
    <g id="ytick_5">
     <g id="line2d_8">
      <path clip-path="url(#pc50786892b)" d="M 42.501875 90.441295 
L 182.001875 90.441295 
" style="fill:none;stroke:#ffffff;stroke-linecap:round;"/>
     </g>
     <g id="text_8">
      <!-- 800 -->
      <g style="fill:#262626;" transform="translate(13.650469 94.837858)scale(0.11 -0.11)">
       <use xlink:href="#MicrosoftYaHei-56"/>
       <use x="58.642578" xlink:href="#MicrosoftYaHei-48"/>
       <use x="117.285156" xlink:href="#MicrosoftYaHei-48"/>
      </g>
     </g>
    </g>
    <g id="ytick_6">
     <g id="line2d_9">
      <path clip-path="url(#pc50786892b)" d="M 42.501875 66.583494 
L 182.001875 66.583494 
" style="fill:none;stroke:#ffffff;stroke-linecap:round;"/>
     </g>
     <g id="text_9">
      <!-- 1000 -->
      <g style="fill:#262626;" transform="translate(7.2 70.980057)scale(0.11 -0.11)">
       <use xlink:href="#MicrosoftYaHei-49"/>
       <use x="58.642578" xlink:href="#MicrosoftYaHei-48"/>
       <use x="117.285156" xlink:href="#MicrosoftYaHei-48"/>
       <use x="175.927734" xlink:href="#MicrosoftYaHei-48"/>
      </g>
     </g>
    </g>
    <g id="ytick_7">
     <g id="line2d_10">
      <path clip-path="url(#pc50786892b)" d="M 42.501875 42.725693 
L 182.001875 42.725693 
" style="fill:none;stroke:#ffffff;stroke-linecap:round;"/>
     </g>
     <g id="text_10">
      <!-- 1200 -->
      <g style="fill:#262626;" transform="translate(7.2 47.122255)scale(0.11 -0.11)">
       <use xlink:href="#MicrosoftYaHei-49"/>
       <use x="58.642578" xlink:href="#MicrosoftYaHei-50"/>
       <use x="117.285156" xlink:href="#MicrosoftYaHei-48"/>
       <use x="175.927734" xlink:href="#MicrosoftYaHei-48"/>
      </g>
     </g>
    </g>
   </g>
   <g id="patch_3">
    <path clip-path="url(#pc50786892b)" d="M 48.842784 185.8725 
L 53.915511 185.8725 
L 53.915511 38.431289 
L 48.842784 38.431289 
z
" style="fill:#4c72b0;stroke:#ffffff;stroke-linejoin:miter;"/>
   </g>
   <g id="patch_4">
    <path clip-path="url(#pc50786892b)" d="M 53.915511 185.8725 
L 58.988239 185.8725 
L 58.988239 35.806931 
L 53.915511 35.806931 
z
" style="fill:#4c72b0;stroke:#ffffff;stroke-linejoin:miter;"/>
   </g>
   <g id="patch_5">
    <path clip-path="url(#pc50786892b)" d="M 58.988239 185.8725 
L 64.060966 185.8725 
L 64.060966 33.063283 
L 58.988239 33.063283 
z
" style="fill:#4c72b0;stroke:#ffffff;stroke-linejoin:miter;"/>
   </g>
   <g id="patch_6">
    <path clip-path="url(#pc50786892b)" d="M 64.060966 185.8725 
L 69.133693 185.8725 
L 69.133693 45.111473 
L 64.060966 45.111473 
z
" style="fill:#4c72b0;stroke:#ffffff;stroke-linejoin:miter;"/>
   </g>
   <g id="patch_7">
    <path clip-path="url(#pc50786892b)" d="M 69.133693 185.8725 
L 74.20642 185.8725 
L 74.20642 39.743468 
L 69.133693 39.743468 
z
" style="fill:#4c72b0;stroke:#ffffff;stroke-linejoin:miter;"/>
   </g>
   <g id="patch_8">
    <path clip-path="url(#pc50786892b)" d="M 74.20642 185.8725 
L 79.279148 185.8725 
L 79.279148 38.669867 
L 74.20642 38.669867 
z
" style="fill:#4c72b0;stroke:#ffffff;stroke-linejoin:miter;"/>
   </g>
   <g id="patch_9">
    <path clip-path="url(#pc50786892b)" d="M 79.279148 185.8725 
L 84.351875 185.8725 
L 84.351875 32.22826 
L 79.279148 32.22826 
z
" style="fill:#4c72b0;stroke:#ffffff;stroke-linejoin:miter;"/>
   </g>
   <g id="patch_10">
    <path clip-path="url(#pc50786892b)" d="M 84.351875 185.8725 
L 89.424602 185.8725 
L 89.424602 38.312 
L 84.351875 38.312 
z
" style="fill:#4c72b0;stroke:#ffffff;stroke-linejoin:miter;"/>
   </g>
   <g id="patch_11">
    <path clip-path="url(#pc50786892b)" d="M 89.424602 185.8725 
L 94.49733 185.8725 
L 94.49733 46.065785 
L 89.424602 46.065785 
z
" style="fill:#4c72b0;stroke:#ffffff;stroke-linejoin:miter;"/>
   </g>
   <g id="patch_12">
    <path clip-path="url(#pc50786892b)" d="M 94.49733 185.8725 
L 99.570057 185.8725 
L 99.570057 40.339913 
L 94.49733 40.339913 
z
" style="fill:#4c72b0;stroke:#ffffff;stroke-linejoin:miter;"/>
   </g>
   <g id="patch_13">
    <path clip-path="url(#pc50786892b)" d="M 99.570057 185.8725 
L 104.642784 185.8725 
L 104.642784 44.395739 
L 99.570057 44.395739 
z
" style="fill:#4c72b0;stroke:#ffffff;stroke-linejoin:miter;"/>
   </g>
   <g id="patch_14">
    <path clip-path="url(#pc50786892b)" d="M 104.642784 185.8725 
L 109.715511 185.8725 
L 109.715511 42.009959 
L 104.642784 42.009959 
z
" style="fill:#4c72b0;stroke:#ffffff;stroke-linejoin:miter;"/>
   </g>
   <g id="patch_15">
    <path clip-path="url(#pc50786892b)" d="M 109.715511 185.8725 
L 114.788239 185.8725 
L 114.788239 38.431289 
L 109.715511 38.431289 
z
" style="fill:#4c72b0;stroke:#ffffff;stroke-linejoin:miter;"/>
   </g>
   <g id="patch_16">
    <path clip-path="url(#pc50786892b)" d="M 114.788239 185.8725 
L 119.860966 185.8725 
L 119.860966 38.192711 
L 114.788239 38.192711 
z
" style="fill:#4c72b0;stroke:#ffffff;stroke-linejoin:miter;"/>
   </g>
   <g id="patch_17">
    <path clip-path="url(#pc50786892b)" d="M 119.860966 185.8725 
L 124.933693 185.8725 
L 124.933693 39.624179 
L 119.860966 39.624179 
z
" style="fill:#4c72b0;stroke:#ffffff;stroke-linejoin:miter;"/>
   </g>
   <g id="patch_18">
    <path clip-path="url(#pc50786892b)" d="M 124.933693 185.8725 
L 130.00642 185.8725 
L 130.00642 43.322138 
L 124.933693 43.322138 
z
" style="fill:#4c72b0;stroke:#ffffff;stroke-linejoin:miter;"/>
   </g>
   <g id="patch_19">
    <path clip-path="url(#pc50786892b)" d="M 130.00642 185.8725 
L 135.079148 185.8725 
L 135.079148 42.844982 
L 130.00642 42.844982 
z
" style="fill:#4c72b0;stroke:#ffffff;stroke-linejoin:miter;"/>
   </g>
   <g id="patch_20">
    <path clip-path="url(#pc50786892b)" d="M 135.079148 185.8725 
L 140.151875 185.8725 
L 140.151875 42.248537 
L 135.079148 42.248537 
z
" style="fill:#4c72b0;stroke:#ffffff;stroke-linejoin:miter;"/>
   </g>
   <g id="patch_21">
    <path clip-path="url(#pc50786892b)" d="M 140.151875 185.8725 
L 145.224602 185.8725 
L 145.224602 40.220624 
L 140.151875 40.220624 
z
" style="fill:#4c72b0;stroke:#ffffff;stroke-linejoin:miter;"/>
   </g>
   <g id="patch_22">
    <path clip-path="url(#pc50786892b)" d="M 145.224602 185.8725 
L 150.29733 185.8725 
L 150.29733 43.441427 
L 145.224602 43.441427 
z
" style="fill:#4c72b0;stroke:#ffffff;stroke-linejoin:miter;"/>
   </g>
   <g id="patch_23">
    <path clip-path="url(#pc50786892b)" d="M 150.29733 185.8725 
L 155.370057 185.8725 
L 155.370057 44.157161 
L 150.29733 44.157161 
z
" style="fill:#4c72b0;stroke:#ffffff;stroke-linejoin:miter;"/>
   </g>
   <g id="patch_24">
    <path clip-path="url(#pc50786892b)" d="M 155.370057 185.8725 
L 160.442784 185.8725 
L 160.442784 40.339913 
L 155.370057 40.339913 
z
" style="fill:#4c72b0;stroke:#ffffff;stroke-linejoin:miter;"/>
   </g>
   <g id="patch_25">
    <path clip-path="url(#pc50786892b)" d="M 160.442784 185.8725 
L 165.515511 185.8725 
L 165.515511 44.515028 
L 160.442784 44.515028 
z
" style="fill:#4c72b0;stroke:#ffffff;stroke-linejoin:miter;"/>
   </g>
   <g id="patch_26">
    <path clip-path="url(#pc50786892b)" d="M 165.515511 185.8725 
L 170.588239 185.8725 
L 170.588239 38.192711 
L 165.515511 38.192711 
z
" style="fill:#4c72b0;stroke:#ffffff;stroke-linejoin:miter;"/>
   </g>
   <g id="patch_27">
    <path clip-path="url(#pc50786892b)" d="M 170.588239 185.8725 
L 175.660966 185.8725 
L 175.660966 30.558214 
L 170.588239 30.558214 
z
" style="fill:#4c72b0;stroke:#ffffff;stroke-linejoin:miter;"/>
   </g>
   <g id="patch_28">
    <path d="M 42.501875 185.8725 
L 42.501875 22.7925 
" style="fill:none;stroke:#ffffff;stroke-linecap:square;stroke-linejoin:miter;stroke-width:1.25;"/>
   </g>
   <g id="patch_29">
    <path d="M 182.001875 185.8725 
L 182.001875 22.7925 
" style="fill:none;stroke:#ffffff;stroke-linecap:square;stroke-linejoin:miter;stroke-width:1.25;"/>
   </g>
   <g id="patch_30">
    <path d="M 42.501875 185.8725 
L 182.001875 185.8725 
" style="fill:none;stroke:#ffffff;stroke-linecap:square;stroke-linejoin:miter;stroke-width:1.25;"/>
   </g>
   <g id="patch_31">
    <path d="M 42.501875 22.7925 
L 182.001875 22.7925 
" style="fill:none;stroke:#ffffff;stroke-linecap:square;stroke-linejoin:miter;stroke-width:1.25;"/>
   </g>
   <g id="text_11">
    <!-- 控制人持股比例 -->
    <defs>
     <path d="M 1.375 30.90625 
Q 8.59375 32.671875 15.234375 34.375 
L 15.234375 56.984375 
L 1.859375 56.984375 
L 1.859375 64.015625 
L 15.234375 64.015625 
L 15.234375 82.953125 
L 22.859375 82.953125 
L 22.859375 64.015625 
L 32.8125 64.015625 
L 32.8125 56.984375 
L 22.859375 56.984375 
L 22.859375 36.375 
Q 27.9375 37.75 32.625 39.109375 
Q 32.8125 34.625 33.296875 31.5 
Q 27.875 29.984375 22.859375 28.515625 
L 22.859375 -1.609375 
Q 22.859375 -11.96875 13.578125 -11.96875 
Q 10.359375 -11.96875 3.515625 -11.765625 
Q 3.125 -7.765625 2.25 -3.65625 
Q 8.015625 -4.34375 10.84375 -4.34375 
Q 15.234375 -4.34375 15.234375 0.25 
L 15.234375 26.3125 
Q 8.34375 24.3125 2.34375 22.515625 
z
M 37.890625 29.4375 
L 93.359375 29.4375 
L 93.359375 22.609375 
L 69.34375 22.609375 
L 69.34375 -1.703125 
L 98.046875 -1.703125 
L 98.046875 -8.9375 
L 31.453125 -8.9375 
L 31.453125 -1.703125 
L 61.71875 -1.703125 
L 61.71875 22.609375 
L 37.890625 22.609375 
z
M 36.421875 68.3125 
L 64.453125 68.3125 
Q 60.84375 74.03125 56.453125 79.734375 
L 62.703125 83.734375 
Q 68.171875 77 71.96875 71.53125 
L 67.140625 68.3125 
L 95.3125 68.3125 
L 95.3125 50.734375 
L 87.703125 50.734375 
L 87.703125 61.1875 
L 44.046875 61.1875 
L 44.046875 50.734375 
L 36.421875 50.734375 
z
M 70.40625 49.46875 
L 75.59375 54.546875 
Q 88.578125 45.0625 97.5625 37.0625 
L 92.09375 30.90625 
Q 83.203125 39.703125 70.40625 49.46875 
z
M 61.234375 49.359375 
Q 49.8125 39.109375 39.546875 31 
L 34.1875 36.859375 
Q 46.09375 45.453125 55.671875 54.734375 
z
" id="MicrosoftYaHei-25511"/>
     <path d="M 29.78125 82.28125 
L 37.40625 82.28125 
L 37.40625 67.328125 
L 58.59375 67.328125 
L 58.59375 60.5 
L 37.40625 60.5 
L 37.40625 47.40625 
L 62.890625 47.40625 
L 62.890625 40.578125 
L 37.40625 40.578125 
L 37.40625 29.640625 
L 58.796875 29.640625 
L 58.796875 6.390625 
Q 58.796875 -4.15625 49.21875 -4.25 
Q 46.1875 -4.34375 41.109375 -4.25 
Q 40.625 -1.125 39.65625 2.78125 
Q 44.4375 2.484375 47.46875 2.484375 
Q 51.5625 2.484375 51.5625 7.375 
L 51.5625 23 
L 37.40625 23 
L 37.40625 -13.234375 
L 29.78125 -13.234375 
L 29.78125 23 
L 16.3125 23 
L 16.3125 -5.90625 
L 9.078125 -5.90625 
L 9.078125 29.640625 
L 29.78125 29.640625 
L 29.78125 40.578125 
L 1.765625 40.578125 
L 1.765625 47.40625 
L 29.78125 47.40625 
L 29.78125 60.5 
L 15.328125 60.5 
Q 12.84375 54.890625 9.671875 49.859375 
Q 6.453125 51.703125 3.03125 53.5625 
Q 10.75 65.1875 13.765625 78.765625 
L 21 76.90625 
Q 19.734375 71.921875 18.109375 67.328125 
L 29.78125 67.328125 
z
M 85.453125 82.375 
L 93.265625 82.375 
L 93.265625 1.90625 
Q 93.265625 -11.28125 81.640625 -11.28125 
Q 77.828125 -11.28125 68.5625 -11.1875 
Q 67.96875 -7.375 67 -2.6875 
Q 75.203125 -3.46875 79.296875 -3.46875 
Q 85.453125 -3.46875 85.453125 3.46875 
z
M 74.21875 12.84375 
L 66.703125 12.84375 
L 66.703125 73 
L 74.21875 73 
z
" id="MicrosoftYaHei-21046"/>
     <path d="M 1.5625 -4.734375 
Q 44.140625 19.875 46.578125 81.59375 
L 55.171875 81.59375 
Q 54.640625 71.140625 53.125 61.671875 
Q 65.234375 12.84375 98.640625 -2.59375 
Q 94.53125 -7.078125 91.40625 -11.078125 
Q 62.40625 5.328125 50.046875 46.96875 
Q 39.359375 6.734375 7.71875 -12.15625 
Q 5.078125 -8.546875 1.5625 -4.734375 
z
" id="MicrosoftYaHei-20154"/>
     <path d="M 1.375 30.90625 
Q 8.796875 32.5625 15.046875 34.078125 
L 15.046875 56.984375 
L 2.25 56.984375 
L 2.25 64.015625 
L 15.046875 64.015625 
L 15.046875 82.859375 
L 22.65625 82.859375 
L 22.65625 64.015625 
L 35.15625 64.015625 
L 35.15625 56.984375 
L 22.65625 56.984375 
L 22.65625 35.984375 
Q 28.765625 37.59375 33.40625 39.015625 
Q 33.5 35.5 34.078125 31.390625 
Q 27.984375 29.78125 22.65625 28.328125 
L 22.65625 -1.125 
Q 22.65625 -12.0625 12.703125 -12.0625 
Q 9.671875 -12.0625 3.421875 -11.859375 
Q 3.03125 -7.859375 2.15625 -3.765625 
Q 8.296875 -4.4375 11.03125 -4.4375 
Q 15.046875 -4.4375 15.046875 0.140625 
L 15.046875 26.21875 
Q 7.8125 24.171875 2.34375 22.515625 
z
M 33.984375 48.390625 
L 62.109375 48.390625 
L 62.109375 62.0625 
L 39.546875 62.0625 
L 39.546875 69.09375 
L 62.109375 69.09375 
L 62.109375 82.859375 
L 69.734375 82.859375 
L 69.734375 69.09375 
L 92.578125 69.09375 
L 92.578125 62.0625 
L 69.734375 62.0625 
L 69.734375 48.390625 
L 98.734375 48.390625 
L 98.734375 41.359375 
L 33.984375 41.359375 
z
M 34.375 28.078125 
L 75.6875 28.078125 
L 75.6875 38.03125 
L 83.296875 38.03125 
L 83.296875 28.078125 
L 97.859375 28.078125 
L 97.859375 21.046875 
L 83.296875 21.046875 
L 83.296875 -1.125 
Q 83.296875 -11.859375 73.25 -11.96875 
Q 67.1875 -12.0625 58.796875 -11.859375 
Q 58.40625 -8.640625 57.71875 -4.15625 
Q 65.140625 -4.9375 71 -4.9375 
Q 75.6875 -4.9375 75.6875 0.34375 
L 75.6875 21.046875 
L 34.375 21.046875 
z
M 40.53125 15.1875 
L 46 19.1875 
Q 53.21875 11.578125 58.296875 4.828125 
L 51.765625 0.25 
Q 46.96875 7.671875 40.53125 15.1875 
z
" id="MicrosoftYaHei-25345"/>
     <path d="M 8.6875 78.078125 
L 37.59375 78.078125 
L 37.59375 -0.921875 
Q 37.59375 -11.28125 28.125 -11.28125 
Q 23.734375 -11.28125 18.5625 -11.078125 
Q 18.265625 -8.34375 17.390625 -3.859375 
Q 22.5625 -4.4375 26.265625 -4.4375 
Q 30.28125 -4.4375 30.28125 0.046875 
L 30.28125 22.125 
L 16.015625 22.125 
Q 15.765625 -1.21875 7.125 -13.234375 
Q 4.59375 -10.40625 1.078125 -7.765625 
Q 8.6875 2.875 8.6875 23.484375 
z
M 41.3125 30.8125 
L 41.3125 37.75 
L 89.359375 37.75 
L 89.359375 30.8125 
Q 83.6875 16.890625 73.78125 6.546875 
Q 83.796875 -0.390625 98.4375 -4.25 
Q 95.40625 -8.15625 93.453125 -11.765625 
Q 78.421875 -6.734375 68.0625 1.21875 
Q 57.625 -7.671875 43.265625 -13.328125 
Q 40.4375 -8.734375 38.578125 -6.59375 
Q 52.59375 -1.171875 62.359375 6.203125 
Q 52 16.5 47.90625 30.8125 
z
M 88.671875 50.046875 
Q 94.140625 49.953125 98.828125 50.34375 
L 97.46875 43.015625 
Q 91.3125 42.828125 86.8125 42.828125 
Q 76.953125 42.828125 76.953125 54.15625 
L 76.953125 71.046875 
L 58.890625 71.046875 
L 58.890625 65.1875 
Q 58.890625 48.390625 45.015625 39.3125 
Q 42.578125 42.234375 39.75 45.265625 
Q 51.5625 51.703125 51.5625 65.375 
L 51.5625 77.984375 
L 84.28125 77.984375 
L 84.28125 54.4375 
Q 84.28125 50.046875 88.671875 50.046875 
z
M 81.0625 30.8125 
L 55.375 30.8125 
Q 59.328125 19.28125 68.109375 11.140625 
Q 77.046875 19.828125 81.0625 30.8125 
z
M 16.015625 28.5625 
L 30.28125 28.5625 
L 30.28125 47.015625 
L 16.015625 47.015625 
z
M 30.28125 71.625 
L 16.015625 71.625 
L 16.015625 53.46875 
L 30.28125 53.46875 
z
" id="MicrosoftYaHei-32929"/>
     <path d="M 50.390625 83.0625 
L 58.5 83.0625 
L 58.5 41.75 
Q 77.484375 55.46875 89.75 70.453125 
L 96.6875 65.28125 
Q 80.859375 47.859375 58.5 32.125 
L 58.5 3.859375 
Q 58.5 -2.59375 64.15625 -2.59375 
L 80.859375 -2.59375 
Q 87.3125 -2.59375 88.28125 3.171875 
Q 89.453125 10.59375 90.046875 19.484375 
Q 94.140625 17.921875 98.4375 16.65625 
Q 97.5625 7.5625 96.09375 0.34375 
Q 94.046875 -9.71875 83.109375 -9.71875 
L 61.625 -9.71875 
Q 50.390625 -9.71875 50.390625 2.484375 
z
M 16.609375 80.515625 
L 16.609375 51.21875 
L 44.140625 51.21875 
L 44.140625 43.890625 
L 16.609375 43.890625 
L 16.609375 2.390625 
Q 26.765625 6.6875 43.171875 14.5 
Q 43.171875 9.90625 43.5625 5.71875 
Q 29.203125 -0.046875 19.234375 -5.125 
Q 14.9375 -7.375 11.328125 -10.5 
L 5.375 -2.875 
Q 8.5 -0.53125 8.5 4.25 
L 8.5 80.515625 
z
" id="MicrosoftYaHei-27604"/>
     <path d="M 37.203125 28.765625 
L 41.109375 34.234375 
Q 45.5625 31.203125 50.734375 27.15625 
Q 54.5 37.15625 55.953125 48.875 
L 42.234375 48.875 
Q 36.71875 31 28.609375 20.171875 
Q 26.5625 23.296875 23.921875 26.21875 
Q 34.96875 42.09375 40.28125 70.65625 
L 29.6875 70.65625 
L 29.6875 77.484375 
L 67.484375 77.484375 
L 67.484375 70.65625 
L 47.5625 70.65625 
Q 46.046875 62.640625 44.1875 55.609375 
L 63.1875 55.609375 
L 63.1875 48.875 
Q 59.1875 10.40625 31.84375 -12.84375 
Q 29.6875 -9.90625 26.46875 -6.5 
Q 40.28125 4.640625 47.859375 20.359375 
Q 43.015625 24.3125 37.203125 28.765625 
z
M 1.375 35.796875 
Q 13.96875 57.171875 20.015625 83.15625 
L 27.25 81.78125 
Q 24.65625 70.84375 20.703125 60.203125 
L 20.703125 -12.640625 
L 14.0625 -12.640625 
L 14.0625 44.484375 
Q 9.765625 35.546875 4.5 26.8125 
Q 3.328125 30.71875 1.375 35.796875 
z
M 87.109375 82.859375 
L 94.234375 82.859375 
L 94.234375 1.3125 
Q 94.234375 -6.109375 91.890625 -8.84375 
Q 89.84375 -11.375 83.6875 -11.46875 
Q 79.5 -11.578125 70.125 -11.28125 
Q 69.734375 -7.28125 68.75 -3.171875 
Q 76.265625 -3.953125 81.0625 -3.953125 
Q 84.859375 -4.046875 85.9375 -2.59375 
Q 87.109375 -1.3125 87.109375 3.65625 
z
M 76.765625 10.203125 
L 69.828125 10.203125 
L 69.828125 67.53125 
L 76.765625 67.53125 
z
" id="MicrosoftYaHei-20363"/>
    </defs>
    <g style="fill:#262626;" transform="translate(70.251875 16.7925)scale(0.12 -0.12)">
     <use xlink:href="#MicrosoftYaHei-25511"/>
     <use x="100" xlink:href="#MicrosoftYaHei-21046"/>
     <use x="200" xlink:href="#MicrosoftYaHei-20154"/>
     <use x="300" xlink:href="#MicrosoftYaHei-25345"/>
     <use x="400" xlink:href="#MicrosoftYaHei-32929"/>
     <use x="500" xlink:href="#MicrosoftYaHei-27604"/>
     <use x="600" xlink:href="#MicrosoftYaHei-20363"/>
    </g>
   </g>
  </g>
  <g id="axes_2">
   <g id="patch_32">
    <path d="M 223.851875 185.8725 
L 363.351875 185.8725 
L 363.351875 22.7925 
L 223.851875 22.7925 
z
" style="fill:#eaeaf2;"/>
   </g>
   <g id="matplotlib.axis_3">
    <g id="xtick_4">
     <g id="line2d_11">
      <path clip-path="url(#pc5f1445d8c)" d="M 230.192784 185.8725 
L 230.192784 22.7925 
" style="fill:none;stroke:#ffffff;stroke-linecap:round;"/>
     </g>
     <g id="text_12">
      <!-- 2000 -->
      <g style="fill:#262626;" transform="translate(217.291847 204.165625)scale(0.11 -0.11)">
       <use xlink:href="#MicrosoftYaHei-50"/>
       <use x="58.642578" xlink:href="#MicrosoftYaHei-48"/>
       <use x="117.285156" xlink:href="#MicrosoftYaHei-48"/>
       <use x="175.927734" xlink:href="#MicrosoftYaHei-48"/>
      </g>
     </g>
    </g>
    <g id="xtick_5">
     <g id="line2d_12">
      <path clip-path="url(#pc5f1445d8c)" d="M 275.484992 185.8725 
L 275.484992 22.7925 
" style="fill:none;stroke:#ffffff;stroke-linecap:round;"/>
     </g>
     <g id="text_13">
      <!-- 2005 -->
      <defs>
       <path d="M 51.46875 23.34375 
Q 51.46875 12.25 44.109375 5.46875 
Q 36.765625 -1.3125 24.359375 -1.3125 
Q 13.71875 -1.3125 8.5 1.859375 
L 8.5 11.625 
Q 16.15625 6.640625 24.125 6.640625 
Q 32.03125 6.640625 36.890625 11 
Q 41.75 15.375 41.75 22.609375 
Q 41.75 29.828125 36.6875 33.859375 
Q 31.640625 37.890625 22.40625 37.890625 
Q 15.28125 37.890625 9.578125 37.25 
L 12.359375 75.640625 
L 47.703125 75.640625 
L 47.703125 67.234375 
L 20.40625 67.234375 
L 18.84375 45.796875 
L 25.734375 46.09375 
Q 37.75 46.09375 44.609375 40.109375 
Q 51.46875 34.125 51.46875 23.34375 
z
" id="MicrosoftYaHei-53"/>
      </defs>
      <g style="fill:#262626;" transform="translate(262.584054 204.165625)scale(0.11 -0.11)">
       <use xlink:href="#MicrosoftYaHei-50"/>
       <use x="58.642578" xlink:href="#MicrosoftYaHei-48"/>
       <use x="117.285156" xlink:href="#MicrosoftYaHei-48"/>
       <use x="175.927734" xlink:href="#MicrosoftYaHei-53"/>
      </g>
     </g>
    </g>
    <g id="xtick_6">
     <g id="line2d_13">
      <path clip-path="url(#pc5f1445d8c)" d="M 320.7772 185.8725 
L 320.7772 22.7925 
" style="fill:none;stroke:#ffffff;stroke-linecap:round;"/>
     </g>
     <g id="text_14">
      <!-- 2010 -->
      <g style="fill:#262626;" transform="translate(307.876262 204.165625)scale(0.11 -0.11)">
       <use xlink:href="#MicrosoftYaHei-50"/>
       <use x="58.642578" xlink:href="#MicrosoftYaHei-48"/>
       <use x="117.285156" xlink:href="#MicrosoftYaHei-49"/>
       <use x="175.927734" xlink:href="#MicrosoftYaHei-48"/>
      </g>
     </g>
    </g>
   </g>
   <g id="matplotlib.axis_4">
    <g id="ytick_8">
     <g id="line2d_14">
      <path clip-path="url(#pc5f1445d8c)" d="M 223.851875 185.8725 
L 363.351875 185.8725 
" style="fill:none;stroke:#ffffff;stroke-linecap:round;"/>
     </g>
     <g id="text_15">
      <!-- 0 -->
      <g style="fill:#262626;" transform="translate(207.901406 190.269062)scale(0.11 -0.11)">
       <use xlink:href="#MicrosoftYaHei-48"/>
      </g>
     </g>
    </g>
    <g id="ytick_9">
     <g id="line2d_15">
      <path clip-path="url(#pc5f1445d8c)" d="M 223.851875 149.276297 
L 363.351875 149.276297 
" style="fill:none;stroke:#ffffff;stroke-linecap:round;"/>
     </g>
     <g id="text_16">
      <!-- 500 -->
      <g style="fill:#262626;" transform="translate(195.000469 153.672859)scale(0.11 -0.11)">
       <use xlink:href="#MicrosoftYaHei-53"/>
       <use x="58.642578" xlink:href="#MicrosoftYaHei-48"/>
       <use x="117.285156" xlink:href="#MicrosoftYaHei-48"/>
      </g>
     </g>
    </g>
    <g id="ytick_10">
     <g id="line2d_16">
      <path clip-path="url(#pc5f1445d8c)" d="M 223.851875 112.680094 
L 363.351875 112.680094 
" style="fill:none;stroke:#ffffff;stroke-linecap:round;"/>
     </g>
     <g id="text_17">
      <!-- 1000 -->
      <g style="fill:#262626;" transform="translate(188.55 117.076656)scale(0.11 -0.11)">
       <use xlink:href="#MicrosoftYaHei-49"/>
       <use x="58.642578" xlink:href="#MicrosoftYaHei-48"/>
       <use x="117.285156" xlink:href="#MicrosoftYaHei-48"/>
       <use x="175.927734" xlink:href="#MicrosoftYaHei-48"/>
      </g>
     </g>
    </g>
    <g id="ytick_11">
     <g id="line2d_17">
      <path clip-path="url(#pc5f1445d8c)" d="M 223.851875 76.083891 
L 363.351875 76.083891 
" style="fill:none;stroke:#ffffff;stroke-linecap:round;"/>
     </g>
     <g id="text_18">
      <!-- 1500 -->
      <g style="fill:#262626;" transform="translate(188.55 80.480453)scale(0.11 -0.11)">
       <use xlink:href="#MicrosoftYaHei-49"/>
       <use x="58.642578" xlink:href="#MicrosoftYaHei-53"/>
       <use x="117.285156" xlink:href="#MicrosoftYaHei-48"/>
       <use x="175.927734" xlink:href="#MicrosoftYaHei-48"/>
      </g>
     </g>
    </g>
    <g id="ytick_12">
     <g id="line2d_18">
      <path clip-path="url(#pc5f1445d8c)" d="M 223.851875 39.487688 
L 363.351875 39.487688 
" style="fill:none;stroke:#ffffff;stroke-linecap:round;"/>
     </g>
     <g id="text_19">
      <!-- 2000 -->
      <g style="fill:#262626;" transform="translate(188.55 43.88425)scale(0.11 -0.11)">
       <use xlink:href="#MicrosoftYaHei-50"/>
       <use x="58.642578" xlink:href="#MicrosoftYaHei-48"/>
       <use x="117.285156" xlink:href="#MicrosoftYaHei-48"/>
       <use x="175.927734" xlink:href="#MicrosoftYaHei-48"/>
      </g>
     </g>
    </g>
   </g>
   <g id="patch_33">
    <path clip-path="url(#pc5f1445d8c)" d="M 230.192784 185.8725 
L 235.265511 185.8725 
L 235.265511 37.73107 
L 230.192784 37.73107 
z
" style="fill:#4c72b0;stroke:#ffffff;stroke-linejoin:miter;"/>
   </g>
   <g id="patch_34">
    <path clip-path="url(#pc5f1445d8c)" d="M 235.265511 185.8725 
L 240.338239 185.8725 
L 240.338239 37.73107 
L 235.265511 37.73107 
z
" style="fill:#4c72b0;stroke:#ffffff;stroke-linejoin:miter;"/>
   </g>
   <g id="patch_35">
    <path clip-path="url(#pc5f1445d8c)" d="M 240.338239 185.8725 
L 245.410966 185.8725 
L 245.410966 185.8725 
L 240.338239 185.8725 
z
" style="fill:#4c72b0;stroke:#ffffff;stroke-linejoin:miter;"/>
   </g>
   <g id="patch_36">
    <path clip-path="url(#pc5f1445d8c)" d="M 245.410966 185.8725 
L 250.483693 185.8725 
L 250.483693 34.876566 
L 245.410966 34.876566 
z
" style="fill:#4c72b0;stroke:#ffffff;stroke-linejoin:miter;"/>
   </g>
   <g id="patch_37">
    <path clip-path="url(#pc5f1445d8c)" d="M 250.483693 185.8725 
L 255.55642 185.8725 
L 255.55642 185.8725 
L 250.483693 185.8725 
z
" style="fill:#4c72b0;stroke:#ffffff;stroke-linejoin:miter;"/>
   </g>
   <g id="patch_38">
    <path clip-path="url(#pc5f1445d8c)" d="M 255.55642 185.8725 
L 260.629148 185.8725 
L 260.629148 37.877455 
L 255.55642 37.877455 
z
" style="fill:#4c72b0;stroke:#ffffff;stroke-linejoin:miter;"/>
   </g>
   <g id="patch_39">
    <path clip-path="url(#pc5f1445d8c)" d="M 260.629148 185.8725 
L 265.701875 185.8725 
L 265.701875 185.8725 
L 260.629148 185.8725 
z
" style="fill:#4c72b0;stroke:#ffffff;stroke-linejoin:miter;"/>
   </g>
   <g id="patch_40">
    <path clip-path="url(#pc5f1445d8c)" d="M 265.701875 185.8725 
L 270.774602 185.8725 
L 270.774602 41.39069 
L 265.701875 41.39069 
z
" style="fill:#4c72b0;stroke:#ffffff;stroke-linejoin:miter;"/>
   </g>
   <g id="patch_41">
    <path clip-path="url(#pc5f1445d8c)" d="M 270.774602 185.8725 
L 275.84733 185.8725 
L 275.84733 40.951536 
L 270.774602 40.951536 
z
" style="fill:#4c72b0;stroke:#ffffff;stroke-linejoin:miter;"/>
   </g>
   <g id="patch_42">
    <path clip-path="url(#pc5f1445d8c)" d="M 275.84733 185.8725 
L 280.920057 185.8725 
L 280.920057 185.8725 
L 275.84733 185.8725 
z
" style="fill:#4c72b0;stroke:#ffffff;stroke-linejoin:miter;"/>
   </g>
   <g id="patch_43">
    <path clip-path="url(#pc5f1445d8c)" d="M 280.920057 185.8725 
L 285.992784 185.8725 
L 285.992784 30.997369 
L 280.920057 30.997369 
z
" style="fill:#4c72b0;stroke:#ffffff;stroke-linejoin:miter;"/>
   </g>
   <g id="patch_44">
    <path clip-path="url(#pc5f1445d8c)" d="M 285.992784 185.8725 
L 291.065511 185.8725 
L 291.065511 185.8725 
L 285.992784 185.8725 
z
" style="fill:#4c72b0;stroke:#ffffff;stroke-linejoin:miter;"/>
   </g>
   <g id="patch_45">
    <path clip-path="url(#pc5f1445d8c)" d="M 291.065511 185.8725 
L 296.138239 185.8725 
L 296.138239 39.414495 
L 291.065511 39.414495 
z
" style="fill:#4c72b0;stroke:#ffffff;stroke-linejoin:miter;"/>
   </g>
   <g id="patch_46">
    <path clip-path="url(#pc5f1445d8c)" d="M 296.138239 185.8725 
L 301.210966 185.8725 
L 301.210966 185.8725 
L 296.138239 185.8725 
z
" style="fill:#4c72b0;stroke:#ffffff;stroke-linejoin:miter;"/>
   </g>
   <g id="patch_47">
    <path clip-path="url(#pc5f1445d8c)" d="M 301.210966 185.8725 
L 306.283693 185.8725 
L 306.283693 41.610268 
L 301.210966 41.610268 
z
" style="fill:#4c72b0;stroke:#ffffff;stroke-linejoin:miter;"/>
   </g>
   <g id="patch_48">
    <path clip-path="url(#pc5f1445d8c)" d="M 306.283693 185.8725 
L 311.35642 185.8725 
L 311.35642 185.8725 
L 306.283693 185.8725 
z
" style="fill:#4c72b0;stroke:#ffffff;stroke-linejoin:miter;"/>
   </g>
   <g id="patch_49">
    <path clip-path="url(#pc5f1445d8c)" d="M 311.35642 185.8725 
L 316.429148 185.8725 
L 316.429148 34.730181 
L 311.35642 34.730181 
z
" style="fill:#4c72b0;stroke:#ffffff;stroke-linejoin:miter;"/>
   </g>
   <g id="patch_50">
    <path clip-path="url(#pc5f1445d8c)" d="M 316.429148 185.8725 
L 321.501875 185.8725 
L 321.501875 37.4383 
L 316.429148 37.4383 
z
" style="fill:#4c72b0;stroke:#ffffff;stroke-linejoin:miter;"/>
   </g>
   <g id="patch_51">
    <path clip-path="url(#pc5f1445d8c)" d="M 321.501875 185.8725 
L 326.574602 185.8725 
L 326.574602 185.8725 
L 321.501875 185.8725 
z
" style="fill:#4c72b0;stroke:#ffffff;stroke-linejoin:miter;"/>
   </g>
   <g id="patch_52">
    <path clip-path="url(#pc5f1445d8c)" d="M 326.574602 185.8725 
L 331.64733 185.8725 
L 331.64733 37.950647 
L 326.574602 37.950647 
z
" style="fill:#4c72b0;stroke:#ffffff;stroke-linejoin:miter;"/>
   </g>
   <g id="patch_53">
    <path clip-path="url(#pc5f1445d8c)" d="M 331.64733 185.8725 
L 336.720057 185.8725 
L 336.720057 185.8725 
L 331.64733 185.8725 
z
" style="fill:#4c72b0;stroke:#ffffff;stroke-linejoin:miter;"/>
   </g>
   <g id="patch_54">
    <path clip-path="url(#pc5f1445d8c)" d="M 336.720057 185.8725 
L 341.792784 185.8725 
L 341.792784 34.510604 
L 336.720057 34.510604 
z
" style="fill:#4c72b0;stroke:#ffffff;stroke-linejoin:miter;"/>
   </g>
   <g id="patch_55">
    <path clip-path="url(#pc5f1445d8c)" d="M 341.792784 185.8725 
L 346.865511 185.8725 
L 346.865511 185.8725 
L 341.792784 185.8725 
z
" style="fill:#4c72b0;stroke:#ffffff;stroke-linejoin:miter;"/>
   </g>
   <g id="patch_56">
    <path clip-path="url(#pc5f1445d8c)" d="M 346.865511 185.8725 
L 351.938239 185.8725 
L 351.938239 33.046756 
L 346.865511 33.046756 
z
" style="fill:#4c72b0;stroke:#ffffff;stroke-linejoin:miter;"/>
   </g>
   <g id="patch_57">
    <path clip-path="url(#pc5f1445d8c)" d="M 351.938239 185.8725 
L 357.010966 185.8725 
L 357.010966 30.558214 
L 351.938239 30.558214 
z
" style="fill:#4c72b0;stroke:#ffffff;stroke-linejoin:miter;"/>
   </g>
   <g id="patch_58">
    <path d="M 223.851875 185.8725 
L 223.851875 22.7925 
" style="fill:none;stroke:#ffffff;stroke-linecap:square;stroke-linejoin:miter;stroke-width:1.25;"/>
   </g>
   <g id="patch_59">
    <path d="M 363.351875 185.8725 
L 363.351875 22.7925 
" style="fill:none;stroke:#ffffff;stroke-linecap:square;stroke-linejoin:miter;stroke-width:1.25;"/>
   </g>
   <g id="patch_60">
    <path d="M 223.851875 185.8725 
L 363.351875 185.8725 
" style="fill:none;stroke:#ffffff;stroke-linecap:square;stroke-linejoin:miter;stroke-width:1.25;"/>
   </g>
   <g id="patch_61">
    <path d="M 223.851875 22.7925 
L 363.351875 22.7925 
" style="fill:none;stroke:#ffffff;stroke-linecap:square;stroke-linejoin:miter;stroke-width:1.25;"/>
   </g>
   <g id="text_20">
    <!-- 注册时间 -->
    <defs>
     <path d="M 25.390625 0.25 
L 58.203125 0.25 
L 58.203125 27.984375 
L 32.8125 27.984375 
L 32.8125 35.40625 
L 58.203125 35.40625 
L 58.203125 59.03125 
L 30.078125 59.03125 
L 30.078125 66.453125 
L 61.234375 66.453125 
Q 56.640625 73.734375 51.859375 79.734375 
L 58.296875 83.84375 
Q 64.84375 76.21875 68.65625 70.359375 
L 62.546875 66.453125 
L 95.3125 66.453125 
L 95.3125 59.03125 
L 66.40625 59.03125 
L 66.40625 35.40625 
L 91.796875 35.40625 
L 91.796875 27.984375 
L 66.40625 27.984375 
L 66.40625 0.25 
L 98.046875 0.25 
L 98.046875 -7.171875 
L 25.390625 -7.171875 
z
M 14.9375 28.375 
Q 18.953125 26.609375 22.65625 25.140625 
Q 17.28125 7.953125 11.421875 -12.359375 
L 3.03125 -9.421875 
Q 9.1875 7.28125 14.9375 28.375 
z
M 9.859375 81.78125 
Q 19.34375 74.65625 26.765625 67.53125 
Q 23.4375 64.203125 20.90625 61.578125 
Q 15.625 67.140625 4.890625 76.421875 
z
M 6.15625 56.5 
Q 13.1875 51.609375 23.4375 43.21875 
Q 19.828125 39.109375 17.671875 36.859375 
Q 7.421875 46.234375 1.265625 50.921875 
z
" id="MicrosoftYaHei-27880"/>
     <path d="M 55.5625 78.078125 
L 87.796875 78.078125 
L 87.796875 43.109375 
L 98.25 43.109375 
L 98.25 35.890625 
L 87.796875 35.890625 
L 87.796875 -1.515625 
Q 87.796875 -11.671875 78.421875 -11.671875 
Q 71.6875 -11.671875 65.921875 -11.375 
Q 65.625 -8.546875 64.65625 -4.15625 
Q 71.78125 -4.828125 76.078125 -4.828125 
Q 80.375 -4.828125 80.375 -0.34375 
L 80.375 35.890625 
L 62.984375 35.890625 
L 62.984375 30.125 
Q 62.984375 4.046875 51.953125 -13.328125 
Q 49.609375 -10.796875 46 -7.859375 
Q 55.5625 7.171875 55.5625 29.734375 
L 55.5625 35.890625 
L 43.171875 35.890625 
L 43.171875 1.421875 
Q 43.171875 -8.34375 33.5 -8.34375 
Q 28.21875 -8.34375 23.34375 -8.0625 
Q 23.046875 -5.21875 22.078125 -0.734375 
Q 27.4375 -1.421875 31.640625 -1.421875 
Q 35.75 -1.421875 35.75 2.984375 
L 35.75 35.890625 
L 19.046875 35.890625 
L 19.046875 28.859375 
Q 19.046875 2.6875 7.90625 -13.328125 
Q 5.5625 -10.5 2.046875 -7.859375 
Q 11.53125 6.6875 11.53125 28.171875 
L 11.53125 35.890625 
L 1.953125 35.890625 
L 1.953125 43.109375 
L 11.53125 43.109375 
L 11.53125 78.078125 
L 43.171875 78.078125 
L 43.171875 43.109375 
L 55.5625 43.109375 
z
M 80.375 71.234375 
L 62.984375 71.234375 
L 62.984375 43.109375 
L 80.375 43.109375 
z
M 35.75 71.234375 
L 19.046875 71.234375 
L 19.046875 43.109375 
L 35.75 43.109375 
z
" id="MicrosoftYaHei-20876"/>
     <path d="M 5.375 73.875 
L 39.0625 73.875 
L 39.0625 -5.71875 
L 31.34375 -5.71875 
L 31.34375 2.390625 
L 13.09375 2.390625 
L 13.09375 -6.890625 
L 5.375 -6.890625 
z
M 42.28125 61.578125 
L 76.953125 61.578125 
L 76.953125 83.15625 
L 84.765625 83.15625 
L 84.765625 61.578125 
L 98.640625 61.578125 
L 98.640625 54.34375 
L 84.765625 54.34375 
L 84.765625 1.8125 
Q 84.765625 -11.28125 72.265625 -11.28125 
Q 66.609375 -11.28125 55.671875 -10.984375 
Q 55.171875 -7.46875 54.109375 -2.78125 
Q 64.359375 -3.5625 70.125 -3.5625 
Q 76.953125 -3.5625 76.953125 3.375 
L 76.953125 54.34375 
L 42.28125 54.34375 
z
M 13.09375 9.625 
L 31.34375 9.625 
L 31.34375 34.90625 
L 13.09375 34.90625 
z
M 31.34375 66.65625 
L 13.09375 66.65625 
L 13.09375 41.9375 
L 31.34375 41.9375 
z
M 53.21875 44.96875 
Q 61.03125 30.71875 65.046875 22.21875 
Q 62.5 21.046875 57.234375 18.3125 
Q 53.421875 27.59375 46.296875 41.453125 
z
" id="MicrosoftYaHei-26102"/>
     <path d="M 29.109375 56.984375 
L 70.515625 56.984375 
L 70.515625 8.640625 
L 36.140625 8.640625 
L 36.140625 2.59375 
L 29.109375 2.59375 
z
M 37.3125 69.578125 
L 37.3125 76.90625 
L 93.953125 76.90625 
L 93.953125 -0.4375 
Q 93.953125 -12.75 79.984375 -12.75 
Q 74.3125 -12.75 65.140625 -12.546875 
Q 64.75 -9.625 63.578125 -4.640625 
Q 71.6875 -5.21875 79 -5.21875 
Q 86.328125 -5.21875 86.328125 1.90625 
L 86.328125 69.578125 
z
M 6.546875 63.8125 
L 14.15625 63.8125 
L 14.15625 -12.75 
L 6.546875 -12.75 
z
M 36.140625 15.578125 
L 63.484375 15.578125 
L 63.484375 29.4375 
L 36.140625 29.4375 
z
M 63.484375 50.046875 
L 36.140625 50.046875 
L 36.140625 36.375 
L 63.484375 36.375 
z
M 11.625 78.171875 
L 17.1875 83.15625 
Q 24.609375 76.125 30.953125 69.484375 
L 24.609375 63.921875 
Q 18.65625 70.953125 11.625 78.171875 
z
" id="MicrosoftYaHei-38388"/>
    </defs>
    <g style="fill:#262626;" transform="translate(269.601875 16.7925)scale(0.12 -0.12)">
     <use xlink:href="#MicrosoftYaHei-27880"/>
     <use x="100" xlink:href="#MicrosoftYaHei-20876"/>
     <use x="200" xlink:href="#MicrosoftYaHei-26102"/>
     <use x="300" xlink:href="#MicrosoftYaHei-38388"/>
    </g>
   </g>
  </g>
  <g id="axes_3">
   <g id="patch_62">
    <path d="M 405.201875 185.8725 
L 544.701875 185.8725 
L 544.701875 22.7925 
L 405.201875 22.7925 
z
" style="fill:#eaeaf2;"/>
   </g>
   <g id="matplotlib.axis_5">
    <g id="xtick_7">
     <g id="line2d_19">
      <path clip-path="url(#p8d3b0d8095)" d="M 410.261792 185.8725 
L 410.261792 22.7925 
" style="fill:none;stroke:#ffffff;stroke-linecap:round;"/>
     </g>
     <g id="text_21">
      <!-- 0 -->
      <g style="fill:#262626;" transform="translate(407.036558 204.165625)scale(0.11 -0.11)">
       <use xlink:href="#MicrosoftYaHei-48"/>
      </g>
     </g>
    </g>
    <g id="xtick_8">
     <g id="line2d_20">
      <path clip-path="url(#p8d3b0d8095)" d="M 474.311379 185.8725 
L 474.311379 22.7925 
" style="fill:none;stroke:#ffffff;stroke-linecap:round;"/>
     </g>
     <g id="text_22">
      <!-- 5000 -->
      <g style="fill:#262626;" transform="translate(461.410442 204.165625)scale(0.11 -0.11)">
       <use xlink:href="#MicrosoftYaHei-53"/>
       <use x="58.642578" xlink:href="#MicrosoftYaHei-48"/>
       <use x="117.285156" xlink:href="#MicrosoftYaHei-48"/>
       <use x="175.927734" xlink:href="#MicrosoftYaHei-48"/>
      </g>
     </g>
    </g>
    <g id="xtick_9">
     <g id="line2d_21">
      <path clip-path="url(#p8d3b0d8095)" d="M 538.360966 185.8725 
L 538.360966 22.7925 
" style="fill:none;stroke:#ffffff;stroke-linecap:round;"/>
     </g>
     <g id="text_23">
      <!-- 10000 -->
      <g style="fill:#262626;" transform="translate(522.234794 204.165625)scale(0.11 -0.11)">
       <use xlink:href="#MicrosoftYaHei-49"/>
       <use x="58.642578" xlink:href="#MicrosoftYaHei-48"/>
       <use x="117.285156" xlink:href="#MicrosoftYaHei-48"/>
       <use x="175.927734" xlink:href="#MicrosoftYaHei-48"/>
       <use x="234.570312" xlink:href="#MicrosoftYaHei-48"/>
      </g>
     </g>
    </g>
   </g>
   <g id="matplotlib.axis_6">
    <g id="ytick_13">
     <g id="line2d_22">
      <path clip-path="url(#p8d3b0d8095)" d="M 405.201875 185.8725 
L 544.701875 185.8725 
" style="fill:none;stroke:#ffffff;stroke-linecap:round;"/>
     </g>
     <g id="text_24">
      <!-- 0 -->
      <g style="fill:#262626;" transform="translate(389.251406 190.269062)scale(0.11 -0.11)">
       <use xlink:href="#MicrosoftYaHei-48"/>
      </g>
     </g>
    </g>
    <g id="ytick_14">
     <g id="line2d_23">
      <path clip-path="url(#p8d3b0d8095)" d="M 405.201875 162.286428 
L 544.701875 162.286428 
" style="fill:none;stroke:#ffffff;stroke-linecap:round;"/>
     </g>
     <g id="text_25">
      <!-- 200 -->
      <g style="fill:#262626;" transform="translate(376.350469 166.68299)scale(0.11 -0.11)">
       <use xlink:href="#MicrosoftYaHei-50"/>
       <use x="58.642578" xlink:href="#MicrosoftYaHei-48"/>
       <use x="117.285156" xlink:href="#MicrosoftYaHei-48"/>
      </g>
     </g>
    </g>
    <g id="ytick_15">
     <g id="line2d_24">
      <path clip-path="url(#p8d3b0d8095)" d="M 405.201875 138.700356 
L 544.701875 138.700356 
" style="fill:none;stroke:#ffffff;stroke-linecap:round;"/>
     </g>
     <g id="text_26">
      <!-- 400 -->
      <g style="fill:#262626;" transform="translate(376.350469 143.096918)scale(0.11 -0.11)">
       <use xlink:href="#MicrosoftYaHei-52"/>
       <use x="58.642578" xlink:href="#MicrosoftYaHei-48"/>
       <use x="117.285156" xlink:href="#MicrosoftYaHei-48"/>
      </g>
     </g>
    </g>
    <g id="ytick_16">
     <g id="line2d_25">
      <path clip-path="url(#p8d3b0d8095)" d="M 405.201875 115.114283 
L 544.701875 115.114283 
" style="fill:none;stroke:#ffffff;stroke-linecap:round;"/>
     </g>
     <g id="text_27">
      <!-- 600 -->
      <g style="fill:#262626;" transform="translate(376.350469 119.510846)scale(0.11 -0.11)">
       <use xlink:href="#MicrosoftYaHei-54"/>
       <use x="58.642578" xlink:href="#MicrosoftYaHei-48"/>
       <use x="117.285156" xlink:href="#MicrosoftYaHei-48"/>
      </g>
     </g>
    </g>
    <g id="ytick_17">
     <g id="line2d_26">
      <path clip-path="url(#p8d3b0d8095)" d="M 405.201875 91.528211 
L 544.701875 91.528211 
" style="fill:none;stroke:#ffffff;stroke-linecap:round;"/>
     </g>
     <g id="text_28">
      <!-- 800 -->
      <g style="fill:#262626;" transform="translate(376.350469 95.924774)scale(0.11 -0.11)">
       <use xlink:href="#MicrosoftYaHei-56"/>
       <use x="58.642578" xlink:href="#MicrosoftYaHei-48"/>
       <use x="117.285156" xlink:href="#MicrosoftYaHei-48"/>
      </g>
     </g>
    </g>
    <g id="ytick_18">
     <g id="line2d_27">
      <path clip-path="url(#p8d3b0d8095)" d="M 405.201875 67.942139 
L 544.701875 67.942139 
" style="fill:none;stroke:#ffffff;stroke-linecap:round;"/>
     </g>
     <g id="text_29">
      <!-- 1000 -->
      <g style="fill:#262626;" transform="translate(369.9 72.338701)scale(0.11 -0.11)">
       <use xlink:href="#MicrosoftYaHei-49"/>
       <use x="58.642578" xlink:href="#MicrosoftYaHei-48"/>
       <use x="117.285156" xlink:href="#MicrosoftYaHei-48"/>
       <use x="175.927734" xlink:href="#MicrosoftYaHei-48"/>
      </g>
     </g>
    </g>
    <g id="ytick_19">
     <g id="line2d_28">
      <path clip-path="url(#p8d3b0d8095)" d="M 405.201875 44.356067 
L 544.701875 44.356067 
" style="fill:none;stroke:#ffffff;stroke-linecap:round;"/>
     </g>
     <g id="text_30">
      <!-- 1200 -->
      <g style="fill:#262626;" transform="translate(369.9 48.752629)scale(0.11 -0.11)">
       <use xlink:href="#MicrosoftYaHei-49"/>
       <use x="58.642578" xlink:href="#MicrosoftYaHei-50"/>
       <use x="117.285156" xlink:href="#MicrosoftYaHei-48"/>
       <use x="175.927734" xlink:href="#MicrosoftYaHei-48"/>
      </g>
     </g>
    </g>
   </g>
   <g id="patch_63">
    <path clip-path="url(#p8d3b0d8095)" d="M 411.542784 185.8725 
L 416.615511 185.8725 
L 416.615511 36.454732 
L 411.542784 36.454732 
z
" style="fill:#4c72b0;stroke:#ffffff;stroke-linejoin:miter;"/>
   </g>
   <g id="patch_64">
    <path clip-path="url(#p8d3b0d8095)" d="M 416.615511 185.8725 
L 421.688239 185.8725 
L 421.688239 36.336802 
L 416.615511 36.336802 
z
" style="fill:#4c72b0;stroke:#ffffff;stroke-linejoin:miter;"/>
   </g>
   <g id="patch_65">
    <path clip-path="url(#p8d3b0d8095)" d="M 421.688239 185.8725 
L 426.760966 185.8725 
L 426.760966 47.422256 
L 421.688239 47.422256 
z
" style="fill:#4c72b0;stroke:#ffffff;stroke-linejoin:miter;"/>
   </g>
   <g id="patch_66">
    <path clip-path="url(#p8d3b0d8095)" d="M 426.760966 185.8725 
L 431.833693 185.8725 
L 431.833693 43.766415 
L 426.760966 43.766415 
z
" style="fill:#4c72b0;stroke:#ffffff;stroke-linejoin:miter;"/>
   </g>
   <g id="patch_67">
    <path clip-path="url(#p8d3b0d8095)" d="M 431.833693 185.8725 
L 436.90642 185.8725 
L 436.90642 42.587111 
L 431.833693 42.587111 
z
" style="fill:#4c72b0;stroke:#ffffff;stroke-linejoin:miter;"/>
   </g>
   <g id="patch_68">
    <path clip-path="url(#p8d3b0d8095)" d="M 436.90642 185.8725 
L 441.979148 185.8725 
L 441.979148 43.058833 
L 436.90642 43.058833 
z
" style="fill:#4c72b0;stroke:#ffffff;stroke-linejoin:miter;"/>
   </g>
   <g id="patch_69">
    <path clip-path="url(#p8d3b0d8095)" d="M 441.979148 185.8725 
L 447.051875 185.8725 
L 447.051875 37.280245 
L 441.979148 37.280245 
z
" style="fill:#4c72b0;stroke:#ffffff;stroke-linejoin:miter;"/>
   </g>
   <g id="patch_70">
    <path clip-path="url(#p8d3b0d8095)" d="M 447.051875 185.8725 
L 452.124602 185.8725 
L 452.124602 39.638852 
L 447.051875 39.638852 
z
" style="fill:#4c72b0;stroke:#ffffff;stroke-linejoin:miter;"/>
   </g>
   <g id="patch_71">
    <path clip-path="url(#p8d3b0d8095)" d="M 452.124602 185.8725 
L 457.19733 185.8725 
L 457.19733 38.93127 
L 452.124602 38.93127 
z
" style="fill:#4c72b0;stroke:#ffffff;stroke-linejoin:miter;"/>
   </g>
   <g id="patch_72">
    <path clip-path="url(#p8d3b0d8095)" d="M 457.19733 185.8725 
L 462.270057 185.8725 
L 462.270057 46.950534 
L 457.19733 46.950534 
z
" style="fill:#4c72b0;stroke:#ffffff;stroke-linejoin:miter;"/>
   </g>
   <g id="patch_73">
    <path clip-path="url(#p8d3b0d8095)" d="M 462.270057 185.8725 
L 467.342784 185.8725 
L 467.342784 42.35125 
L 462.270057 42.35125 
z
" style="fill:#4c72b0;stroke:#ffffff;stroke-linejoin:miter;"/>
   </g>
   <g id="patch_74">
    <path clip-path="url(#p8d3b0d8095)" d="M 467.342784 185.8725 
L 472.415511 185.8725 
L 472.415511 34.803707 
L 467.342784 34.803707 
z
" style="fill:#4c72b0;stroke:#ffffff;stroke-linejoin:miter;"/>
   </g>
   <g id="patch_75">
    <path clip-path="url(#p8d3b0d8095)" d="M 472.415511 185.8725 
L 477.488239 185.8725 
L 477.488239 49.191211 
L 472.415511 49.191211 
z
" style="fill:#4c72b0;stroke:#ffffff;stroke-linejoin:miter;"/>
   </g>
   <g id="patch_76">
    <path clip-path="url(#p8d3b0d8095)" d="M 477.488239 185.8725 
L 482.560966 185.8725 
L 482.560966 40.110574 
L 477.488239 40.110574 
z
" style="fill:#4c72b0;stroke:#ffffff;stroke-linejoin:miter;"/>
   </g>
   <g id="patch_77">
    <path clip-path="url(#p8d3b0d8095)" d="M 482.560966 185.8725 
L 487.633693 185.8725 
L 487.633693 42.469181 
L 482.560966 42.469181 
z
" style="fill:#4c72b0;stroke:#ffffff;stroke-linejoin:miter;"/>
   </g>
   <g id="patch_78">
    <path clip-path="url(#p8d3b0d8095)" d="M 487.633693 185.8725 
L 492.70642 185.8725 
L 492.70642 40.936086 
L 487.633693 40.936086 
z
" style="fill:#4c72b0;stroke:#ffffff;stroke-linejoin:miter;"/>
   </g>
   <g id="patch_79">
    <path clip-path="url(#p8d3b0d8095)" d="M 492.70642 185.8725 
L 497.779148 185.8725 
L 497.779148 30.558214 
L 492.70642 30.558214 
z
" style="fill:#4c72b0;stroke:#ffffff;stroke-linejoin:miter;"/>
   </g>
   <g id="patch_80">
    <path clip-path="url(#p8d3b0d8095)" d="M 497.779148 185.8725 
L 502.851875 185.8725 
L 502.851875 41.997459 
L 497.779148 41.997459 
z
" style="fill:#4c72b0;stroke:#ffffff;stroke-linejoin:miter;"/>
   </g>
   <g id="patch_81">
    <path clip-path="url(#p8d3b0d8095)" d="M 502.851875 185.8725 
L 507.924602 185.8725 
L 507.924602 45.299509 
L 502.851875 45.299509 
z
" style="fill:#4c72b0;stroke:#ffffff;stroke-linejoin:miter;"/>
   </g>
   <g id="patch_82">
    <path clip-path="url(#p8d3b0d8095)" d="M 507.924602 185.8725 
L 512.99733 185.8725 
L 512.99733 46.714674 
L 507.924602 46.714674 
z
" style="fill:#4c72b0;stroke:#ffffff;stroke-linejoin:miter;"/>
   </g>
   <g id="patch_83">
    <path clip-path="url(#p8d3b0d8095)" d="M 512.99733 185.8725 
L 518.070057 185.8725 
L 518.070057 45.299509 
L 512.99733 45.299509 
z
" style="fill:#4c72b0;stroke:#ffffff;stroke-linejoin:miter;"/>
   </g>
   <g id="patch_84">
    <path clip-path="url(#p8d3b0d8095)" d="M 518.070057 185.8725 
L 523.142784 185.8725 
L 523.142784 33.152682 
L 518.070057 33.152682 
z
" style="fill:#4c72b0;stroke:#ffffff;stroke-linejoin:miter;"/>
   </g>
   <g id="patch_85">
    <path clip-path="url(#p8d3b0d8095)" d="M 523.142784 185.8725 
L 528.215511 185.8725 
L 528.215511 52.729122 
L 523.142784 52.729122 
z
" style="fill:#4c72b0;stroke:#ffffff;stroke-linejoin:miter;"/>
   </g>
   <g id="patch_86">
    <path clip-path="url(#p8d3b0d8095)" d="M 528.215511 185.8725 
L 533.288239 185.8725 
L 533.288239 41.407808 
L 528.215511 41.407808 
z
" style="fill:#4c72b0;stroke:#ffffff;stroke-linejoin:miter;"/>
   </g>
   <g id="patch_87">
    <path clip-path="url(#p8d3b0d8095)" d="M 533.288239 185.8725 
L 538.360966 185.8725 
L 538.360966 43.294693 
L 533.288239 43.294693 
z
" style="fill:#4c72b0;stroke:#ffffff;stroke-linejoin:miter;"/>
   </g>
   <g id="patch_88">
    <path d="M 405.201875 185.8725 
L 405.201875 22.7925 
" style="fill:none;stroke:#ffffff;stroke-linecap:square;stroke-linejoin:miter;stroke-width:1.25;"/>
   </g>
   <g id="patch_89">
    <path d="M 544.701875 185.8725 
L 544.701875 22.7925 
" style="fill:none;stroke:#ffffff;stroke-linecap:square;stroke-linejoin:miter;stroke-width:1.25;"/>
   </g>
   <g id="patch_90">
    <path d="M 405.201875 185.8725 
L 544.701875 185.8725 
" style="fill:none;stroke:#ffffff;stroke-linecap:square;stroke-linejoin:miter;stroke-width:1.25;"/>
   </g>
   <g id="patch_91">
    <path d="M 405.201875 22.7925 
L 544.701875 22.7925 
" style="fill:none;stroke:#ffffff;stroke-linecap:square;stroke-linejoin:miter;stroke-width:1.25;"/>
   </g>
   <g id="text_31">
    <!-- 注册资本 -->
    <defs>
     <path d="M 28.609375 42.4375 
Q 57.90625 49.953125 60.359375 67.828125 
L 44.734375 67.828125 
Q 41.21875 60.59375 36.921875 54.828125 
Q 33.796875 56.984375 30.375 59.03125 
Q 39.546875 69.875 43.359375 84.125 
L 50.6875 82.375 
Q 49.21875 78.078125 47.65625 74.265625 
L 93.953125 74.265625 
L 93.953125 68.109375 
L 87.3125 54.828125 
Q 83.984375 56.390625 80.171875 57.859375 
L 85.359375 67.828125 
L 67.96875 67.828125 
Q 67.1875 64.703125 66.21875 61.765625 
Q 74.609375 47.90625 97.75 42.53125 
Q 95.015625 38.8125 92.875 35.40625 
Q 72.078125 42.046875 63.1875 54.9375 
Q 56.453125 43.21875 33.59375 35.984375 
Q 31.640625 38.921875 28.609375 42.4375 
z
M 16.015625 35.59375 
L 83.890625 35.59375 
L 83.890625 3.765625 
L 76.265625 3.765625 
L 76.265625 28.765625 
L 23.640625 28.765625 
L 23.640625 3.765625 
L 16.015625 3.765625 
z
M 27.25 61.28125 
Q 29 57.46875 31.0625 54.34375 
Q 19.4375 45.65625 6.84375 35.5 
L 1.765625 42.140625 
Q 15.53125 51.609375 27.25 61.28125 
z
M 9.859375 82.46875 
Q 18.265625 77.203125 26.171875 71.53125 
L 21.1875 65.484375 
Q 14.15625 71.046875 5.5625 77.09375 
z
M 53.8125 25.046875 
Q 53.71875 14.5 52.34375 8.84375 
Q 74.609375 1.609375 94.828125 -6.203125 
L 90.71875 -13.328125 
Q 72.265625 -5.71875 49.609375 2.390625 
Q 43.0625 -9.234375 7.90625 -13.71875 
Q 6.15625 -10.015625 3.71875 -6.109375 
Q 36.03125 -3.265625 42.78125 6 
Q 46.390625 10.890625 46.1875 25.046875 
z
" id="MicrosoftYaHei-36164"/>
     <path d="M 98.140625 12.546875 
Q 95.609375 10.015625 91.5 5.71875 
Q 67.875 23.921875 53.8125 52.390625 
L 53.8125 13.71875 
L 76.171875 13.71875 
L 76.171875 6.890625 
L 53.8125 6.890625 
L 53.8125 -13.140625 
L 46.1875 -13.140625 
L 46.1875 6.890625 
L 23.046875 6.890625 
L 23.046875 13.71875 
L 46.1875 13.71875 
L 46.1875 52.390625 
Q 33.734375 27.59375 8.015625 4.546875 
Q 4.203125 8.15625 1.5625 10.40625 
Q 29.34375 33.203125 43.109375 58.640625 
L 3.71875 58.640625 
L 3.71875 65.875 
L 46.1875 65.875 
L 46.1875 83.453125 
L 53.8125 83.453125 
L 53.8125 65.875 
L 96.296875 65.875 
L 96.296875 58.640625 
L 56.59375 58.640625 
Q 72.125 29.4375 98.140625 12.546875 
z
" id="MicrosoftYaHei-26412"/>
    </defs>
    <g style="fill:#262626;" transform="translate(450.951875 16.7925)scale(0.12 -0.12)">
     <use xlink:href="#MicrosoftYaHei-27880"/>
     <use x="100" xlink:href="#MicrosoftYaHei-20876"/>
     <use x="200" xlink:href="#MicrosoftYaHei-36164"/>
     <use x="300" xlink:href="#MicrosoftYaHei-26412"/>
    </g>
   </g>
  </g>
 </g>
 <defs>
  <clipPath id="pc50786892b">
   <rect height="163.08" width="139.5" x="42.501875" y="22.7925"/>
  </clipPath>
  <clipPath id="pc5f1445d8c">
   <rect height="163.08" width="139.5" x="223.851875" y="22.7925"/>
  </clipPath>
  <clipPath id="p8d3b0d8095">
   <rect height="163.08" width="139.5" x="405.201875" y="22.7925"/>
  </clipPath>
 </defs>
</svg>
