<?xml version="1.0" encoding="utf-8" standalone="no"?>
<!DOCTYPE svg PUBLIC "-//W3C//DTD SVG 1.1//EN"
  "http://www.w3.org/Graphics/SVG/1.1/DTD/svg11.dtd">
<!-- Created with matplotlib (https://matplotlib.org/) -->
<svg height="247.4325pt" version="1.1" viewBox="0 0 290.009156 247.4325" width="290.009156pt" xmlns="http://www.w3.org/2000/svg" xmlns:xlink="http://www.w3.org/1999/xlink">
 <defs>
  <style type="text/css">
*{stroke-linecap:butt;stroke-linejoin:round;}
  </style>
 </defs>
 <g id="figure_1">
  <g id="patch_1">
   <path d="M 0 247.4325 
L 290.009156 247.4325 
L 290.009156 0 
L 0 0 
z
" style="fill:#ffffff;"/>
  </g>
  <g id="axes_1">
   <g id="matplotlib.axis_1"/>
   <g id="matplotlib.axis_2"/>
   <g id="patch_2">
    <path d="M 232.285248 131.5125 
C 232.285248 116.028172 228.150238 100.821144 220.309164 87.468917 
C 212.46809 74.11669 201.201794 63.097499 187.678985 55.55442 
L 145.309248 131.5125 
L 232.285248 131.5125 
z
" style="fill:#4c72b0;stroke:#ffffff;stroke-linejoin:miter;"/>
   </g>
   <g id="patch_3">
    <path d="M 187.678985 55.55442 
C 174.418135 48.157462 159.448561 44.360509 144.265284 44.542766 
C 129.082007 44.725022 114.207889 48.880211 101.128417 56.593352 
L 145.309248 131.5125 
L 187.678985 55.55442 
z
" style="fill:#dd8452;stroke:#ffffff;stroke-linejoin:miter;"/>
   </g>
   <g id="patch_4">
    <path d="M 101.128417 56.593352 
C 88.077356 64.289738 77.261122 75.264463 69.755386 88.426092 
C 62.249651 101.587721 58.31176 116.484987 58.333336 131.636359 
L 145.309248 131.5125 
L 101.128417 56.593352 
z
" style="fill:#55a868;stroke:#ffffff;stroke-linejoin:miter;"/>
   </g>
   <g id="patch_5">
    <path d="M 58.333336 131.636359 
C 58.354729 146.658818 62.267775 161.422582 69.689727 174.483568 
C 77.11168 187.544553 87.792397 198.462564 100.687167 206.169679 
L 145.309248 131.5125 
L 58.333336 131.636359 
z
" style="fill:#c44e52;stroke:#ffffff;stroke-linejoin:miter;"/>
   </g>
   <g id="patch_6">
    <path d="M 100.687167 206.169679 
C 113.553635 213.859879 128.192239 218.094933 143.177237 218.462365 
C 158.162235 218.829798 172.99081 215.317278 186.218717 208.266913 
L 145.309248 131.5125 
L 100.687167 206.169679 
z
" style="fill:#8172b3;stroke:#ffffff;stroke-linejoin:miter;"/>
   </g>
   <g id="patch_7">
    <path d="M 186.218717 208.266913 
C 199.399014 201.241924 210.550275 190.938956 218.593996 178.354471 
C 226.637718 165.769986 231.305941 151.323205 232.147176 136.411363 
L 145.309248 131.5125 
L 186.218717 208.266913 
z
" style="fill:#937860;stroke:#ffffff;stroke-linejoin:miter;"/>
   </g>
   <g id="patch_8">
    <path d="M 232.147176 136.411363 
C 232.193189 135.595736 232.227708 134.779502 232.250723 133.962902 
C 232.273739 133.146303 232.285248 132.32942 232.285248 131.512496 
L 145.309248 131.5125 
L 232.147176 136.411363 
z
" style="fill:#da8bc3;stroke:#ffffff;stroke-linejoin:miter;"/>
   </g>
   <g id="text_1">
    <!-- 交通运输业 -->
    <defs>
     <path d="M 65.53125 41.265625 
L 73.046875 38.03125 
Q 65.765625 21.484375 55.71875 11.140625 
Q 70.359375 0.296875 97.265625 -4.34375 
Q 93.65625 -9.234375 91.40625 -12.546875 
Q 65.375 -5.90625 49.90625 5.859375 
Q 36.46875 -4.640625 7.234375 -13.234375 
Q 5.078125 -9.8125 2.34375 -5.71875 
Q 29.828125 1.21875 43.796875 11.140625 
Q 34.125 21 27.15625 36.859375 
L 33.6875 40.578125 
Q 40.09375 26.078125 49.90625 16.265625 
Q 58.84375 25.140625 65.53125 41.265625 
z
M 3.03125 68.5 
L 48.78125 68.5 
Q 46.484375 73.296875 42.1875 80.125 
L 49.421875 83.640625 
Q 53.609375 77.78125 56.84375 71.34375 
L 51.375 68.5 
L 96.78125 68.5 
L 96.78125 61.28125 
L 3.03125 61.28125 
z
M 31.9375 56.78125 
L 38.1875 51.703125 
Q 24.515625 37.359375 9.765625 26.03125 
Q 7.328125 29.046875 4.296875 32.28125 
Q 19.046875 42.71875 31.9375 56.78125 
z
M 67 57.28125 
Q 84.859375 43.21875 94.921875 33.734375 
Q 92.1875 31 89.0625 27.390625 
Q 78.03125 38.71875 61.625 52.203125 
z
" id="MicrosoftYaHei-20132"/>
     <path d="M 40.53125 2.296875 
L 33.59375 2.296875 
L 33.59375 57.28125 
L 57.125 57.28125 
Q 49.8125 61.03125 42 64.796875 
L 46 69.484375 
Q 53.65625 65.765625 60.40625 62.40625 
L 77.828125 71.53125 
L 32.03125 71.53125 
L 32.03125 77.78125 
L 90.71875 77.78125 
L 90.71875 71.234375 
L 67.140625 58.984375 
Q 68.84375 58.109375 70.453125 57.28125 
L 91.40625 57.28125 
L 91.40625 13.140625 
Q 91.40625 2 81.15625 2 
Q 76.078125 2 70.125 2.296875 
Q 69.625 6 68.65625 9.8125 
Q 74.8125 9.125 79.203125 9.125 
Q 84.46875 9.125 84.46875 14.203125 
L 84.46875 19 
L 65.828125 19 
L 65.828125 3.765625 
L 58.890625 3.765625 
L 58.890625 19 
L 40.53125 19 
z
M 41.609375 -3.078125 
L 65.921875 -3.46875 
L 98.4375 -2.6875 
Q 97.359375 -5.90625 95.703125 -10.40625 
L 63.375 -10.59375 
L 40.140625 -10.015625 
Q 23.53125 -9.8125 16.890625 1.421875 
Q 12.890625 -2.296875 5.171875 -11.671875 
L 1.171875 -3.5625 
Q 9.8125 4.78125 13.671875 8.40625 
L 13.671875 41.265625 
L 2.046875 41.265625 
L 2.046875 48.484375 
L 21.1875 48.484375 
L 21.1875 6.734375 
Q 27.203125 -2.984375 41.609375 -3.078125 
z
M 13.375 81.296875 
Q 18.359375 75.25 27.046875 62.84375 
L 20.125 57.953125 
Q 12.203125 70.359375 7.125 77.09375 
z
M 84.46875 51.03125 
L 65.828125 51.03125 
L 65.828125 41.265625 
L 84.46875 41.265625 
z
M 65.828125 25.25 
L 84.46875 25.25 
L 84.46875 35.015625 
L 65.828125 35.015625 
z
M 40.53125 41.265625 
L 58.890625 41.265625 
L 58.890625 51.03125 
L 40.53125 51.03125 
z
M 40.53125 25.25 
L 58.890625 25.25 
L 58.890625 35.015625 
L 40.53125 35.015625 
z
" id="MicrosoftYaHei-36890"/>
     <path d="M 67.484375 34.328125 
L 73.640625 38.234375 
Q 84.671875 23.78125 93.171875 10.40625 
L 86.140625 5.609375 
Q 83.9375 9.328125 81.640625 13.03125 
Q 53.90625 11.28125 41.890625 9.71875 
Q 38.578125 9.234375 34.96875 8.0625 
L 31.34375 15.09375 
Q 35.15625 17.71875 37.703125 21.34375 
Q 44.34375 31.390625 50.78125 44.671875 
L 29.984375 44.671875 
L 29.984375 52.09375 
L 96.875 52.09375 
L 96.875 44.671875 
L 60.0625 44.671875 
Q 51.609375 29.15625 43.75 17.4375 
Q 58.59375 18.3125 77.484375 19.578125 
Q 72.65625 27.046875 67.484375 34.328125 
z
M 43.0625 -2.203125 
L 71.6875 -2.78125 
L 98.640625 -1.703125 
Q 96.96875 -5.71875 95.515625 -9.515625 
L 66.40625 -9.71875 
L 41.40625 -9.421875 
Q 25.875 -9.03125 18.0625 1.90625 
Q 12.015625 -3.265625 5.765625 -10.890625 
L 1.5625 -2.59375 
Q 1.8125 -2.296875 14.546875 8.546875 
L 14.546875 41.84375 
L 2.046875 41.84375 
L 2.046875 49.078125 
L 22.359375 49.078125 
L 22.359375 7.171875 
Q 29.734375 -1.953125 43.0625 -2.203125 
z
M 36.53125 77.296875 
L 91.21875 77.296875 
L 91.21875 69.875 
L 36.53125 69.875 
z
M 12.40625 82.46875 
Q 19.921875 73.390625 27.25 63.71875 
L 20.3125 59.03125 
Q 13.765625 68.796875 6.453125 78.171875 
z
" id="MicrosoftYaHei-36816"/>
     <path d="M 9.765625 34.625 
L 18.5625 34.625 
L 18.5625 52.390625 
L 25 52.390625 
L 25 34.625 
L 34.375 34.625 
L 34.375 28.171875 
L 25 28.171875 
L 25 14.796875 
Q 30.171875 15.484375 35.546875 16.359375 
Q 35.0625 12.640625 34.859375 9.625 
Q 29.890625 8.9375 25 8.25 
L 25 -13.53125 
L 18.5625 -13.53125 
L 18.5625 7.28125 
Q 10.640625 6.109375 2.640625 4.828125 
L 1.5625 11.96875 
Q 9.96875 12.84375 18.5625 13.921875 
L 18.5625 28.171875 
L 2.9375 28.171875 
L 2.9375 34.90625 
Q 6.640625 45.359375 10.640625 61.46875 
L 2.046875 61.46875 
L 2.046875 67.71875 
L 12.203125 67.71875 
Q 13.875 74.75 15.625 82.765625 
L 22.65625 81.203125 
Q 20.796875 74.078125 19.140625 67.71875 
L 36.8125 67.71875 
L 36.8125 61.46875 
L 17.484375 61.46875 
Q 13.1875 45.65625 9.765625 34.625 
z
M 43.953125 -13.328125 
L 37.703125 -13.328125 
L 37.703125 44.1875 
L 63.671875 44.1875 
L 63.671875 -3.859375 
Q 63.671875 -12.453125 55.765625 -12.453125 
Q 52.734375 -12.453125 48.140625 -12.359375 
Q 47.65625 -10.203125 46.78125 -6.296875 
Q 50.6875 -6.59375 53.90625 -6.59375 
Q 57.421875 -6.59375 57.421875 -2.6875 
L 57.421875 8.640625 
L 43.953125 8.640625 
z
M 72.171875 82.078125 
L 70.515625 79.9375 
Q 81.9375 62.75 99.125 55.328125 
Q 95.796875 51.421875 94.046875 48.578125 
Q 87.40625 52.296875 81.734375 56.984375 
L 81.734375 52.09375 
L 47.859375 52.09375 
L 47.859375 56.390625 
Q 42.09375 51.609375 35.84375 47.609375 
Q 32.90625 51.421875 30.671875 53.5625 
Q 50.09375 64.890625 62.015625 82.078125 
z
M 86.71875 45.953125 
L 93.359375 45.953125 
L 93.359375 -1.609375 
Q 93.359375 -12.453125 84.1875 -12.546875 
Q 79.203125 -12.640625 72.75 -12.359375 
Q 72.265625 -8.734375 71.390625 -5.03125 
Q 77.546875 -5.8125 81.9375 -5.8125 
Q 86.71875 -5.8125 86.71875 -0.734375 
z
M 65.71875 74.859375 
Q 58.40625 65.671875 49.90625 58.25 
L 80.171875 58.25 
Q 71.875 65.484375 65.71875 74.859375 
z
M 71.78125 41.265625 
L 78.03125 41.265625 
L 78.03125 5.71875 
L 71.78125 5.71875 
z
M 43.953125 14.109375 
L 57.421875 14.109375 
L 57.421875 23.484375 
L 43.953125 23.484375 
z
M 57.421875 38.234375 
L 43.953125 38.234375 
L 43.953125 28.953125 
L 57.421875 28.953125 
z
" id="MicrosoftYaHei-36755"/>
     <path d="M 1.859375 0.734375 
L 33.203125 0.734375 
L 33.203125 81.390625 
L 41.40625 81.390625 
L 41.40625 0.734375 
L 58.5 0.734375 
L 58.5 81.390625 
L 66.703125 81.390625 
L 66.703125 0.734375 
L 98.34375 0.734375 
L 98.34375 -6.5 
L 1.859375 -6.5 
z
M 13.1875 62.25 
Q 21.1875 43.40625 28.71875 22.21875 
L 20.703125 18.609375 
Q 14.15625 39.203125 6.0625 59.125 
z
M 70.21875 21.34375 
Q 79.984375 42.046875 86.625 61.375 
L 94.53125 58.25 
Q 85.453125 34.90625 77.25 18.109375 
z
" id="MicrosoftYaHei-19994"/>
    </defs>
    <g style="fill:#262626;" transform="translate(227.809156 86.093856)scale(0.11 -0.11)">
     <use xlink:href="#MicrosoftYaHei-20132"/>
     <use x="100" xlink:href="#MicrosoftYaHei-36890"/>
     <use x="200" xlink:href="#MicrosoftYaHei-36816"/>
     <use x="300" xlink:href="#MicrosoftYaHei-36755"/>
     <use x="400" xlink:href="#MicrosoftYaHei-19994"/>
    </g>
   </g>
   <g id="text_2">
    <!-- 16.9% -->
    <defs>
     <path d="M 27.828125 0 
L 27.828125 64.703125 
Q 25.59375 62.453125 20.234375 59.671875 
Q 14.890625 56.890625 10.359375 55.765625 
L 10.359375 65.140625 
Q 16.359375 66.796875 23.1875 70.4375 
Q 30.03125 74.078125 33.6875 77.296875 
L 37.3125 77.296875 
L 37.3125 0 
z
" id="MicrosoftYaHei-49"/>
     <path d="M 49.703125 65.921875 
Q 43.796875 68.953125 37.359375 68.953125 
Q 27.546875 68.953125 21.578125 60.40625 
Q 15.625 51.859375 15.53125 37.0625 
L 15.765625 37.0625 
Q 21.140625 47.46875 32.90625 47.46875 
Q 42.71875 47.46875 48.578125 41.0625 
Q 54.4375 34.671875 54.4375 24.078125 
Q 54.4375 12.984375 47.671875 5.859375 
Q 40.921875 -1.265625 30.421875 -1.265625 
Q 18.890625 -1.265625 12.328125 7.734375 
Q 5.765625 16.75 5.765625 33.296875 
Q 5.765625 53.328125 14.375 65.109375 
Q 23 76.90625 37.0625 76.90625 
Q 45.125 76.90625 49.703125 74.703125 
z
M 16.109375 24.75 
Q 16.109375 17.28125 20.09375 11.953125 
Q 24.078125 6.640625 30.671875 6.640625 
Q 36.921875 6.640625 40.828125 11.234375 
Q 44.734375 15.828125 44.734375 23.046875 
Q 44.734375 30.859375 41.046875 35.203125 
Q 37.359375 39.546875 30.5625 39.546875 
Q 24.125 39.546875 20.109375 35.15625 
Q 16.109375 30.765625 16.109375 24.75 
z
" id="MicrosoftYaHei-54"/>
     <path d="M 5.8125 5.03125 
Q 5.8125 7.671875 7.609375 9.46875 
Q 9.421875 11.28125 12.109375 11.28125 
Q 14.84375 11.28125 16.640625 9.453125 
Q 18.453125 7.625 18.453125 5.03125 
Q 18.453125 2.484375 16.640625 0.65625 
Q 14.84375 -1.171875 12.0625 -1.171875 
Q 9.375 -1.171875 7.59375 0.65625 
Q 5.8125 2.484375 5.8125 5.03125 
z
" id="MicrosoftYaHei-46"/>
     <path d="M 9.03125 10.25 
Q 15.28125 6.640625 22.515625 6.640625 
Q 32.671875 6.640625 38.25 14.640625 
Q 43.84375 22.65625 43.84375 37.40625 
Q 43.75 37.3125 43.65625 37.40625 
Q 38.671875 27.9375 26.90625 27.9375 
Q 17.390625 27.9375 11.140625 34.46875 
Q 4.890625 41.015625 4.890625 51.46875 
Q 4.890625 62.59375 11.71875 69.75 
Q 18.5625 76.90625 29.4375 76.90625 
Q 40.71875 76.90625 47.0625 68.046875 
Q 53.421875 59.1875 53.421875 42.234375 
Q 53.421875 21.296875 45.21875 10.015625 
Q 37.015625 -1.265625 22.515625 -1.265625 
Q 14.546875 -1.265625 9.03125 1.3125 
z
M 14.546875 52.6875 
Q 14.546875 45.0625 18.453125 40.59375 
Q 22.359375 36.140625 29.25 36.140625 
Q 35.203125 36.140625 39.25 40.203125 
Q 43.3125 44.28125 43.3125 50.09375 
Q 43.3125 58.25 39.28125 63.59375 
Q 35.25 68.953125 28.65625 68.953125 
Q 22.5625 68.953125 18.546875 64.3125 
Q 14.546875 59.671875 14.546875 52.6875 
z
" id="MicrosoftYaHei-57"/>
     <path d="M 4.25 56.546875 
Q 4.25 65.828125 9.203125 71.296875 
Q 14.15625 76.765625 22.5625 76.765625 
Q 30.609375 76.765625 35.125 71.734375 
Q 39.65625 66.703125 39.65625 57.71875 
Q 39.65625 48.78125 34.671875 43.203125 
Q 29.6875 37.640625 21.4375 37.640625 
Q 13.625 37.640625 8.9375 42.8125 
Q 4.25 48 4.25 56.546875 
z
M 11.765625 57.03125 
Q 11.765625 50.734375 14.5 47.3125 
Q 17.234375 43.890625 21.96875 43.890625 
Q 26.859375 43.890625 29.515625 47.4375 
Q 32.171875 50.984375 32.171875 57.421875 
Q 32.171875 63.71875 29.5625 67.15625 
Q 26.953125 70.609375 22.21875 70.609375 
Q 17.390625 70.609375 14.578125 67.015625 
Q 11.765625 63.421875 11.765625 57.03125 
z
M 72.609375 75.640625 
L 24.03125 -0.484375 
L 15.875 -0.484375 
L 64.453125 75.640625 
z
M 49.5625 17.71875 
Q 49.5625 27 54.515625 32.546875 
Q 59.46875 38.09375 67.828125 38.09375 
Q 75.828125 38.09375 80.359375 33.03125 
Q 84.90625 27.984375 84.90625 18.796875 
Q 84.90625 9.90625 79.875 4.359375 
Q 74.859375 -1.171875 66.75 -1.171875 
Q 58.890625 -1.171875 54.21875 4.078125 
Q 49.5625 9.328125 49.5625 17.71875 
z
M 57.03125 18.171875 
Q 57.03125 12.015625 59.765625 8.5625 
Q 62.5 5.125 67.234375 5.125 
Q 72.125 5.125 74.78125 8.6875 
Q 77.4375 12.25 77.4375 18.65625 
Q 77.4375 25 74.78125 28.359375 
Q 72.125 31.734375 67.484375 31.734375 
Q 62.5 31.734375 59.765625 28.140625 
Q 57.03125 24.5625 57.03125 18.171875 
z
" id="MicrosoftYaHei-37"/>
    </defs>
    <g style="fill:#262626;" transform="translate(172.971073 108.391038)scale(0.12 -0.12)">
     <use xlink:href="#MicrosoftYaHei-49"/>
     <use x="58.642578" xlink:href="#MicrosoftYaHei-54"/>
     <use x="117.285156" xlink:href="#MicrosoftYaHei-46"/>
     <use x="141.357422" xlink:href="#MicrosoftYaHei-57"/>
     <use x="200" xlink:href="#MicrosoftYaHei-37"/>
    </g>
   </g>
   <g id="text_3">
    <!-- 服务业 -->
    <defs>
     <path d="M 44.046875 77.203125 
L 92.28125 77.203125 
Q 91.796875 69.28125 91.5 64.703125 
Q 90.71875 49.5625 76.078125 49.859375 
Q 72.078125 49.953125 63.484375 50.25 
Q 62.890625 54.046875 62.203125 57.953125 
Q 69.4375 57.078125 75.203125 56.890625 
Q 83.59375 56.59375 84.28125 64.890625 
Q 84.578125 67.4375 84.765625 70.453125 
L 51.46875 70.453125 
L 51.46875 42.328125 
L 92.671875 42.328125 
L 92.671875 36.578125 
Q 88.765625 19.4375 78.375 6.734375 
Q 86.8125 -1.265625 99.3125 -5.71875 
Q 96 -9.625 93.65625 -12.75 
Q 81.640625 -7.125 73.296875 1.21875 
Q 65.828125 -6.15625 55.765625 -11.765625 
Q 53.90625 -8.546875 51.765625 -5.328125 
Q 61.53125 -0.34375 68.609375 6.59375 
Q 59.078125 18.796875 56.0625 35.984375 
L 51.46875 35.984375 
L 51.46875 -12.546875 
L 44.046875 -12.546875 
z
M 8.40625 77.59375 
L 35.9375 77.59375 
L 35.9375 -1.609375 
Q 35.9375 -11.375 26.859375 -11.375 
Q 21.875 -11.375 17.578125 -11.078125 
Q 17.1875 -8.15625 16.40625 -4.15625 
Q 21.390625 -4.9375 25 -4.9375 
Q 29 -4.9375 29 -0.921875 
L 29 21.53125 
L 15.328125 21.53125 
Q 15.625 -0.921875 7.234375 -12.75 
Q 5.078125 -9.90625 1.859375 -7.28125 
Q 8.40625 2.78125 8.40625 21.234375 
z
M 84.96875 35.984375 
L 62.75 35.984375 
Q 65.765625 21.921875 73.53125 12.0625 
Q 81.59375 22.265625 84.96875 35.984375 
z
M 15.328125 27.59375 
L 29 27.59375 
L 29 46.4375 
L 15.328125 46.4375 
z
M 29 71.234375 
L 15.328125 71.234375 
L 15.328125 52.484375 
L 29 52.484375 
z
" id="MicrosoftYaHei-26381"/>
     <path d="M 29.6875 84.234375 
L 37.015625 81.109375 
Q 34.8125 77.484375 32.421875 74.078125 
L 85.25 74.078125 
L 85.25 67.53125 
Q 76.171875 56.5 60.40625 48.25 
Q 76.8125 42.28125 99.515625 40.875 
Q 96.390625 36.46875 94.046875 32.671875 
Q 68.609375 36.03125 51.375 44.046875 
Q 31.984375 35.796875 4.5 31 
Q 2.828125 34.03125 0.484375 37.84375 
Q 24.953125 41.609375 42.96875 48.484375 
Q 31.84375 55.28125 25.140625 64.546875 
Q 17.578125 55.5625 8.40625 47.90625 
Q 5.46875 51.03125 3.03125 53.171875 
Q 21 67.4375 29.6875 84.234375 
z
M 9.1875 27 
L 37.59375 27 
Q 38.28125 31.734375 38.765625 37.546875 
L 46.6875 37.546875 
Q 46.046875 31.734375 45.359375 27 
L 84.765625 27 
Q 83.796875 9.515625 82.90625 2.484375 
Q 81.34375 -11.28125 66.5 -11.375 
Q 60.75 -11.46875 49.21875 -10.984375 
Q 48.640625 -7.375 47.75 -2.875 
Q 58.984375 -3.859375 66.3125 -3.953125 
Q 74.609375 -3.765625 75.484375 4.4375 
Q 76.375 11.765625 76.765625 20.0625 
L 44.1875 20.0625 
Q 39.015625 -3.421875 7.8125 -14.015625 
Q 5.5625 -10.796875 3.03125 -7.46875 
Q 31.0625 1.609375 36.234375 20.0625 
L 9.1875 20.0625 
z
M 74.8125 67.625 
L 31.203125 67.625 
Q 39.0625 58.203125 51.421875 52.09375 
Q 65.53125 58.6875 74.8125 67.625 
z
" id="MicrosoftYaHei-21153"/>
    </defs>
    <g style="fill:#262626;" transform="translate(111.160888 38.875089)scale(0.11 -0.11)">
     <use xlink:href="#MicrosoftYaHei-26381"/>
     <use x="100" xlink:href="#MicrosoftYaHei-21153"/>
     <use x="200" xlink:href="#MicrosoftYaHei-19994"/>
    </g>
   </g>
   <g id="text_4">
    <!-- 16.6% -->
    <g style="fill:#262626;" transform="translate(127.344745 82.635347)scale(0.12 -0.12)">
     <use xlink:href="#MicrosoftYaHei-49"/>
     <use x="58.642578" xlink:href="#MicrosoftYaHei-54"/>
     <use x="117.285156" xlink:href="#MicrosoftYaHei-46"/>
     <use x="141.357422" xlink:href="#MicrosoftYaHei-54"/>
     <use x="200" xlink:href="#MicrosoftYaHei-37"/>
    </g>
   </g>
   <g id="text_5">
    <!-- 商业服务业 -->
    <defs>
     <path d="M 9.375 51.703125 
L 33.109375 51.703125 
Q 29.734375 56.640625 25.78125 61.46875 
L 31.734375 65.484375 
Q 36.421875 60.015625 40.234375 55.328125 
L 34.96875 51.703125 
L 57.125 51.703125 
Q 62.0625 58.0625 66.21875 65.09375 
L 73.640625 60.796875 
Q 69 55.28125 65.828125 51.703125 
L 90.140625 51.703125 
L 90.140625 0.53125 
Q 90.140625 -11.765625 78.90625 -11.859375 
Q 72.859375 -11.96875 65.234375 -11.765625 
Q 64.453125 -6.109375 63.765625 -3.5625 
Q 71.484375 -4.34375 76.46875 -4.34375 
Q 82.8125 -4.34375 82.8125 2.6875 
L 82.8125 44.96875 
L 16.703125 44.96875 
L 16.703125 -13.03125 
L 9.375 -13.03125 
z
M 30.46875 -3.375 
L 30.46875 28.078125 
L 69.625 28.078125 
L 69.625 1.8125 
L 37.5 1.8125 
L 37.5 -3.375 
z
M 2.25 72.609375 
L 46.828125 72.609375 
Q 44.96875 76.078125 42.28125 80.328125 
L 49.8125 83.734375 
Q 52.734375 78.71875 55.953125 72.609375 
L 98.046875 72.609375 
L 98.046875 65.671875 
L 2.25 65.671875 
z
M 62.59375 8.0625 
L 62.59375 21.828125 
L 37.5 21.828125 
L 37.5 8.0625 
z
M 37.984375 43.890625 
L 43.265625 38.8125 
Q 31.84375 29.046875 21.875 21.625 
Q 18.953125 25.640625 17.28125 27.390625 
Q 28.03125 34.515625 37.984375 43.890625 
z
M 55.171875 38.53125 
L 59.46875 43.890625 
Q 73.921875 34.8125 81.34375 29.34375 
L 76.46875 23.1875 
Q 66.796875 31 55.171875 38.53125 
z
" id="MicrosoftYaHei-21830"/>
    </defs>
    <g style="fill:#262626;" transform="translate(7.2 87.146748)scale(0.11 -0.11)">
     <use xlink:href="#MicrosoftYaHei-21830"/>
     <use x="100" xlink:href="#MicrosoftYaHei-19994"/>
     <use x="200" xlink:href="#MicrosoftYaHei-26381"/>
     <use x="300" xlink:href="#MicrosoftYaHei-21153"/>
     <use x="400" xlink:href="#MicrosoftYaHei-19994"/>
    </g>
   </g>
   <g id="text_6">
    <!-- 16.5% -->
    <defs>
     <path d="M 51.46875 23.34375 
Q 51.46875 12.25 44.109375 5.46875 
Q 36.765625 -1.3125 24.359375 -1.3125 
Q 13.71875 -1.3125 8.5 1.859375 
L 8.5 11.625 
Q 16.15625 6.640625 24.125 6.640625 
Q 32.03125 6.640625 36.890625 11 
Q 41.75 15.375 41.75 22.609375 
Q 41.75 29.828125 36.6875 33.859375 
Q 31.640625 37.890625 22.40625 37.890625 
Q 15.28125 37.890625 9.578125 37.25 
L 12.359375 75.640625 
L 47.703125 75.640625 
L 47.703125 67.234375 
L 20.40625 67.234375 
L 18.84375 45.796875 
L 25.734375 46.09375 
Q 37.75 46.09375 44.609375 40.109375 
Q 51.46875 34.125 51.46875 23.34375 
z
" id="MicrosoftYaHei-53"/>
    </defs>
    <g style="fill:#262626;" transform="translate(82.638806 108.965343)scale(0.12 -0.12)">
     <use xlink:href="#MicrosoftYaHei-49"/>
     <use x="58.642578" xlink:href="#MicrosoftYaHei-54"/>
     <use x="117.285156" xlink:href="#MicrosoftYaHei-46"/>
     <use x="141.357422" xlink:href="#MicrosoftYaHei-53"/>
     <use x="200" xlink:href="#MicrosoftYaHei-37"/>
    </g>
   </g>
   <g id="text_7">
    <!-- 工业 -->
    <defs>
     <path d="M 2.828125 1.515625 
L 45.609375 1.515625 
L 45.609375 66.65625 
L 8.40625 66.65625 
L 8.40625 74.46875 
L 91.609375 74.46875 
L 91.609375 66.65625 
L 54.203125 66.65625 
L 54.203125 1.515625 
L 97.078125 1.515625 
L 97.078125 -6.109375 
L 2.828125 -6.109375 
z
" id="MicrosoftYaHei-24037"/>
    </defs>
    <g style="fill:#262626;" transform="translate(40.127775 181.809972)scale(0.11 -0.11)">
     <use xlink:href="#MicrosoftYaHei-24037"/>
     <use x="100" xlink:href="#MicrosoftYaHei-19994"/>
    </g>
   </g>
   <g id="text_8">
    <!-- 16.4% -->
    <defs>
     <path d="M 45.40625 75.640625 
L 45.40625 25.6875 
L 56.734375 25.6875 
L 56.734375 17.78125 
L 45.40625 17.78125 
L 45.40625 0 
L 36.140625 0 
L 36.140625 17.78125 
L 0.828125 17.78125 
L 0.828125 25.25 
Q 10.25 35.84375 19.765625 49.65625 
Q 29.296875 63.484375 35.5 75.640625 
z
M 11.578125 25.6875 
L 36.140625 25.6875 
L 36.140625 61.71875 
Q 31.0625 52.59375 25.25 44.015625 
Q 19.4375 35.453125 11.578125 25.6875 
z
" id="MicrosoftYaHei-52"/>
    </defs>
    <g style="fill:#262626;" transform="translate(82.599411 160.599828)scale(0.12 -0.12)">
     <use xlink:href="#MicrosoftYaHei-49"/>
     <use x="58.642578" xlink:href="#MicrosoftYaHei-54"/>
     <use x="117.285156" xlink:href="#MicrosoftYaHei-46"/>
     <use x="141.357422" xlink:href="#MicrosoftYaHei-52"/>
     <use x="200" xlink:href="#MicrosoftYaHei-37"/>
    </g>
   </g>
   <g id="text_9">
    <!-- 零售业 -->
    <defs>
     <path d="M 6.34375 66.15625 
L 45.90625 66.15625 
L 45.90625 72.125 
L 9.375 72.125 
L 9.375 78.375 
L 89.0625 78.375 
L 89.0625 72.125 
L 53.328125 72.125 
L 53.328125 66.15625 
L 94.046875 66.15625 
L 94.046875 48 
L 86.8125 48 
L 86.8125 59.90625 
L 53.328125 59.90625 
L 53.328125 46.234375 
L 45.90625 46.234375 
L 45.90625 59.90625 
L 13.578125 59.90625 
L 13.578125 48 
L 6.34375 48 
z
M 25.78125 0.046875 
L 28.8125 6 
Q 39.0625 2.78125 49.8125 -0.734375 
L 67.78125 10.59375 
L 19.34375 10.59375 
L 19.34375 16.84375 
L 50.875 16.84375 
Q 46.96875 21.828125 42.09375 27.296875 
L 47.5625 31.390625 
Q 52.34375 26.3125 56.84375 20.953125 
L 51.078125 16.84375 
L 78.03125 16.84375 
L 78.03125 9.515625 
L 57.421875 -3.375 
Q 63.375 -5.421875 69.53125 -7.671875 
L 66.5 -14.3125 
Q 42.875 -5.421875 25.78125 0.046875 
z
M 55.375 44.28125 
L 54 42.53125 
Q 70.90625 26.90625 99.21875 21.734375 
Q 96.390625 17.4375 94.4375 14.109375 
Q 66.890625 22.125 50 37.9375 
Q 34.46875 23.6875 5.078125 12.546875 
Q 3.21875 15.671875 0.78125 19.28125 
Q 31.453125 28.765625 47.46875 44.28125 
z
M 16.796875 44.671875 
L 38.375 44.671875 
L 38.375 39.015625 
L 16.796875 39.015625 
z
M 60.84375 44.671875 
L 82.234375 44.671875 
L 82.234375 39.015625 
L 60.84375 39.015625 
z
M 17.96875 55.125 
L 38.375 55.125 
L 38.375 49.46875 
L 17.96875 49.46875 
z
M 60.84375 55.125 
L 81.0625 55.125 
L 81.0625 49.46875 
L 60.84375 49.46875 
z
" id="MicrosoftYaHei-38646"/>
     <path d="M 48.4375 80.421875 
L 54.6875 84.125 
Q 58.984375 78.5625 62.40625 73.484375 
L 58.6875 71.234375 
L 94.4375 71.234375 
L 94.4375 65.1875 
L 59.765625 65.1875 
L 59.765625 58.15625 
L 91.40625 58.15625 
L 91.40625 52.09375 
L 59.765625 52.09375 
L 59.765625 45.0625 
L 91.40625 45.0625 
L 91.40625 39.015625 
L 59.765625 39.015625 
L 59.765625 31.78125 
L 96.390625 31.78125 
L 96.390625 25.734375 
L 20.609375 25.734375 
L 20.609375 21.921875 
L 13.375 21.921875 
L 13.375 55.03125 
Q 9.375 50.34375 5.171875 46.140625 
Q 3.21875 49.171875 0.59375 52.296875 
Q 15.140625 65.875 23.4375 83.453125 
L 30.46875 80.90625 
Q 27.734375 75.828125 24.90625 71.234375 
L 54.59375 71.234375 
Q 51.859375 75.734375 48.4375 80.421875 
z
M 13.578125 18.109375 
L 87.40625 18.109375 
L 87.40625 -13.328125 
L 80.171875 -13.328125 
L 80.171875 -8.34375 
L 20.796875 -8.34375 
L 20.796875 -13.328125 
L 13.578125 -13.328125 
z
M 80.171875 11.859375 
L 20.796875 11.859375 
L 20.796875 -2.09375 
L 80.171875 -2.09375 
z
M 20.609375 31.78125 
L 52.546875 31.78125 
L 52.546875 39.015625 
L 20.609375 39.015625 
z
M 20.609375 45.0625 
L 52.546875 45.0625 
L 52.546875 52.09375 
L 20.609375 52.09375 
z
M 20.609375 58.15625 
L 52.546875 58.15625 
L 52.546875 65.1875 
L 21 65.1875 
L 20.609375 64.59375 
z
" id="MicrosoftYaHei-21806"/>
    </defs>
    <g style="fill:#262626;" transform="translate(109.964036 230.186649)scale(0.11 -0.11)">
     <use xlink:href="#MicrosoftYaHei-38646"/>
     <use x="100" xlink:href="#MicrosoftYaHei-21806"/>
     <use x="200" xlink:href="#MicrosoftYaHei-19994"/>
    </g>
   </g>
   <g id="text_10">
    <!-- 16.4% -->
    <g style="fill:#262626;" transform="translate(126.691916 186.987107)scale(0.12 -0.12)">
     <use xlink:href="#MicrosoftYaHei-49"/>
     <use x="58.642578" xlink:href="#MicrosoftYaHei-54"/>
     <use x="117.285156" xlink:href="#MicrosoftYaHei-46"/>
     <use x="141.357422" xlink:href="#MicrosoftYaHei-52"/>
     <use x="200" xlink:href="#MicrosoftYaHei-37"/>
    </g>
   </g>
   <g id="text_11">
    <!-- 社区服务 -->
    <defs>
     <path d="M 34.46875 -1.8125 
L 61.921875 -1.8125 
L 61.921875 46.046875 
L 38.671875 46.046875 
L 38.671875 53.65625 
L 61.921875 53.65625 
L 61.921875 82.28125 
L 69.734375 82.28125 
L 69.734375 53.65625 
L 94.53125 53.65625 
L 94.53125 46.046875 
L 69.734375 46.046875 
L 69.734375 -1.8125 
L 97.46875 -1.8125 
L 97.46875 -9.421875 
L 34.46875 -9.421875 
z
M 2.734375 56 
L 2.734375 63.03125 
L 34.46875 63.03125 
L 34.46875 55.8125 
Q 29.734375 46.34375 23.25 37.890625 
L 23.25 -12.453125 
L 15.625 -12.453125 
L 15.625 29.046875 
Q 10.25 23.390625 4 18.3125 
Q 3.125 21.828125 1.265625 26.421875 
Q 16.3125 38.53125 26.171875 56 
z
M 12.40625 79.4375 
L 19.234375 82.859375 
Q 22.859375 77.09375 26.859375 69.484375 
L 19.625 65.765625 
Q 15.828125 73.6875 12.40625 79.4375 
z
M 24.421875 32.46875 
L 29.5 36.671875 
Q 35.453125 30.03125 40.328125 24.078125 
L 34.28125 19.28125 
Q 29.59375 26.03125 24.421875 32.46875 
z
" id="MicrosoftYaHei-31038"/>
     <path d="M 9.375 76.125 
L 93.359375 76.125 
L 93.359375 68.5 
L 17.671875 68.5 
L 17.671875 0.34375 
L 94.921875 0.34375 
L 94.921875 -7.078125 
L 9.375 -7.078125 
z
M 25.203125 57.765625 
L 30.671875 62.9375 
Q 42.875 52.875 56.203125 40.875 
Q 66.40625 51.90625 75.78125 64.890625 
L 82.90625 60.109375 
Q 72.65625 46.828125 62.109375 35.5 
Q 74.265625 24.421875 87.3125 11.765625 
L 80.5625 4.9375 
Q 68.75 17.28125 56.25 29.34375 
Q 42.140625 15.046875 27.546875 4.15625 
Q 25.203125 7.171875 21.296875 10.5 
Q 36.625 20.953125 50.4375 34.859375 
Q 38.1875 46.4375 25.203125 57.765625 
z
" id="MicrosoftYaHei-21306"/>
    </defs>
    <g style="fill:#262626;" transform="translate(225.922471 186.067965)scale(0.11 -0.11)">
     <use xlink:href="#MicrosoftYaHei-31038"/>
     <use x="100" xlink:href="#MicrosoftYaHei-21306"/>
     <use x="200" xlink:href="#MicrosoftYaHei-26381"/>
     <use x="300" xlink:href="#MicrosoftYaHei-21153"/>
    </g>
   </g>
   <g id="text_12">
    <!-- 16.3% -->
    <defs>
     <path d="M 6.984375 12.640625 
Q 14.75 6.640625 24.515625 6.640625 
Q 32.328125 6.640625 36.890625 10.46875 
Q 41.453125 14.3125 41.453125 20.75 
Q 41.453125 35.109375 20.90625 35.109375 
L 14.59375 35.109375 
L 14.59375 43.015625 
L 20.609375 43.015625 
Q 38.8125 43.015625 38.8125 56.5 
Q 38.8125 68.953125 24.90625 68.953125 
Q 16.9375 68.953125 9.90625 63.578125 
L 9.90625 72.609375 
Q 17.328125 76.90625 27.25 76.90625 
Q 36.921875 76.90625 42.78125 71.84375 
Q 48.640625 66.796875 48.640625 58.734375 
Q 48.640625 43.890625 33.5 39.65625 
L 33.5 39.453125 
Q 41.703125 38.578125 46.453125 33.671875 
Q 51.21875 28.765625 51.21875 21.4375 
Q 51.21875 11.234375 43.875 4.984375 
Q 36.53125 -1.265625 24.3125 -1.265625 
Q 13.578125 -1.265625 6.984375 2.734375 
z
" id="MicrosoftYaHei-51"/>
    </defs>
    <g style="fill:#262626;" transform="translate(171.941972 162.92237)scale(0.12 -0.12)">
     <use xlink:href="#MicrosoftYaHei-49"/>
     <use x="58.642578" xlink:href="#MicrosoftYaHei-54"/>
     <use x="117.285156" xlink:href="#MicrosoftYaHei-46"/>
     <use x="141.357422" xlink:href="#MicrosoftYaHei-51"/>
     <use x="200" xlink:href="#MicrosoftYaHei-37"/>
    </g>
   </g>
   <g id="text_13">
    <!-- nan -->
    <defs>
     <path d="M 54.203125 0 
L 44.671875 0 
L 44.671875 30.71875 
Q 44.671875 47.359375 32.515625 47.359375 
Q 26.21875 47.359375 22.15625 42.671875 
Q 18.109375 37.984375 18.109375 30.8125 
L 18.109375 0 
L 8.546875 0 
L 8.546875 54 
L 18.109375 54 
L 18.109375 45.0625 
L 18.3125 45.0625 
Q 24.421875 55.28125 36.03125 55.28125 
Q 44.921875 55.28125 49.5625 49.578125 
Q 54.203125 43.890625 54.203125 33.015625 
z
" id="MicrosoftYaHei-110"/>
     <path d="M 9.8125 50.25 
Q 17.875 55.28125 28.421875 55.28125 
Q 47.953125 55.28125 47.953125 34.765625 
L 47.953125 0 
L 38.484375 0 
L 38.484375 8.34375 
L 38.234375 8.34375 
Q 32.625 -1.265625 21.6875 -1.265625 
Q 13.8125 -1.265625 9.171875 2.984375 
Q 4.546875 7.234375 4.546875 14.453125 
Q 4.546875 29.59375 22.46875 32.078125 
L 38.484375 34.328125 
Q 38.484375 47.5625 27.546875 47.5625 
Q 17.828125 47.5625 9.8125 41.015625 
z
M 25.828125 25.390625 
Q 19.1875 24.515625 16.671875 22.0625 
Q 14.15625 19.625 14.15625 15.234375 
Q 14.15625 11.375 16.890625 8.9375 
Q 19.625 6.5 24.125 6.5 
Q 30.375 6.5 34.421875 10.890625 
Q 38.484375 15.28125 38.484375 21.921875 
L 38.484375 27.09375 
z
" id="MicrosoftYaHei-97"/>
    </defs>
    <g style="fill:#262626;" transform="translate(240.944871 137.23724)scale(0.11 -0.11)">
     <use xlink:href="#MicrosoftYaHei-110"/>
     <use x="61.621094" xlink:href="#MicrosoftYaHei-97"/>
     <use x="116.894531" xlink:href="#MicrosoftYaHei-110"/>
    </g>
   </g>
   <g id="text_14">
    <!-- 0.9% -->
    <defs>
     <path d="M 4.4375 36.328125 
Q 4.4375 56.34375 11.078125 66.625 
Q 17.71875 76.90625 30.328125 76.90625 
Q 54.34375 76.90625 54.34375 38.140625 
Q 54.34375 19 47.578125 8.859375 
Q 40.828125 -1.265625 28.609375 -1.265625 
Q 17.09375 -1.265625 10.765625 8.34375 
Q 4.4375 17.96875 4.4375 36.328125 
z
M 14.203125 36.765625 
Q 14.203125 6.640625 29.5 6.640625 
Q 44.53125 6.640625 44.53125 37.25 
Q 44.53125 68.953125 29.78125 68.953125 
Q 14.203125 68.953125 14.203125 36.765625 
z
" id="MicrosoftYaHei-48"/>
    </defs>
    <g style="fill:#262626;" transform="translate(183.654446 136.287429)scale(0.12 -0.12)">
     <use xlink:href="#MicrosoftYaHei-48"/>
     <use x="58.642578" xlink:href="#MicrosoftYaHei-46"/>
     <use x="82.714844" xlink:href="#MicrosoftYaHei-57"/>
     <use x="141.357422" xlink:href="#MicrosoftYaHei-37"/>
    </g>
   </g>
   <g id="text_15">
    <!-- 注册信息-行业 -->
    <defs>
     <path d="M 25.390625 0.25 
L 58.203125 0.25 
L 58.203125 27.984375 
L 32.8125 27.984375 
L 32.8125 35.40625 
L 58.203125 35.40625 
L 58.203125 59.03125 
L 30.078125 59.03125 
L 30.078125 66.453125 
L 61.234375 66.453125 
Q 56.640625 73.734375 51.859375 79.734375 
L 58.296875 83.84375 
Q 64.84375 76.21875 68.65625 70.359375 
L 62.546875 66.453125 
L 95.3125 66.453125 
L 95.3125 59.03125 
L 66.40625 59.03125 
L 66.40625 35.40625 
L 91.796875 35.40625 
L 91.796875 27.984375 
L 66.40625 27.984375 
L 66.40625 0.25 
L 98.046875 0.25 
L 98.046875 -7.171875 
L 25.390625 -7.171875 
z
M 14.9375 28.375 
Q 18.953125 26.609375 22.65625 25.140625 
Q 17.28125 7.953125 11.421875 -12.359375 
L 3.03125 -9.421875 
Q 9.1875 7.28125 14.9375 28.375 
z
M 9.859375 81.78125 
Q 19.34375 74.65625 26.765625 67.53125 
Q 23.4375 64.203125 20.90625 61.578125 
Q 15.625 67.140625 4.890625 76.421875 
z
M 6.15625 56.5 
Q 13.1875 51.609375 23.4375 43.21875 
Q 19.828125 39.109375 17.671875 36.859375 
Q 7.421875 46.234375 1.265625 50.921875 
z
" id="MicrosoftYaHei-27880"/>
     <path d="M 55.5625 78.078125 
L 87.796875 78.078125 
L 87.796875 43.109375 
L 98.25 43.109375 
L 98.25 35.890625 
L 87.796875 35.890625 
L 87.796875 -1.515625 
Q 87.796875 -11.671875 78.421875 -11.671875 
Q 71.6875 -11.671875 65.921875 -11.375 
Q 65.625 -8.546875 64.65625 -4.15625 
Q 71.78125 -4.828125 76.078125 -4.828125 
Q 80.375 -4.828125 80.375 -0.34375 
L 80.375 35.890625 
L 62.984375 35.890625 
L 62.984375 30.125 
Q 62.984375 4.046875 51.953125 -13.328125 
Q 49.609375 -10.796875 46 -7.859375 
Q 55.5625 7.171875 55.5625 29.734375 
L 55.5625 35.890625 
L 43.171875 35.890625 
L 43.171875 1.421875 
Q 43.171875 -8.34375 33.5 -8.34375 
Q 28.21875 -8.34375 23.34375 -8.0625 
Q 23.046875 -5.21875 22.078125 -0.734375 
Q 27.4375 -1.421875 31.640625 -1.421875 
Q 35.75 -1.421875 35.75 2.984375 
L 35.75 35.890625 
L 19.046875 35.890625 
L 19.046875 28.859375 
Q 19.046875 2.6875 7.90625 -13.328125 
Q 5.5625 -10.5 2.046875 -7.859375 
Q 11.53125 6.6875 11.53125 28.171875 
L 11.53125 35.890625 
L 1.953125 35.890625 
L 1.953125 43.109375 
L 11.53125 43.109375 
L 11.53125 78.078125 
L 43.171875 78.078125 
L 43.171875 43.109375 
L 55.5625 43.109375 
z
M 80.375 71.234375 
L 62.984375 71.234375 
L 62.984375 43.109375 
L 80.375 43.109375 
z
M 35.75 71.234375 
L 19.046875 71.234375 
L 19.046875 43.109375 
L 35.75 43.109375 
z
" id="MicrosoftYaHei-20876"/>
     <path d="M 35.9375 22.40625 
L 91.5 22.40625 
L 91.5 -13.328125 
L 83.984375 -13.328125 
L 83.984375 -7.46875 
L 43.453125 -7.46875 
L 43.453125 -13.328125 
L 35.9375 -13.328125 
z
M 1.265625 35.984375 
Q 15.625 57.28125 22.859375 83.0625 
L 30.46875 80.90625 
Q 26.21875 67.78125 21.1875 56.6875 
L 21.1875 -13.328125 
L 13.96875 -13.328125 
L 13.96875 42.390625 
Q 9.46875 34.515625 4.5 27.984375 
Q 2.9375 32.078125 1.265625 35.984375 
z
M 83.984375 15.765625 
L 43.453125 15.765625 
L 43.453125 -0.828125 
L 83.984375 -0.828125 
z
M 29.5 69.875 
L 61.375 69.875 
Q 58.453125 74.90625 55.28125 79.828125 
L 61.8125 83.25 
Q 65.328125 77.984375 68.75 72.125 
L 64.5 69.875 
L 98.25 69.875 
L 98.25 63.03125 
L 29.5 63.03125 
z
M 34.859375 53.953125 
L 92.484375 53.953125 
L 92.484375 47.3125 
L 34.859375 47.3125 
z
M 34.859375 38.234375 
L 92.484375 38.234375 
L 92.484375 31.59375 
L 34.859375 31.59375 
z
" id="MicrosoftYaHei-20449"/>
     <path d="M 14.265625 73.578125 
L 38.140625 73.578125 
Q 40.234375 78.8125 41.609375 83.640625 
L 49.21875 81.59375 
Q 47.609375 77.4375 45.84375 73.578125 
L 84.765625 73.578125 
L 84.765625 20.265625 
L 77.25 20.265625 
L 77.25 23.296875 
L 21.78125 23.296875 
L 21.78125 20.265625 
L 14.265625 20.265625 
z
M 24.515625 16.546875 
L 31.9375 16.546875 
L 31.9375 2.203125 
Q 31.9375 -3.859375 38.375 -3.859375 
L 60.0625 -3.859375 
Q 67.875 -3.859375 69.140625 1.515625 
Q 70.125 5.03125 71.09375 12.15625 
Q 74.703125 10.6875 78.71875 9.328125 
Q 77.546875 2.59375 76.375 -1.515625 
Q 74.125 -10.796875 61.8125 -10.796875 
L 37.203125 -10.796875 
Q 24.515625 -10.796875 24.515625 1.3125 
z
M 21.78125 44.390625 
L 77.25 44.390625 
L 77.25 52.59375 
L 21.78125 52.59375 
z
M 21.78125 29.9375 
L 77.25 29.9375 
L 77.25 38.140625 
L 21.78125 38.140625 
z
M 77.25 66.9375 
L 21.78125 66.9375 
L 21.78125 58.84375 
L 77.25 58.84375 
z
M 9.96875 17.53125 
L 17.09375 15.09375 
Q 12.796875 3.375 8.109375 -6.296875 
Q 4.984375 -4.9375 0.875 -3.46875 
Q 5.671875 5.03125 9.96875 17.53125 
z
M 79.984375 14.40625 
L 85.640625 18.796875 
Q 92.578125 11.28125 99.8125 2.296875 
L 93.5625 -2.484375 
Q 86.921875 6.5 79.984375 14.40625 
z
M 41.609375 17.625 
L 46.875 22.125 
Q 52.828125 16.65625 59.96875 9.03125 
L 54 3.953125 
Q 46.78125 12.453125 41.609375 17.625 
z
" id="MicrosoftYaHei-24687"/>
     <path d="M 36.375 26.265625 
L 7.625 26.265625 
L 7.625 33.640625 
L 36.375 33.640625 
z
" id="MicrosoftYaHei-45"/>
     <path d="M 36.921875 46.53125 
L 98.734375 46.53125 
L 98.734375 39.203125 
L 79.78125 39.203125 
L 79.78125 1.03125 
Q 79.78125 -11.078125 67.578125 -11.078125 
Q 59.375 -11.078125 50.875 -10.984375 
Q 50.296875 -7.078125 49.421875 -2.203125 
Q 57.03125 -2.984375 64.75 -2.984375 
Q 71.484375 -2.984375 71.484375 3.65625 
L 71.484375 39.203125 
L 36.921875 39.203125 
z
M 1.5625 24.65625 
Q 16.703125 37.0625 29.109375 59.515625 
L 35.9375 55.328125 
Q 30.90625 46.625 25.296875 39.0625 
L 25.296875 -12.640625 
L 17.1875 -12.640625 
L 17.1875 29 
Q 11.328125 22.359375 4.984375 16.75 
Q 3.421875 20.84375 1.5625 24.65625 
z
M 42.578125 76.03125 
L 93.265625 76.03125 
L 93.265625 68.703125 
L 42.578125 68.703125 
z
M 2.046875 55.609375 
Q 17.578125 67.625 27.046875 83.546875 
L 34.078125 79.25 
Q 22.75 61.859375 5.953125 48.09375 
Q 4.203125 51.8125 2.046875 55.609375 
z
" id="MicrosoftYaHei-34892"/>
    </defs>
    <g style="fill:#262626;" transform="translate(106.71331 16.7925)scale(0.12 -0.12)">
     <use xlink:href="#MicrosoftYaHei-27880"/>
     <use x="100" xlink:href="#MicrosoftYaHei-20876"/>
     <use x="200" xlink:href="#MicrosoftYaHei-20449"/>
     <use x="300" xlink:href="#MicrosoftYaHei-24687"/>
     <use x="400" xlink:href="#MicrosoftYaHei-45"/>
     <use x="443.261719" xlink:href="#MicrosoftYaHei-34892"/>
     <use x="543.261719" xlink:href="#MicrosoftYaHei-19994"/>
    </g>
   </g>
  </g>
 </g>
</svg>
