<?xml version="1.0" encoding="UTF-8" standalone="no"?>
<!DOCTYPE svg PUBLIC "-//W3C//DTD SVG 1.1//EN"
 "http://www.w3.org/Graphics/SVG/1.1/DTD/svg11.dtd">
<!-- Generated by graphviz version 2.40.1 (20161225.0304)
 -->
<!-- Title: Tree Pages: 1 -->
<svg width="1173pt" height="373pt"
 viewBox="0.00 0.00 1173.00 373.00" xmlns="http://www.w3.org/2000/svg" xmlns:xlink="http://www.w3.org/1999/xlink">
<g id="graph0" class="graph" transform="scale(1 1) rotate(0) translate(4 369)">
<title>Tree</title>
<polygon fill="#ffffff" stroke="transparent" points="-4,4 -4,-369 1169,-369 1169,4 -4,4"/>
<!-- 0 -->
<g id="node1" class="node">
<title>0</title>
<path fill="#f2c09c" stroke="#000000" d="M814.5,-365C814.5,-365 573.5,-365 573.5,-365 567.5,-365 561.5,-359 561.5,-353 561.5,-353 561.5,-309 561.5,-309 561.5,-303 567.5,-297 573.5,-297 573.5,-297 814.5,-297 814.5,-297 820.5,-297 826.5,-303 826.5,-309 826.5,-309 826.5,-353 826.5,-353 826.5,-359 820.5,-365 814.5,-365"/>
<text text-anchor="start" x="569.5" y="-349.8" font-family="Helvetica,sans-Serif" font-size="14.00" fill="#000000">纳税总额/营业总收入_mean ≤ &#45;0.524</text>
<text text-anchor="start" x="615.5" y="-334.8" font-family="Helvetica,sans-Serif" font-size="14.00" fill="#000000">friedman_mse = 0.25</text>
<text text-anchor="start" x="630.5" y="-319.8" font-family="Helvetica,sans-Serif" font-size="14.00" fill="#000000">samples = 30379</text>
<text text-anchor="start" x="641" y="-304.8" font-family="Helvetica,sans-Serif" font-size="14.00" fill="#000000">value = &#45;0.003</text>
</g>
<!-- 1 -->
<g id="node2" class="node">
<title>1</title>
<path fill="#efb184" stroke="#000000" d="M646.5,-261C646.5,-261 481.5,-261 481.5,-261 475.5,-261 469.5,-255 469.5,-249 469.5,-249 469.5,-205 469.5,-205 469.5,-199 475.5,-193 481.5,-193 481.5,-193 646.5,-193 646.5,-193 652.5,-193 658.5,-199 658.5,-205 658.5,-205 658.5,-249 658.5,-249 658.5,-255 652.5,-261 646.5,-261"/>
<text text-anchor="start" x="477.5" y="-245.8" font-family="Helvetica,sans-Serif" font-size="14.00" fill="#000000">纳税总额_mean ≤ &#45;0.398</text>
<text text-anchor="start" x="481" y="-230.8" font-family="Helvetica,sans-Serif" font-size="14.00" fill="#000000">friedman_mse = 0.011</text>
<text text-anchor="start" x="500.5" y="-215.8" font-family="Helvetica,sans-Serif" font-size="14.00" fill="#000000">samples = 15275</text>
<text text-anchor="start" x="513.5" y="-200.8" font-family="Helvetica,sans-Serif" font-size="14.00" fill="#000000">value = 0.489</text>
</g>
<!-- 0&#45;&gt;1 -->
<g id="edge1" class="edge">
<title>0&#45;&gt;1</title>
<path fill="none" stroke="#000000" d="M651.4331,-296.9465C639.6488,-287.519 626.7432,-277.1946 614.5519,-267.4415"/>
<polygon fill="#000000" stroke="#000000" points="616.6577,-264.6439 606.6625,-261.13 612.2848,-270.11 616.6577,-264.6439"/>
<text text-anchor="middle" x="609.4233" y="-282.2771" font-family="Helvetica,sans-Serif" font-size="14.00" fill="#000000">True</text>
</g>
<!-- 8 -->
<g id="node9" class="node">
<title>8</title>
<path fill="#f5d0b5" stroke="#000000" d="M948.5,-261C948.5,-261 797.5,-261 797.5,-261 791.5,-261 785.5,-255 785.5,-249 785.5,-249 785.5,-205 785.5,-205 785.5,-199 791.5,-193 797.5,-193 797.5,-193 948.5,-193 948.5,-193 954.5,-193 960.5,-199 960.5,-205 960.5,-205 960.5,-249 960.5,-249 960.5,-255 954.5,-261 948.5,-261"/>
<text text-anchor="start" x="793.5" y="-245.8" font-family="Helvetica,sans-Serif" font-size="14.00" fill="#000000">净利润_mean ≤ &#45;0.275</text>
<text text-anchor="start" x="799" y="-230.8" font-family="Helvetica,sans-Serif" font-size="14.00" fill="#000000">friedman_mse = 0.0</text>
<text text-anchor="start" x="809.5" y="-215.8" font-family="Helvetica,sans-Serif" font-size="14.00" fill="#000000">samples = 15104</text>
<text text-anchor="start" x="829" y="-200.8" font-family="Helvetica,sans-Serif" font-size="14.00" fill="#000000">value = &#45;0.5</text>
</g>
<!-- 0&#45;&gt;8 -->
<g id="edge8" class="edge">
<title>0&#45;&gt;8</title>
<path fill="none" stroke="#000000" d="M752.6113,-296.9465C769.4555,-287.1599 787.9636,-276.4066 805.308,-266.3294"/>
<polygon fill="#000000" stroke="#000000" points="807.3688,-269.18 814.257,-261.13 803.8522,-263.1274 807.3688,-269.18"/>
<text text-anchor="middle" x="807.8527" y="-281.5958" font-family="Helvetica,sans-Serif" font-size="14.00" fill="#000000">False</text>
</g>
<!-- 2 -->
<g id="node3" class="node">
<title>2</title>
<path fill="#efb083" stroke="#000000" d="M351,-157C351,-157 195,-157 195,-157 189,-157 183,-151 183,-145 183,-145 183,-101 183,-101 183,-95 189,-89 195,-89 195,-89 351,-89 351,-89 357,-89 363,-95 363,-101 363,-101 363,-145 363,-145 363,-151 357,-157 351,-157"/>
<text text-anchor="start" x="191" y="-141.8" font-family="Helvetica,sans-Serif" font-size="14.00" fill="#000000">纳税总额_mean ≤ &#45;0.52</text>
<text text-anchor="start" x="199" y="-126.8" font-family="Helvetica,sans-Serif" font-size="14.00" fill="#000000">friedman_mse = 0.0</text>
<text text-anchor="start" x="209.5" y="-111.8" font-family="Helvetica,sans-Serif" font-size="14.00" fill="#000000">samples = 15001</text>
<text text-anchor="start" x="231.5" y="-96.8" font-family="Helvetica,sans-Serif" font-size="14.00" fill="#000000">value = 0.5</text>
</g>
<!-- 1&#45;&gt;2 -->
<g id="edge2" class="edge">
<title>1&#45;&gt;2</title>
<path fill="none" stroke="#000000" d="M469.1184,-193.0904C438.305,-182.0781 404.0316,-169.8292 372.8661,-158.691"/>
<polygon fill="#000000" stroke="#000000" points="373.8957,-155.3422 363.3011,-155.2726 371.5399,-161.9339 373.8957,-155.3422"/>
</g>
<!-- 5 -->
<g id="node6" class="node">
<title>5</title>
<path fill="#f3c3a1" stroke="#000000" d="M684.5,-157C684.5,-157 443.5,-157 443.5,-157 437.5,-157 431.5,-151 431.5,-145 431.5,-145 431.5,-101 431.5,-101 431.5,-95 437.5,-89 443.5,-89 443.5,-89 684.5,-89 684.5,-89 690.5,-89 696.5,-95 696.5,-101 696.5,-101 696.5,-145 696.5,-145 696.5,-151 690.5,-157 684.5,-157"/>
<text text-anchor="start" x="439.5" y="-141.8" font-family="Helvetica,sans-Serif" font-size="14.00" fill="#000000">纳税总额/营业总收入_mean ≤ &#45;0.525</text>
<text text-anchor="start" x="485.5" y="-126.8" font-family="Helvetica,sans-Serif" font-size="14.00" fill="#000000">friedman_mse = 0.24</text>
<text text-anchor="start" x="509.5" y="-111.8" font-family="Helvetica,sans-Serif" font-size="14.00" fill="#000000">samples = 274</text>
<text text-anchor="start" x="511" y="-96.8" font-family="Helvetica,sans-Serif" font-size="14.00" fill="#000000">value = &#45;0.102</text>
</g>
<!-- 1&#45;&gt;5 -->
<g id="edge5" class="edge">
<title>1&#45;&gt;5</title>
<path fill="none" stroke="#000000" d="M564,-192.9465C564,-184.776 564,-175.9318 564,-167.3697"/>
<polygon fill="#000000" stroke="#000000" points="567.5001,-167.13 564,-157.13 560.5001,-167.13 567.5001,-167.13"/>
</g>
<!-- 3 -->
<g id="node4" class="node">
<title>3</title>
<path fill="#e58139" stroke="#000000" d="M152,-53C152,-53 12,-53 12,-53 6,-53 0,-47 0,-41 0,-41 0,-12 0,-12 0,-6 6,0 12,0 12,0 152,0 152,0 158,0 164,-6 164,-12 164,-12 164,-41 164,-41 164,-47 158,-53 152,-53"/>
<text text-anchor="start" x="8" y="-37.8" font-family="Helvetica,sans-Serif" font-size="14.00" fill="#000000">friedman_mse = 0.0</text>
<text text-anchor="start" x="18.5" y="-22.8" font-family="Helvetica,sans-Serif" font-size="14.00" fill="#000000">samples = 14876</text>
<text text-anchor="start" x="40.5" y="-7.8" font-family="Helvetica,sans-Serif" font-size="14.00" fill="#000000">value = 2.0</text>
</g>
<!-- 2&#45;&gt;3 -->
<g id="edge3" class="edge">
<title>2&#45;&gt;3</title>
<path fill="none" stroke="#000000" d="M205.6605,-88.9777C185.4496,-78.7664 163.3906,-67.6214 143.5722,-57.6085"/>
<polygon fill="#000000" stroke="#000000" points="145.1427,-54.4806 134.6389,-53.095 141.986,-60.7285 145.1427,-54.4806"/>
</g>
<!-- 4 -->
<g id="node5" class="node">
<title>4</title>
<path fill="#e68743" stroke="#000000" d="M352,-53C352,-53 194,-53 194,-53 188,-53 182,-47 182,-41 182,-41 182,-12 182,-12 182,-6 188,0 194,0 194,0 352,0 352,0 358,0 364,-6 364,-12 364,-12 364,-41 364,-41 364,-47 358,-53 352,-53"/>
<text text-anchor="start" x="190" y="-37.8" font-family="Helvetica,sans-Serif" font-size="14.00" fill="#000000">friedman_mse = 0.046</text>
<text text-anchor="start" x="218.5" y="-22.8" font-family="Helvetica,sans-Serif" font-size="14.00" fill="#000000">samples = 125</text>
<text text-anchor="start" x="222.5" y="-7.8" font-family="Helvetica,sans-Serif" font-size="14.00" fill="#000000">value = 1.808</text>
</g>
<!-- 2&#45;&gt;4 -->
<g id="edge4" class="edge">
<title>2&#45;&gt;4</title>
<path fill="none" stroke="#000000" d="M273,-88.9777C273,-80.7364 273,-71.887 273,-63.5153"/>
<polygon fill="#000000" stroke="#000000" points="276.5001,-63.2484 273,-53.2485 269.5001,-63.2485 276.5001,-63.2484"/>
</g>
<!-- 6 -->
<g id="node7" class="node">
<title>6</title>
<path fill="#fffdfc" stroke="#000000" d="M552,-53C552,-53 394,-53 394,-53 388,-53 382,-47 382,-41 382,-41 382,-12 382,-12 382,-6 388,0 394,0 394,0 552,0 552,0 558,0 564,-6 564,-12 564,-12 564,-41 564,-41 564,-47 558,-53 552,-53"/>
<text text-anchor="start" x="390" y="-37.8" font-family="Helvetica,sans-Serif" font-size="14.00" fill="#000000">friedman_mse = 0.013</text>
<text text-anchor="start" x="418.5" y="-22.8" font-family="Helvetica,sans-Serif" font-size="14.00" fill="#000000">samples = 149</text>
<text text-anchor="start" x="420" y="-7.8" font-family="Helvetica,sans-Serif" font-size="14.00" fill="#000000">value = &#45;1.946</text>
</g>
<!-- 5&#45;&gt;6 -->
<g id="edge6" class="edge">
<title>5&#45;&gt;6</title>
<path fill="none" stroke="#000000" d="M531.9168,-88.9777C523.2817,-79.8207 513.9386,-69.9129 505.2922,-60.744"/>
<polygon fill="#000000" stroke="#000000" points="507.6311,-58.1226 498.224,-53.2485 502.5383,-62.9251 507.6311,-58.1226"/>
</g>
<!-- 7 -->
<g id="node8" class="node">
<title>7</title>
<path fill="#e99356" stroke="#000000" d="M752,-53C752,-53 594,-53 594,-53 588,-53 582,-47 582,-41 582,-41 582,-12 582,-12 582,-6 588,0 594,0 594,0 752,0 752,0 758,0 764,-6 764,-12 764,-12 764,-41 764,-41 764,-47 758,-53 752,-53"/>
<text text-anchor="start" x="590" y="-37.8" font-family="Helvetica,sans-Serif" font-size="14.00" fill="#000000">friedman_mse = 0.123</text>
<text text-anchor="start" x="618.5" y="-22.8" font-family="Helvetica,sans-Serif" font-size="14.00" fill="#000000">samples = 125</text>
<text text-anchor="start" x="622.5" y="-7.8" font-family="Helvetica,sans-Serif" font-size="14.00" fill="#000000">value = 1.424</text>
</g>
<!-- 5&#45;&gt;7 -->
<g id="edge7" class="edge">
<title>5&#45;&gt;7</title>
<path fill="none" stroke="#000000" d="M602.4293,-88.9777C613.0827,-79.546 624.6359,-69.3178 635.2501,-59.9208"/>
<polygon fill="#000000" stroke="#000000" points="637.6194,-62.4978 642.7867,-53.2485 632.9793,-57.2566 637.6194,-62.4978"/>
</g>
<!-- 9 -->
<g id="node10" class="node">
<title>9</title>
<path fill="#f5d0b5" stroke="#000000" d="M970.5,-157C970.5,-157 775.5,-157 775.5,-157 769.5,-157 763.5,-151 763.5,-145 763.5,-145 763.5,-101 763.5,-101 763.5,-95 769.5,-89 775.5,-89 775.5,-89 970.5,-89 970.5,-89 976.5,-89 982.5,-95 982.5,-101 982.5,-101 982.5,-145 982.5,-145 982.5,-151 976.5,-157 970.5,-157"/>
<text text-anchor="start" x="771.5" y="-141.8" font-family="Helvetica,sans-Serif" font-size="14.00" fill="#000000">资产总额_diff_mean ≤ &#45;0.711</text>
<text text-anchor="start" x="790" y="-126.8" font-family="Helvetica,sans-Serif" font-size="14.00" fill="#000000">friedman_mse = 0.003</text>
<text text-anchor="start" x="818.5" y="-111.8" font-family="Helvetica,sans-Serif" font-size="14.00" fill="#000000">samples = 649</text>
<text text-anchor="start" x="820" y="-96.8" font-family="Helvetica,sans-Serif" font-size="14.00" fill="#000000">value = &#45;0.497</text>
</g>
<!-- 8&#45;&gt;9 -->
<g id="edge9" class="edge">
<title>8&#45;&gt;9</title>
<path fill="none" stroke="#000000" d="M873,-192.9465C873,-184.776 873,-175.9318 873,-167.3697"/>
<polygon fill="#000000" stroke="#000000" points="876.5001,-167.13 873,-157.13 869.5001,-167.13 876.5001,-167.13"/>
</g>
<!-- 12 -->
<g id="node13" class="node">
<title>12</title>
<path fill="#ffffff" stroke="#000000" d="M1153,-149.5C1153,-149.5 1013,-149.5 1013,-149.5 1007,-149.5 1001,-143.5 1001,-137.5 1001,-137.5 1001,-108.5 1001,-108.5 1001,-102.5 1007,-96.5 1013,-96.5 1013,-96.5 1153,-96.5 1153,-96.5 1159,-96.5 1165,-102.5 1165,-108.5 1165,-108.5 1165,-137.5 1165,-137.5 1165,-143.5 1159,-149.5 1153,-149.5"/>
<text text-anchor="start" x="1009" y="-134.3" font-family="Helvetica,sans-Serif" font-size="14.00" fill="#000000">friedman_mse = 0.0</text>
<text text-anchor="start" x="1019.5" y="-119.3" font-family="Helvetica,sans-Serif" font-size="14.00" fill="#000000">samples = 14455</text>
<text text-anchor="start" x="1039" y="-104.3" font-family="Helvetica,sans-Serif" font-size="14.00" fill="#000000">value = &#45;2.0</text>
</g>
<!-- 8&#45;&gt;12 -->
<g id="edge12" class="edge">
<title>8&#45;&gt;12</title>
<path fill="none" stroke="#000000" d="M941.7619,-192.9465C967.0061,-180.4446 995.4357,-166.3652 1020.1357,-154.1328"/>
<polygon fill="#000000" stroke="#000000" points="1021.9973,-157.1166 1029.4052,-149.5422 1018.8907,-150.8437 1021.9973,-157.1166"/>
</g>
<!-- 10 -->
<g id="node11" class="node">
<title>10</title>
<path fill="#fffdfc" stroke="#000000" d="M952,-53C952,-53 794,-53 794,-53 788,-53 782,-47 782,-41 782,-41 782,-12 782,-12 782,-6 788,0 794,0 794,0 952,0 952,0 958,0 964,-6 964,-12 964,-12 964,-41 964,-41 964,-47 958,-53 952,-53"/>
<text text-anchor="start" x="790" y="-37.8" font-family="Helvetica,sans-Serif" font-size="14.00" fill="#000000">friedman_mse = 0.014</text>
<text text-anchor="start" x="818.5" y="-22.8" font-family="Helvetica,sans-Serif" font-size="14.00" fill="#000000">samples = 143</text>
<text text-anchor="start" x="820" y="-7.8" font-family="Helvetica,sans-Serif" font-size="14.00" fill="#000000">value = &#45;1.944</text>
</g>
<!-- 9&#45;&gt;10 -->
<g id="edge10" class="edge">
<title>9&#45;&gt;10</title>
<path fill="none" stroke="#000000" d="M873,-88.9777C873,-80.7364 873,-71.887 873,-63.5153"/>
<polygon fill="#000000" stroke="#000000" points="876.5001,-63.2484 873,-53.2485 869.5001,-63.2485 876.5001,-63.2484"/>
</g>
<!-- 11 -->
<g id="node12" class="node">
<title>11</title>
<path fill="#ffffff" stroke="#000000" d="M1134,-53C1134,-53 994,-53 994,-53 988,-53 982,-47 982,-41 982,-41 982,-12 982,-12 982,-6 988,0 994,0 994,0 1134,0 1134,0 1140,0 1146,-6 1146,-12 1146,-12 1146,-41 1146,-41 1146,-47 1140,-53 1134,-53"/>
<text text-anchor="start" x="990" y="-37.8" font-family="Helvetica,sans-Serif" font-size="14.00" fill="#000000">friedman_mse = 0.0</text>
<text text-anchor="start" x="1009.5" y="-22.8" font-family="Helvetica,sans-Serif" font-size="14.00" fill="#000000">samples = 506</text>
<text text-anchor="start" x="1020" y="-7.8" font-family="Helvetica,sans-Serif" font-size="14.00" fill="#000000">value = &#45;2.0</text>
</g>
<!-- 9&#45;&gt;11 -->
<g id="edge11" class="edge">
<title>9&#45;&gt;11</title>
<path fill="none" stroke="#000000" d="M940.3395,-88.9777C960.5504,-78.7664 982.6094,-67.6214 1002.4278,-57.6085"/>
<polygon fill="#000000" stroke="#000000" points="1004.014,-60.7285 1011.3611,-53.095 1000.8573,-54.4806 1004.014,-60.7285"/>
</g>
</g>
</svg>
