<?xml version="1.0" encoding="UTF-8" standalone="no"?>
<!DOCTYPE svg PUBLIC "-//W3C//DTD SVG 1.1//EN"
 "http://www.w3.org/Graphics/SVG/1.1/DTD/svg11.dtd">
<!-- Generated by graphviz version 2.40.1 (20161225.0304)
 -->
<!-- Title: Tree Pages: 1 -->
<svg width="1059pt" height="373pt"
 viewBox="0.00 0.00 1059.00 373.00" xmlns="http://www.w3.org/2000/svg" xmlns:xlink="http://www.w3.org/1999/xlink">
<g id="graph0" class="graph" transform="scale(1 1) rotate(0) translate(4 369)">
<title>Tree</title>
<polygon fill="#ffffff" stroke="transparent" points="-4,4 -4,-369 1055,-369 1055,4 -4,4"/>
<!-- 0 -->
<g id="node1" class="node">
<title>0</title>
<path fill="#f2bf9b" stroke="#000000" d="M776.5,-365C776.5,-365 535.5,-365 535.5,-365 529.5,-365 523.5,-359 523.5,-353 523.5,-353 523.5,-309 523.5,-309 523.5,-303 529.5,-297 535.5,-297 535.5,-297 776.5,-297 776.5,-297 782.5,-297 788.5,-303 788.5,-309 788.5,-309 788.5,-353 788.5,-353 788.5,-359 782.5,-365 776.5,-365"/>
<text text-anchor="start" x="531.5" y="-349.8" font-family="Helvetica,sans-Serif" font-size="14.00" fill="#000000">纳税总额/营业总收入_mean ≤ &#45;0.524</text>
<text text-anchor="start" x="573" y="-334.8" font-family="Helvetica,sans-Serif" font-size="14.00" fill="#000000">friedman_mse = 0.161</text>
<text text-anchor="start" x="592.5" y="-319.8" font-family="Helvetica,sans-Serif" font-size="14.00" fill="#000000">samples = 30379</text>
<text text-anchor="start" x="605.5" y="-304.8" font-family="Helvetica,sans-Serif" font-size="14.00" fill="#000000">value = 0.001</text>
</g>
<!-- 1 -->
<g id="node2" class="node">
<title>1</title>
<path fill="#efb184" stroke="#000000" d="M616.5,-261C616.5,-261 451.5,-261 451.5,-261 445.5,-261 439.5,-255 439.5,-249 439.5,-249 439.5,-205 439.5,-205 439.5,-199 445.5,-193 451.5,-193 451.5,-193 616.5,-193 616.5,-193 622.5,-193 628.5,-199 628.5,-205 628.5,-205 628.5,-249 628.5,-249 628.5,-255 622.5,-261 616.5,-261"/>
<text text-anchor="start" x="447.5" y="-245.8" font-family="Helvetica,sans-Serif" font-size="14.00" fill="#000000">纳税总额_mean ≤ &#45;0.398</text>
<text text-anchor="start" x="451" y="-230.8" font-family="Helvetica,sans-Serif" font-size="14.00" fill="#000000">friedman_mse = 0.007</text>
<text text-anchor="start" x="470.5" y="-215.8" font-family="Helvetica,sans-Serif" font-size="14.00" fill="#000000">samples = 15401</text>
<text text-anchor="start" x="483.5" y="-200.8" font-family="Helvetica,sans-Serif" font-size="14.00" fill="#000000">value = 0.393</text>
</g>
<!-- 0&#45;&gt;1 -->
<g id="edge1" class="edge">
<title>0&#45;&gt;1</title>
<path fill="none" stroke="#000000" d="M616.0526,-296.9465C605.0988,-287.6088 593.1127,-277.3911 581.768,-267.7203"/>
<polygon fill="#000000" stroke="#000000" points="583.9179,-264.9538 574.0371,-261.13 579.3767,-270.2809 583.9179,-264.9538"/>
<text text-anchor="middle" x="576.022" y="-282.3511" font-family="Helvetica,sans-Serif" font-size="14.00" fill="#000000">True</text>
</g>
<!-- 8 -->
<g id="node9" class="node">
<title>8</title>
<path fill="#f5ceb3" stroke="#000000" d="M899.5,-261C899.5,-261 658.5,-261 658.5,-261 652.5,-261 646.5,-255 646.5,-249 646.5,-249 646.5,-205 646.5,-205 646.5,-199 652.5,-193 658.5,-193 658.5,-193 899.5,-193 899.5,-193 905.5,-193 911.5,-199 911.5,-205 911.5,-205 911.5,-249 911.5,-249 911.5,-255 905.5,-261 899.5,-261"/>
<text text-anchor="start" x="654.5" y="-245.8" font-family="Helvetica,sans-Serif" font-size="14.00" fill="#000000">纳税总额/营业总收入_mean ≤ &#45;0.228</text>
<text text-anchor="start" x="705" y="-230.8" font-family="Helvetica,sans-Serif" font-size="14.00" fill="#000000">friedman_mse = 0.0</text>
<text text-anchor="start" x="715.5" y="-215.8" font-family="Helvetica,sans-Serif" font-size="14.00" fill="#000000">samples = 14978</text>
<text text-anchor="start" x="726" y="-200.8" font-family="Helvetica,sans-Serif" font-size="14.00" fill="#000000">value = &#45;0.401</text>
</g>
<!-- 0&#45;&gt;8 -->
<g id="edge8" class="edge">
<title>0&#45;&gt;8</title>
<path fill="none" stroke="#000000" d="M696.2748,-296.9465C707.3184,-287.6088 719.4028,-277.3911 730.8404,-267.7203"/>
<polygon fill="#000000" stroke="#000000" points="733.2583,-270.2594 738.6347,-261.13 728.7386,-264.914 733.2583,-270.2594"/>
<text text-anchor="middle" x="736.5495" y="-282.3429" font-family="Helvetica,sans-Serif" font-size="14.00" fill="#000000">False</text>
</g>
<!-- 2 -->
<g id="node3" class="node">
<title>2</title>
<path fill="#efb084" stroke="#000000" d="M372.5,-157C372.5,-157 131.5,-157 131.5,-157 125.5,-157 119.5,-151 119.5,-145 119.5,-145 119.5,-101 119.5,-101 119.5,-95 125.5,-89 131.5,-89 131.5,-89 372.5,-89 372.5,-89 378.5,-89 384.5,-95 384.5,-101 384.5,-101 384.5,-145 384.5,-145 384.5,-151 378.5,-157 372.5,-157"/>
<text text-anchor="start" x="127.5" y="-141.8" font-family="Helvetica,sans-Serif" font-size="14.00" fill="#000000">纳税总额/营业总收入_mean ≤ &#45;0.532</text>
<text text-anchor="start" x="178" y="-126.8" font-family="Helvetica,sans-Serif" font-size="14.00" fill="#000000">friedman_mse = 0.0</text>
<text text-anchor="start" x="188.5" y="-111.8" font-family="Helvetica,sans-Serif" font-size="14.00" fill="#000000">samples = 15121</text>
<text text-anchor="start" x="201.5" y="-96.8" font-family="Helvetica,sans-Serif" font-size="14.00" fill="#000000">value = 0.401</text>
</g>
<!-- 1&#45;&gt;2 -->
<g id="edge2" class="edge">
<title>1&#45;&gt;2</title>
<path fill="none" stroke="#000000" d="M441.6627,-192.9465C413.6652,-182.6212 382.75,-171.2199 354.1483,-160.6717"/>
<polygon fill="#000000" stroke="#000000" points="355.1382,-157.3064 344.5448,-157.13 352.716,-163.874 355.1382,-157.3064"/>
</g>
<!-- 5 -->
<g id="node6" class="node">
<title>5</title>
<path fill="#f2c19d" stroke="#000000" d="M655.5,-157C655.5,-157 414.5,-157 414.5,-157 408.5,-157 402.5,-151 402.5,-145 402.5,-145 402.5,-101 402.5,-101 402.5,-95 408.5,-89 414.5,-89 414.5,-89 655.5,-89 655.5,-89 661.5,-89 667.5,-95 667.5,-101 667.5,-101 667.5,-145 667.5,-145 667.5,-151 661.5,-157 655.5,-157"/>
<text text-anchor="start" x="410.5" y="-141.8" font-family="Helvetica,sans-Serif" font-size="14.00" fill="#000000">纳税总额/营业总收入_mean ≤ &#45;0.524</text>
<text text-anchor="start" x="452" y="-126.8" font-family="Helvetica,sans-Serif" font-size="14.00" fill="#000000">friedman_mse = 0.181</text>
<text text-anchor="start" x="480.5" y="-111.8" font-family="Helvetica,sans-Serif" font-size="14.00" fill="#000000">samples = 280</text>
<text text-anchor="start" x="482" y="-96.8" font-family="Helvetica,sans-Serif" font-size="14.00" fill="#000000">value = &#45;0.037</text>
</g>
<!-- 1&#45;&gt;5 -->
<g id="edge5" class="edge">
<title>1&#45;&gt;5</title>
<path fill="none" stroke="#000000" d="M534.3274,-192.9465C534.406,-184.776 534.491,-175.9318 534.5734,-167.3697"/>
<polygon fill="#000000" stroke="#000000" points="538.0754,-167.1632 534.6718,-157.13 531.0757,-167.0958 538.0754,-167.1632"/>
</g>
<!-- 3 -->
<g id="node4" class="node">
<title>3</title>
<path fill="#e58139" stroke="#000000" d="M152,-53C152,-53 12,-53 12,-53 6,-53 0,-47 0,-41 0,-41 0,-12 0,-12 0,-6 6,0 12,0 12,0 152,0 152,0 158,0 164,-6 164,-12 164,-12 164,-41 164,-41 164,-47 158,-53 152,-53"/>
<text text-anchor="start" x="8" y="-37.8" font-family="Helvetica,sans-Serif" font-size="14.00" fill="#000000">friedman_mse = 0.0</text>
<text text-anchor="start" x="18.5" y="-22.8" font-family="Helvetica,sans-Serif" font-size="14.00" fill="#000000">samples = 14986</text>
<text text-anchor="start" x="36" y="-7.8" font-family="Helvetica,sans-Serif" font-size="14.00" fill="#000000">value = 1.67</text>
</g>
<!-- 2&#45;&gt;3 -->
<g id="edge3" class="edge">
<title>2&#45;&gt;3</title>
<path fill="none" stroke="#000000" d="M192.0644,-88.9777C174.3997,-78.9504 155.1489,-68.0228 137.7579,-58.1508"/>
<polygon fill="#000000" stroke="#000000" points="139.2757,-54.9879 128.8513,-53.095 135.8201,-61.0755 139.2757,-54.9879"/>
</g>
<!-- 4 -->
<g id="node5" class="node">
<title>4</title>
<path fill="#e68844" stroke="#000000" d="M352,-53C352,-53 194,-53 194,-53 188,-53 182,-47 182,-41 182,-41 182,-12 182,-12 182,-6 188,0 194,0 194,0 352,0 352,0 358,0 364,-6 364,-12 364,-12 364,-41 364,-41 364,-47 358,-53 352,-53"/>
<text text-anchor="start" x="190" y="-37.8" font-family="Helvetica,sans-Serif" font-size="14.00" fill="#000000">friedman_mse = 0.049</text>
<text text-anchor="start" x="218.5" y="-22.8" font-family="Helvetica,sans-Serif" font-size="14.00" fill="#000000">samples = 135</text>
<text text-anchor="start" x="222.5" y="-7.8" font-family="Helvetica,sans-Serif" font-size="14.00" fill="#000000">value = 1.481</text>
</g>
<!-- 2&#45;&gt;4 -->
<g id="edge4" class="edge">
<title>2&#45;&gt;4</title>
<path fill="none" stroke="#000000" d="M259.4038,-88.9777C261.2172,-80.6449 263.1659,-71.6903 265.0055,-63.2364"/>
<polygon fill="#000000" stroke="#000000" points="268.4726,-63.7641 267.1791,-53.2485 261.6327,-62.2755 268.4726,-63.7641"/>
</g>
<!-- 6 -->
<g id="node7" class="node">
<title>6</title>
<path fill="#ffffff" stroke="#000000" d="M593,-53C593,-53 435,-53 435,-53 429,-53 423,-47 423,-41 423,-41 423,-12 423,-12 423,-6 429,0 435,0 435,0 593,0 593,0 599,0 605,-6 605,-12 605,-12 605,-41 605,-41 605,-47 599,-53 593,-53"/>
<text text-anchor="start" x="431" y="-37.8" font-family="Helvetica,sans-Serif" font-size="14.00" fill="#000000">friedman_mse = 0.009</text>
<text text-anchor="start" x="459.5" y="-22.8" font-family="Helvetica,sans-Serif" font-size="14.00" fill="#000000">samples = 151</text>
<text text-anchor="start" x="461" y="-7.8" font-family="Helvetica,sans-Serif" font-size="14.00" fill="#000000">value = &#45;1.698</text>
</g>
<!-- 5&#45;&gt;6 -->
<g id="edge6" class="edge">
<title>5&#45;&gt;6</title>
<path fill="none" stroke="#000000" d="M527.5962,-88.9777C525.7828,-80.6449 523.8341,-71.6903 521.9945,-63.2364"/>
<polygon fill="#000000" stroke="#000000" points="525.3673,-62.2755 519.8209,-53.2485 518.5274,-63.7641 525.3673,-62.2755"/>
</g>
<!-- 7 -->
<g id="node8" class="node">
<title>7</title>
<path fill="#e5833c" stroke="#000000" d="M784.5,-53C784.5,-53 635.5,-53 635.5,-53 629.5,-53 623.5,-47 623.5,-41 623.5,-41 623.5,-12 623.5,-12 623.5,-6 629.5,0 635.5,0 635.5,0 784.5,0 784.5,0 790.5,0 796.5,-6 796.5,-12 796.5,-12 796.5,-41 796.5,-41 796.5,-47 790.5,-53 784.5,-53"/>
<text text-anchor="start" x="631.5" y="-37.8" font-family="Helvetica,sans-Serif" font-size="14.00" fill="#000000">friedman_mse = 0.03</text>
<text text-anchor="start" x="655.5" y="-22.8" font-family="Helvetica,sans-Serif" font-size="14.00" fill="#000000">samples = 129</text>
<text text-anchor="start" x="659.5" y="-7.8" font-family="Helvetica,sans-Serif" font-size="14.00" fill="#000000">value = 1.626</text>
</g>
<!-- 5&#45;&gt;7 -->
<g id="edge7" class="edge">
<title>5&#45;&gt;7</title>
<path fill="none" stroke="#000000" d="M596.6985,-88.9777C614.8827,-78.9504 634.6997,-68.0228 652.6021,-58.1508"/>
<polygon fill="#000000" stroke="#000000" points="654.7039,-60.9888 661.7707,-53.095 651.3237,-54.859 654.7039,-60.9888"/>
</g>
<!-- 9 -->
<g id="node10" class="node">
<title>9</title>
<path fill="#fefcfb" stroke="#000000" d="M857,-149.5C857,-149.5 699,-149.5 699,-149.5 693,-149.5 687,-143.5 687,-137.5 687,-137.5 687,-108.5 687,-108.5 687,-102.5 693,-96.5 699,-96.5 699,-96.5 857,-96.5 857,-96.5 863,-96.5 869,-102.5 869,-108.5 869,-108.5 869,-137.5 869,-137.5 869,-143.5 863,-149.5 857,-149.5"/>
<text text-anchor="start" x="695" y="-134.3" font-family="Helvetica,sans-Serif" font-size="14.00" fill="#000000">friedman_mse = 0.011</text>
<text text-anchor="start" x="723.5" y="-119.3" font-family="Helvetica,sans-Serif" font-size="14.00" fill="#000000">samples = 178</text>
<text text-anchor="start" x="725" y="-104.3" font-family="Helvetica,sans-Serif" font-size="14.00" fill="#000000">value = &#45;1.624</text>
</g>
<!-- 8&#45;&gt;9 -->
<g id="edge9" class="edge">
<title>8&#45;&gt;9</title>
<path fill="none" stroke="#000000" d="M778.6726,-192.9465C778.5698,-182.2621 778.456,-170.4254 778.3517,-159.5742"/>
<polygon fill="#000000" stroke="#000000" points="781.8513,-159.508 778.2552,-149.5422 774.8516,-159.5754 781.8513,-159.508"/>
</g>
<!-- 10 -->
<g id="node11" class="node">
<title>10</title>
<path fill="#fffefd" stroke="#000000" d="M1039,-149.5C1039,-149.5 899,-149.5 899,-149.5 893,-149.5 887,-143.5 887,-137.5 887,-137.5 887,-108.5 887,-108.5 887,-102.5 893,-96.5 899,-96.5 899,-96.5 1039,-96.5 1039,-96.5 1045,-96.5 1051,-102.5 1051,-108.5 1051,-108.5 1051,-137.5 1051,-137.5 1051,-143.5 1045,-149.5 1039,-149.5"/>
<text text-anchor="start" x="895" y="-134.3" font-family="Helvetica,sans-Serif" font-size="14.00" fill="#000000">friedman_mse = 0.0</text>
<text text-anchor="start" x="905.5" y="-119.3" font-family="Helvetica,sans-Serif" font-size="14.00" fill="#000000">samples = 14800</text>
<text text-anchor="start" x="920.5" y="-104.3" font-family="Helvetica,sans-Serif" font-size="14.00" fill="#000000">value = &#45;1.67</text>
</g>
<!-- 8&#45;&gt;10 -->
<g id="edge10" class="edge">
<title>8&#45;&gt;10</title>
<path fill="none" stroke="#000000" d="M841.2131,-192.9465C863.8519,-180.5547 889.3221,-166.6132 911.5313,-154.4565"/>
<polygon fill="#000000" stroke="#000000" points="913.4181,-157.4138 920.5095,-149.5422 910.0571,-151.2735 913.4181,-157.4138"/>
</g>
</g>
</svg>
