<?xml version="1.0" encoding="UTF-8" standalone="no"?>
<!DOCTYPE svg PUBLIC "-//W3C//DTD SVG 1.1//EN"
 "http://www.w3.org/Graphics/SVG/1.1/DTD/svg11.dtd">
<!-- Generated by graphviz version 2.40.1 (20161225.0304)
 -->
<!-- Title: Tree Pages: 1 -->
<svg width="1352pt" height="433pt"
 viewBox="0.00 0.00 1352.00 433.00" xmlns="http://www.w3.org/2000/svg" xmlns:xlink="http://www.w3.org/1999/xlink">
<g id="graph0" class="graph" transform="scale(1 1) rotate(0) translate(4 429)">
<title>Tree</title>
<polygon fill="#ffffff" stroke="transparent" points="-4,4 -4,-429 1348,-429 1348,4 -4,4"/>
<!-- 0 -->
<g id="node1" class="node">
<title>0</title>
<path fill="#ffffff" stroke="#000000" d="M747,-425C747,-425 558,-425 558,-425 552,-425 546,-419 546,-413 546,-413 546,-354 546,-354 546,-348 552,-342 558,-342 558,-342 747,-342 747,-342 753,-342 759,-348 759,-354 759,-354 759,-413 759,-413 759,-419 753,-425 747,-425"/>
<text text-anchor="start" x="566" y="-409.8" font-family="Helvetica,sans-Serif" font-size="14.00" fill="#000000">纳税总额_mean ≤ &#45;0.576</text>
<text text-anchor="start" x="617.5" y="-394.8" font-family="Helvetica,sans-Serif" font-size="14.00" fill="#000000">gini = 0.5</text>
<text text-anchor="start" x="589" y="-379.8" font-family="Helvetica,sans-Serif" font-size="14.00" fill="#000000">samples = 45762</text>
<text text-anchor="start" x="554" y="-364.8" font-family="Helvetica,sans-Serif" font-size="14.00" fill="#000000">value = [22881.0, 22881.0]</text>
<text text-anchor="start" x="595.5" y="-349.8" font-family="Helvetica,sans-Serif" font-size="14.00" fill="#000000">class = 僵尸企业</text>
</g>
<!-- 1 -->
<g id="node2" class="node">
<title>1</title>
<path fill="#399de5" stroke="#000000" d="M628.5,-306C628.5,-306 430.5,-306 430.5,-306 424.5,-306 418.5,-300 418.5,-294 418.5,-294 418.5,-235 418.5,-235 418.5,-229 424.5,-223 430.5,-223 430.5,-223 628.5,-223 628.5,-223 634.5,-223 640.5,-229 640.5,-235 640.5,-235 640.5,-294 640.5,-294 640.5,-300 634.5,-306 628.5,-306"/>
<text text-anchor="start" x="450" y="-290.8" font-family="Helvetica,sans-Serif" font-size="14.00" fill="#000000">净利润_mean ≤ &#45;0.156</text>
<text text-anchor="start" x="485.5" y="-275.8" font-family="Helvetica,sans-Serif" font-size="14.00" fill="#000000">gini = 0.003</text>
<text text-anchor="start" x="466" y="-260.8" font-family="Helvetica,sans-Serif" font-size="14.00" fill="#000000">samples = 19111</text>
<text text-anchor="start" x="426.5" y="-245.8" font-family="Helvetica,sans-Serif" font-size="14.00" fill="#000000">value = [30.888, 22858.232]</text>
<text text-anchor="start" x="472.5" y="-230.8" font-family="Helvetica,sans-Serif" font-size="14.00" fill="#000000">class = 僵尸企业</text>
</g>
<!-- 0&#45;&gt;1 -->
<g id="edge1" class="edge">
<title>0&#45;&gt;1</title>
<path fill="none" stroke="#000000" d="M609.4806,-341.8796C599.9853,-332.6931 589.8422,-322.8798 580.0785,-313.4336"/>
<polygon fill="#000000" stroke="#000000" points="582.3237,-310.7359 572.703,-306.2981 577.4564,-315.7668 582.3237,-310.7359"/>
<text text-anchor="middle" x="573.1162" y="-327.5947" font-family="Helvetica,sans-Serif" font-size="14.00" fill="#000000">True</text>
</g>
<!-- 6 -->
<g id="node7" class="node">
<title>6</title>
<path fill="#e58139" stroke="#000000" d="M882.5,-306C882.5,-306 670.5,-306 670.5,-306 664.5,-306 658.5,-300 658.5,-294 658.5,-294 658.5,-235 658.5,-235 658.5,-229 664.5,-223 670.5,-223 670.5,-223 882.5,-223 882.5,-223 888.5,-223 894.5,-229 894.5,-235 894.5,-235 894.5,-294 894.5,-294 894.5,-300 888.5,-306 882.5,-306"/>
<text text-anchor="start" x="666.5" y="-290.8" font-family="Helvetica,sans-Serif" font-size="14.00" fill="#000000">纳税总额/营业总收入_d2 ≤ 3.068</text>
<text text-anchor="start" x="732.5" y="-275.8" font-family="Helvetica,sans-Serif" font-size="14.00" fill="#000000">gini = 0.002</text>
<text text-anchor="start" x="713" y="-260.8" font-family="Helvetica,sans-Serif" font-size="14.00" fill="#000000">samples = 26651</text>
<text text-anchor="start" x="673.5" y="-245.8" font-family="Helvetica,sans-Serif" font-size="14.00" fill="#000000">value = [22850.112, 22.768]</text>
<text text-anchor="start" x="719.5" y="-230.8" font-family="Helvetica,sans-Serif" font-size="14.00" fill="#000000">class = 正常企业</text>
</g>
<!-- 0&#45;&gt;6 -->
<g id="edge6" class="edge">
<title>0&#45;&gt;6</title>
<path fill="none" stroke="#000000" d="M695.8692,-341.8796C705.4416,-332.6931 715.6672,-322.8798 725.5103,-313.4336"/>
<polygon fill="#000000" stroke="#000000" points="728.1541,-315.7475 732.9457,-306.2981 723.3072,-310.6969 728.1541,-315.7475"/>
<text text-anchor="middle" x="732.4314" y="-327.5928" font-family="Helvetica,sans-Serif" font-size="14.00" fill="#000000">False</text>
</g>
<!-- 2 -->
<g id="node3" class="node">
<title>2</title>
<path fill="#399de5" stroke="#000000" d="M420.5,-187C420.5,-187 168.5,-187 168.5,-187 162.5,-187 156.5,-181 156.5,-175 156.5,-175 156.5,-116 156.5,-116 156.5,-110 162.5,-104 168.5,-104 168.5,-104 420.5,-104 420.5,-104 426.5,-104 432.5,-110 432.5,-116 432.5,-116 432.5,-175 432.5,-175 432.5,-181 426.5,-187 420.5,-187"/>
<text text-anchor="start" x="164.5" y="-171.8" font-family="Helvetica,sans-Serif" font-size="14.00" fill="#000000">净利润/营业总收入_d1_mean ≤ &#45;0.032</text>
<text text-anchor="start" x="250.5" y="-156.8" font-family="Helvetica,sans-Serif" font-size="14.00" fill="#000000">gini = 0.002</text>
<text text-anchor="start" x="231" y="-141.8" font-family="Helvetica,sans-Serif" font-size="14.00" fill="#000000">samples = 19103</text>
<text text-anchor="start" x="191.5" y="-126.8" font-family="Helvetica,sans-Serif" font-size="14.00" fill="#000000">value = [24.024, 22858.232]</text>
<text text-anchor="start" x="237.5" y="-111.8" font-family="Helvetica,sans-Serif" font-size="14.00" fill="#000000">class = 僵尸企业</text>
</g>
<!-- 1&#45;&gt;2 -->
<g id="edge2" class="edge">
<title>1&#45;&gt;2</title>
<path fill="none" stroke="#000000" d="M447.3084,-222.8796C427.3622,-212.7791 405.9195,-201.9209 385.5892,-191.626"/>
<polygon fill="#000000" stroke="#000000" points="387.1478,-188.4921 376.6452,-187.0969 383.9854,-194.7371 387.1478,-188.4921"/>
</g>
<!-- 5 -->
<g id="node6" class="node">
<title>5</title>
<path fill="#e58139" stroke="#000000" d="M598,-179.5C598,-179.5 463,-179.5 463,-179.5 457,-179.5 451,-173.5 451,-167.5 451,-167.5 451,-123.5 451,-123.5 451,-117.5 457,-111.5 463,-111.5 463,-111.5 598,-111.5 598,-111.5 604,-111.5 610,-117.5 610,-123.5 610,-123.5 610,-167.5 610,-167.5 610,-173.5 604,-179.5 598,-179.5"/>
<text text-anchor="start" x="493" y="-164.3" font-family="Helvetica,sans-Serif" font-size="14.00" fill="#000000">gini = &#45;0.0</text>
<text text-anchor="start" x="485" y="-149.3" font-family="Helvetica,sans-Serif" font-size="14.00" fill="#000000">samples = 8</text>
<text text-anchor="start" x="459" y="-134.3" font-family="Helvetica,sans-Serif" font-size="14.00" fill="#000000">value = [6.864, 0.0]</text>
<text text-anchor="start" x="473.5" y="-119.3" font-family="Helvetica,sans-Serif" font-size="14.00" fill="#000000">class = 正常企业</text>
</g>
<!-- 1&#45;&gt;5 -->
<g id="edge5" class="edge">
<title>1&#45;&gt;5</title>
<path fill="none" stroke="#000000" d="M529.8498,-222.8796C529.9394,-212.2134 530.0361,-200.7021 530.1269,-189.9015"/>
<polygon fill="#000000" stroke="#000000" points="533.6274,-189.844 530.2116,-179.8149 526.6276,-189.7851 533.6274,-189.844"/>
</g>
<!-- 3 -->
<g id="node4" class="node">
<title>3</title>
<path fill="#53aae8" stroke="#000000" d="M165,-68C165,-68 12,-68 12,-68 6,-68 0,-62 0,-56 0,-56 0,-12 0,-12 0,-6 6,0 12,0 12,0 165,0 165,0 171,0 177,-6 177,-12 177,-12 177,-56 177,-56 177,-62 171,-68 165,-68"/>
<text text-anchor="start" x="44.5" y="-52.8" font-family="Helvetica,sans-Serif" font-size="14.00" fill="#000000">gini = 0.207</text>
<text text-anchor="start" x="38.5" y="-37.8" font-family="Helvetica,sans-Serif" font-size="14.00" fill="#000000">samples = 32</text>
<text text-anchor="start" x="8" y="-22.8" font-family="Helvetica,sans-Serif" font-size="14.00" fill="#000000">value = [4.29, 32.355]</text>
<text text-anchor="start" x="31.5" y="-7.8" font-family="Helvetica,sans-Serif" font-size="14.00" fill="#000000">class = 僵尸企业</text>
</g>
<!-- 2&#45;&gt;3 -->
<g id="edge3" class="edge">
<title>2&#45;&gt;3</title>
<path fill="none" stroke="#000000" d="M217.7932,-103.9815C199.0168,-93.8186 178.9911,-82.9794 160.4469,-72.9421"/>
<polygon fill="#000000" stroke="#000000" points="161.9348,-69.7677 151.4743,-68.0856 158.6027,-75.9238 161.9348,-69.7677"/>
</g>
<!-- 4 -->
<g id="node5" class="node">
<title>4</title>
<path fill="#399de5" stroke="#000000" d="M404.5,-68C404.5,-68 206.5,-68 206.5,-68 200.5,-68 194.5,-62 194.5,-56 194.5,-56 194.5,-12 194.5,-12 194.5,-6 200.5,0 206.5,0 206.5,0 404.5,0 404.5,0 410.5,0 416.5,-6 416.5,-12 416.5,-12 416.5,-56 416.5,-56 416.5,-62 410.5,-68 404.5,-68"/>
<text text-anchor="start" x="261.5" y="-52.8" font-family="Helvetica,sans-Serif" font-size="14.00" fill="#000000">gini = 0.002</text>
<text text-anchor="start" x="242" y="-37.8" font-family="Helvetica,sans-Serif" font-size="14.00" fill="#000000">samples = 19071</text>
<text text-anchor="start" x="202.5" y="-22.8" font-family="Helvetica,sans-Serif" font-size="14.00" fill="#000000">value = [19.734, 22825.877]</text>
<text text-anchor="start" x="248.5" y="-7.8" font-family="Helvetica,sans-Serif" font-size="14.00" fill="#000000">class = 僵尸企业</text>
</g>
<!-- 2&#45;&gt;4 -->
<g id="edge4" class="edge">
<title>2&#45;&gt;4</title>
<path fill="none" stroke="#000000" d="M298.596,-103.9815C299.4211,-95.618 300.2914,-86.7965 301.1256,-78.3409"/>
<polygon fill="#000000" stroke="#000000" points="304.6209,-78.559 302.1197,-68.2637 297.6548,-77.8717 304.6209,-78.559"/>
</g>
<!-- 7 -->
<g id="node8" class="node">
<title>7</title>
<path fill="#e58139" stroke="#000000" d="M908.5,-187C908.5,-187 642.5,-187 642.5,-187 636.5,-187 630.5,-181 630.5,-175 630.5,-175 630.5,-116 630.5,-116 630.5,-110 636.5,-104 642.5,-104 642.5,-104 908.5,-104 908.5,-104 914.5,-104 920.5,-110 920.5,-116 920.5,-116 920.5,-175 920.5,-175 920.5,-181 914.5,-187 908.5,-187"/>
<text text-anchor="start" x="638.5" y="-171.8" font-family="Helvetica,sans-Serif" font-size="14.00" fill="#000000">纳税总额/营业总收入_d1_mean ≤ &#45;2.176</text>
<text text-anchor="start" x="731.5" y="-156.8" font-family="Helvetica,sans-Serif" font-size="14.00" fill="#000000">gini = 0.002</text>
<text text-anchor="start" x="712" y="-141.8" font-family="Helvetica,sans-Serif" font-size="14.00" fill="#000000">samples = 26122</text>
<text text-anchor="start" x="672.5" y="-126.8" font-family="Helvetica,sans-Serif" font-size="14.00" fill="#000000">value = [22397.949, 20.372]</text>
<text text-anchor="start" x="718.5" y="-111.8" font-family="Helvetica,sans-Serif" font-size="14.00" fill="#000000">class = 正常企业</text>
</g>
<!-- 6&#45;&gt;7 -->
<g id="edge7" class="edge">
<title>6&#45;&gt;7</title>
<path fill="none" stroke="#000000" d="M776.1502,-222.8796C776.0814,-214.6838 776.0083,-205.9891 775.937,-197.5013"/>
<polygon fill="#000000" stroke="#000000" points="779.4352,-197.2683 775.8512,-187.2981 772.4355,-197.3272 779.4352,-197.2683"/>
</g>
<!-- 10 -->
<g id="node11" class="node">
<title>10</title>
<path fill="#e5823a" stroke="#000000" d="M1154,-187C1154,-187 951,-187 951,-187 945,-187 939,-181 939,-175 939,-175 939,-116 939,-116 939,-110 945,-104 951,-104 951,-104 1154,-104 1154,-104 1160,-104 1166,-110 1166,-116 1166,-116 1166,-175 1166,-175 1166,-181 1160,-187 1154,-187"/>
<text text-anchor="start" x="947" y="-171.8" font-family="Helvetica,sans-Serif" font-size="14.00" fill="#000000">纳税总额/营业总收入_d2 ≤ 3.08</text>
<text text-anchor="start" x="1013" y="-156.8" font-family="Helvetica,sans-Serif" font-size="14.00" fill="#000000">gini = 0.01</text>
<text text-anchor="start" x="998" y="-141.8" font-family="Helvetica,sans-Serif" font-size="14.00" fill="#000000">samples = 529</text>
<text text-anchor="start" x="963" y="-126.8" font-family="Helvetica,sans-Serif" font-size="14.00" fill="#000000">value = [452.163, 2.397]</text>
<text text-anchor="start" x="995.5" y="-111.8" font-family="Helvetica,sans-Serif" font-size="14.00" fill="#000000">class = 正常企业</text>
</g>
<!-- 6&#45;&gt;10 -->
<g id="edge10" class="edge">
<title>6&#45;&gt;10</title>
<path fill="none" stroke="#000000" d="M873.0314,-222.8796C896.8778,-212.598 922.5454,-201.5311 946.8022,-191.0726"/>
<polygon fill="#000000" stroke="#000000" points="948.226,-194.2702 956.0231,-187.0969 945.4545,-187.8423 948.226,-194.2702"/>
</g>
<!-- 8 -->
<g id="node9" class="node">
<title>8</title>
<path fill="#e5813a" stroke="#000000" d="M664.5,-68C664.5,-68 484.5,-68 484.5,-68 478.5,-68 472.5,-62 472.5,-56 472.5,-56 472.5,-12 472.5,-12 472.5,-6 478.5,0 484.5,0 484.5,0 664.5,0 664.5,0 670.5,0 676.5,-6 676.5,-12 676.5,-12 676.5,-56 676.5,-56 676.5,-62 670.5,-68 664.5,-68"/>
<text text-anchor="start" x="530.5" y="-52.8" font-family="Helvetica,sans-Serif" font-size="14.00" fill="#000000">gini = 0.006</text>
<text text-anchor="start" x="515.5" y="-37.8" font-family="Helvetica,sans-Serif" font-size="14.00" fill="#000000">samples = 1337</text>
<text text-anchor="start" x="480.5" y="-22.8" font-family="Helvetica,sans-Serif" font-size="14.00" fill="#000000">value = [1144.565, 3.595]</text>
<text text-anchor="start" x="517.5" y="-7.8" font-family="Helvetica,sans-Serif" font-size="14.00" fill="#000000">class = 正常企业</text>
</g>
<!-- 7&#45;&gt;8 -->
<g id="edge8" class="edge">
<title>7&#45;&gt;8</title>
<path fill="none" stroke="#000000" d="M700.655,-103.9815C682.3344,-93.8186 662.7947,-82.9794 644.7006,-72.9421"/>
<polygon fill="#000000" stroke="#000000" points="646.3883,-69.8759 635.9458,-68.0856 642.9927,-75.9972 646.3883,-69.8759"/>
</g>
<!-- 9 -->
<g id="node10" class="node">
<title>9</title>
<path fill="#e58139" stroke="#000000" d="M904.5,-68C904.5,-68 706.5,-68 706.5,-68 700.5,-68 694.5,-62 694.5,-56 694.5,-56 694.5,-12 694.5,-12 694.5,-6 700.5,0 706.5,0 706.5,0 904.5,0 904.5,0 910.5,0 916.5,-6 916.5,-12 916.5,-12 916.5,-56 916.5,-56 916.5,-62 910.5,-68 904.5,-68"/>
<text text-anchor="start" x="761.5" y="-52.8" font-family="Helvetica,sans-Serif" font-size="14.00" fill="#000000">gini = 0.002</text>
<text text-anchor="start" x="742" y="-37.8" font-family="Helvetica,sans-Serif" font-size="14.00" fill="#000000">samples = 24785</text>
<text text-anchor="start" x="702.5" y="-22.8" font-family="Helvetica,sans-Serif" font-size="14.00" fill="#000000">value = [21253.384, 16.777]</text>
<text text-anchor="start" x="748.5" y="-7.8" font-family="Helvetica,sans-Serif" font-size="14.00" fill="#000000">class = 正常企业</text>
</g>
<!-- 7&#45;&gt;9 -->
<g id="edge9" class="edge">
<title>7&#45;&gt;9</title>
<path fill="none" stroke="#000000" d="M786.6709,-103.9815C788.9459,-95.5261 791.3468,-86.6026 793.6447,-78.0623"/>
<polygon fill="#000000" stroke="#000000" points="797.0626,-78.8296 796.2811,-68.2637 790.303,-77.0109 797.0626,-78.8296"/>
</g>
<!-- 11 -->
<g id="node12" class="node">
<title>11</title>
<path fill="#f1bc95" stroke="#000000" d="M1119,-68C1119,-68 966,-68 966,-68 960,-68 954,-62 954,-56 954,-56 954,-12 954,-12 954,-6 960,0 966,0 966,0 1119,0 1119,0 1125,0 1131,-6 1131,-12 1131,-12 1131,-56 1131,-56 1131,-62 1125,-68 1119,-68"/>
<text text-anchor="start" x="998.5" y="-52.8" font-family="Helvetica,sans-Serif" font-size="14.00" fill="#000000">gini = 0.434</text>
<text text-anchor="start" x="997" y="-37.8" font-family="Helvetica,sans-Serif" font-size="14.00" fill="#000000">samples = 4</text>
<text text-anchor="start" x="962" y="-22.8" font-family="Helvetica,sans-Serif" font-size="14.00" fill="#000000">value = [2.574, 1.198]</text>
<text text-anchor="start" x="985.5" y="-7.8" font-family="Helvetica,sans-Serif" font-size="14.00" fill="#000000">class = 正常企业</text>
</g>
<!-- 10&#45;&gt;11 -->
<g id="edge11" class="edge">
<title>10&#45;&gt;11</title>
<path fill="none" stroke="#000000" d="M1048.7764,-103.9815C1048.0263,-95.618 1047.2351,-86.7965 1046.4768,-78.3409"/>
<polygon fill="#000000" stroke="#000000" points="1049.9523,-77.911 1045.573,-68.2637 1042.9803,-78.5364 1049.9523,-77.911"/>
</g>
<!-- 12 -->
<g id="node13" class="node">
<title>12</title>
<path fill="#e5813a" stroke="#000000" d="M1332,-68C1332,-68 1161,-68 1161,-68 1155,-68 1149,-62 1149,-56 1149,-56 1149,-12 1149,-12 1149,-6 1155,0 1161,0 1161,0 1332,0 1332,0 1338,0 1344,-6 1344,-12 1344,-12 1344,-56 1344,-56 1344,-62 1338,-68 1332,-68"/>
<text text-anchor="start" x="1202.5" y="-52.8" font-family="Helvetica,sans-Serif" font-size="14.00" fill="#000000">gini = 0.005</text>
<text text-anchor="start" x="1192" y="-37.8" font-family="Helvetica,sans-Serif" font-size="14.00" fill="#000000">samples = 525</text>
<text text-anchor="start" x="1157" y="-22.8" font-family="Helvetica,sans-Serif" font-size="14.00" fill="#000000">value = [449.589, 1.198]</text>
<text text-anchor="start" x="1189.5" y="-7.8" font-family="Helvetica,sans-Serif" font-size="14.00" fill="#000000">class = 正常企业</text>
</g>
<!-- 10&#45;&gt;12 -->
<g id="edge12" class="edge">
<title>10&#45;&gt;12</title>
<path fill="none" stroke="#000000" d="M1124.7384,-103.9815C1142.2603,-93.911 1160.9374,-83.1764 1178.2676,-73.2161"/>
<polygon fill="#000000" stroke="#000000" points="1180.2681,-76.1032 1187.1941,-68.0856 1176.7799,-70.0342 1180.2681,-76.1032"/>
</g>
</g>
</svg>
