<?xml version="1.0" encoding="UTF-8" standalone="no"?>
<!DOCTYPE svg PUBLIC "-//W3C//DTD SVG 1.1//EN"
 "http://www.w3.org/Graphics/SVG/1.1/DTD/svg11.dtd">
<!-- Generated by graphviz version 2.40.1 (20161225.0304)
 -->
<!-- Title: Tree Pages: 1 -->
<svg width="1067pt" height="433pt"
 viewBox="0.00 0.00 1067.00 433.00" xmlns="http://www.w3.org/2000/svg" xmlns:xlink="http://www.w3.org/1999/xlink">
<g id="graph0" class="graph" transform="scale(1 1) rotate(0) translate(4 429)">
<title>Tree</title>
<polygon fill="#ffffff" stroke="transparent" points="-4,4 -4,-429 1063,-429 1063,4 -4,4"/>
<!-- 0 -->
<g id="node1" class="node">
<title>0</title>
<path fill="#f8dbc7" stroke="#000000" d="M554,-425C554,-425 392,-425 392,-425 386,-425 380,-419 380,-413 380,-413 380,-354 380,-354 380,-348 386,-342 392,-342 392,-342 554,-342 554,-342 560,-342 566,-348 566,-354 566,-354 566,-413 566,-413 566,-419 560,-425 554,-425"/>
<text text-anchor="start" x="393.5" y="-409.8" font-family="Helvetica,sans-Serif" font-size="14.00" fill="#000000">纳税总额_mean ≤ 13.2</text>
<text text-anchor="start" x="429" y="-394.8" font-family="Helvetica,sans-Serif" font-size="14.00" fill="#000000">gini = 0.486</text>
<text text-anchor="start" x="409.5" y="-379.8" font-family="Helvetica,sans-Serif" font-size="14.00" fill="#000000">samples = 45762</text>
<text text-anchor="start" x="388" y="-364.8" font-family="Helvetica,sans-Serif" font-size="14.00" fill="#000000">value = [26668, 19094]</text>
<text text-anchor="start" x="416" y="-349.8" font-family="Helvetica,sans-Serif" font-size="14.00" fill="#000000">class = 正常企业</text>
</g>
<!-- 1 -->
<g id="node2" class="node">
<title>1</title>
<path fill="#399de5" stroke="#000000" d="M432,-306C432,-306 286,-306 286,-306 280,-306 274,-300 274,-294 274,-294 274,-235 274,-235 274,-229 280,-223 286,-223 286,-223 432,-223 432,-223 438,-223 444,-229 444,-235 444,-235 444,-294 444,-294 444,-300 438,-306 432,-306"/>
<text text-anchor="start" x="282" y="-290.8" font-family="Helvetica,sans-Serif" font-size="14.00" fill="#000000">净利润_mean ≤ 155.8</text>
<text text-anchor="start" x="315" y="-275.8" font-family="Helvetica,sans-Serif" font-size="14.00" fill="#000000">gini = 0.004</text>
<text text-anchor="start" x="295.5" y="-260.8" font-family="Helvetica,sans-Serif" font-size="14.00" fill="#000000">samples = 19111</text>
<text text-anchor="start" x="287.5" y="-245.8" font-family="Helvetica,sans-Serif" font-size="14.00" fill="#000000">value = [36, 19075]</text>
<text text-anchor="start" x="302" y="-230.8" font-family="Helvetica,sans-Serif" font-size="14.00" fill="#000000">class = 僵尸企业</text>
</g>
<!-- 0&#45;&gt;1 -->
<g id="edge1" class="edge">
<title>0&#45;&gt;1</title>
<path fill="none" stroke="#000000" d="M433.1283,-341.8796C424.4142,-332.7832 415.1112,-323.0722 406.1438,-313.7116"/>
<polygon fill="#000000" stroke="#000000" points="408.487,-311.098 399.0419,-306.2981 403.4322,-315.9405 408.487,-311.098"/>
<text text-anchor="middle" x="398.5055" y="-327.5923" font-family="Helvetica,sans-Serif" font-size="14.00" fill="#000000">True</text>
</g>
<!-- 6 -->
<g id="node7" class="node">
<title>6</title>
<path fill="#e58139" stroke="#000000" d="M693,-306C693,-306 481,-306 481,-306 475,-306 469,-300 469,-294 469,-294 469,-235 469,-235 469,-229 475,-223 481,-223 481,-223 693,-223 693,-223 699,-223 705,-229 705,-235 705,-235 705,-294 705,-294 705,-300 699,-306 693,-306"/>
<text text-anchor="start" x="477" y="-290.8" font-family="Helvetica,sans-Serif" font-size="14.00" fill="#000000">纳税总额/营业总收入_d2 ≤ 3.203</text>
<text text-anchor="start" x="543" y="-275.8" font-family="Helvetica,sans-Serif" font-size="14.00" fill="#000000">gini = 0.001</text>
<text text-anchor="start" x="523.5" y="-260.8" font-family="Helvetica,sans-Serif" font-size="14.00" fill="#000000">samples = 26651</text>
<text text-anchor="start" x="515.5" y="-245.8" font-family="Helvetica,sans-Serif" font-size="14.00" fill="#000000">value = [26632, 19]</text>
<text text-anchor="start" x="530" y="-230.8" font-family="Helvetica,sans-Serif" font-size="14.00" fill="#000000">class = 正常企业</text>
</g>
<!-- 0&#45;&gt;6 -->
<g id="edge6" class="edge">
<title>0&#45;&gt;6</title>
<path fill="none" stroke="#000000" d="M512.8717,-341.8796C521.5858,-332.7832 530.8888,-323.0722 539.8562,-313.7116"/>
<polygon fill="#000000" stroke="#000000" points="542.5678,-315.9405 546.9581,-306.2981 537.513,-311.098 542.5678,-315.9405"/>
<text text-anchor="middle" x="547.4945" y="-327.5923" font-family="Helvetica,sans-Serif" font-size="14.00" fill="#000000">False</text>
</g>
<!-- 2 -->
<g id="node3" class="node">
<title>2</title>
<path fill="#399de5" stroke="#000000" d="M264,-187C264,-187 12,-187 12,-187 6,-187 0,-181 0,-175 0,-175 0,-116 0,-116 0,-110 6,-104 12,-104 12,-104 264,-104 264,-104 270,-104 276,-110 276,-116 276,-116 276,-175 276,-175 276,-181 270,-187 264,-187"/>
<text text-anchor="start" x="8" y="-171.8" font-family="Helvetica,sans-Serif" font-size="14.00" fill="#000000">净利润/营业总收入_d1_mean ≤ &#45;0.007</text>
<text text-anchor="start" x="94" y="-156.8" font-family="Helvetica,sans-Serif" font-size="14.00" fill="#000000">gini = 0.003</text>
<text text-anchor="start" x="74.5" y="-141.8" font-family="Helvetica,sans-Serif" font-size="14.00" fill="#000000">samples = 19103</text>
<text text-anchor="start" x="66.5" y="-126.8" font-family="Helvetica,sans-Serif" font-size="14.00" fill="#000000">value = [28, 19075]</text>
<text text-anchor="start" x="81" y="-111.8" font-family="Helvetica,sans-Serif" font-size="14.00" fill="#000000">class = 僵尸企业</text>
</g>
<!-- 1&#45;&gt;2 -->
<g id="edge2" class="edge">
<title>1&#45;&gt;2</title>
<path fill="none" stroke="#000000" d="M281.7049,-222.8796C263.1152,-212.8697 243.1433,-202.1156 224.1773,-191.9031"/>
<polygon fill="#000000" stroke="#000000" points="225.7155,-188.7563 215.2514,-187.0969 222.3968,-194.9196 225.7155,-188.7563"/>
</g>
<!-- 5 -->
<g id="node6" class="node">
<title>5</title>
<path fill="#e58139" stroke="#000000" d="M412,-179.5C412,-179.5 306,-179.5 306,-179.5 300,-179.5 294,-173.5 294,-167.5 294,-167.5 294,-123.5 294,-123.5 294,-117.5 300,-111.5 306,-111.5 306,-111.5 412,-111.5 412,-111.5 418,-111.5 424,-117.5 424,-123.5 424,-123.5 424,-167.5 424,-167.5 424,-173.5 418,-179.5 412,-179.5"/>
<text text-anchor="start" x="324" y="-164.3" font-family="Helvetica,sans-Serif" font-size="14.00" fill="#000000">gini = 0.0</text>
<text text-anchor="start" x="313.5" y="-149.3" font-family="Helvetica,sans-Serif" font-size="14.00" fill="#000000">samples = 8</text>
<text text-anchor="start" x="310" y="-134.3" font-family="Helvetica,sans-Serif" font-size="14.00" fill="#000000">value = [8, 0]</text>
<text text-anchor="start" x="302" y="-119.3" font-family="Helvetica,sans-Serif" font-size="14.00" fill="#000000">class = 正常企业</text>
</g>
<!-- 1&#45;&gt;5 -->
<g id="edge5" class="edge">
<title>1&#45;&gt;5</title>
<path fill="none" stroke="#000000" d="M359,-222.8796C359,-212.2134 359,-200.7021 359,-189.9015"/>
<polygon fill="#000000" stroke="#000000" points="362.5001,-189.8149 359,-179.8149 355.5001,-189.815 362.5001,-189.8149"/>
</g>
<!-- 3 -->
<g id="node4" class="node">
<title>3</title>
<path fill="#5eafea" stroke="#000000" d="M166,-68C166,-68 60,-68 60,-68 54,-68 48,-62 48,-56 48,-56 48,-12 48,-12 48,-6 54,0 60,0 60,0 166,0 166,0 172,0 178,-6 178,-12 178,-12 178,-56 178,-56 178,-62 172,-68 166,-68"/>
<text text-anchor="start" x="69" y="-52.8" font-family="Helvetica,sans-Serif" font-size="14.00" fill="#000000">gini = 0.264</text>
<text text-anchor="start" x="63" y="-37.8" font-family="Helvetica,sans-Serif" font-size="14.00" fill="#000000">samples = 32</text>
<text text-anchor="start" x="59.5" y="-22.8" font-family="Helvetica,sans-Serif" font-size="14.00" fill="#000000">value = [5, 27]</text>
<text text-anchor="start" x="56" y="-7.8" font-family="Helvetica,sans-Serif" font-size="14.00" fill="#000000">class = 僵尸企业</text>
</g>
<!-- 2&#45;&gt;3 -->
<g id="edge3" class="edge">
<title>2&#45;&gt;3</title>
<path fill="none" stroke="#000000" d="M128.6909,-103.9815C126.7951,-95.5261 124.7943,-86.6026 122.8794,-78.0623"/>
<polygon fill="#000000" stroke="#000000" points="126.2856,-77.2556 120.6824,-68.2637 119.4551,-78.7872 126.2856,-77.2556"/>
</g>
<!-- 4 -->
<g id="node5" class="node">
<title>4</title>
<path fill="#399de5" stroke="#000000" d="M343.5,-68C343.5,-68 208.5,-68 208.5,-68 202.5,-68 196.5,-62 196.5,-56 196.5,-56 196.5,-12 196.5,-12 196.5,-6 202.5,0 208.5,0 208.5,0 343.5,0 343.5,0 349.5,0 355.5,-6 355.5,-12 355.5,-12 355.5,-56 355.5,-56 355.5,-62 349.5,-68 343.5,-68"/>
<text text-anchor="start" x="232" y="-52.8" font-family="Helvetica,sans-Serif" font-size="14.00" fill="#000000">gini = 0.002</text>
<text text-anchor="start" x="212.5" y="-37.8" font-family="Helvetica,sans-Serif" font-size="14.00" fill="#000000">samples = 19071</text>
<text text-anchor="start" x="204.5" y="-22.8" font-family="Helvetica,sans-Serif" font-size="14.00" fill="#000000">value = [23, 19048]</text>
<text text-anchor="start" x="219" y="-7.8" font-family="Helvetica,sans-Serif" font-size="14.00" fill="#000000">class = 僵尸企业</text>
</g>
<!-- 2&#45;&gt;4 -->
<g id="edge4" class="edge">
<title>2&#45;&gt;4</title>
<path fill="none" stroke="#000000" d="M189.3861,-103.9815C201.2161,-94.4232 213.7864,-84.2668 225.5751,-74.7419"/>
<polygon fill="#000000" stroke="#000000" points="228.0142,-77.2708 233.5929,-68.2637 223.6149,-71.826 228.0142,-77.2708"/>
</g>
<!-- 7 -->
<g id="node8" class="node">
<title>7</title>
<path fill="#e58139" stroke="#000000" d="M720,-187C720,-187 454,-187 454,-187 448,-187 442,-181 442,-175 442,-175 442,-116 442,-116 442,-110 448,-104 454,-104 454,-104 720,-104 720,-104 726,-104 732,-110 732,-116 732,-116 732,-175 732,-175 732,-181 726,-187 720,-187"/>
<text text-anchor="start" x="450" y="-171.8" font-family="Helvetica,sans-Serif" font-size="14.00" fill="#000000">纳税总额/营业总收入_d1_mean ≤ &#45;1.278</text>
<text text-anchor="start" x="543" y="-156.8" font-family="Helvetica,sans-Serif" font-size="14.00" fill="#000000">gini = 0.001</text>
<text text-anchor="start" x="523.5" y="-141.8" font-family="Helvetica,sans-Serif" font-size="14.00" fill="#000000">samples = 26122</text>
<text text-anchor="start" x="515.5" y="-126.8" font-family="Helvetica,sans-Serif" font-size="14.00" fill="#000000">value = [26105, 17]</text>
<text text-anchor="start" x="530" y="-111.8" font-family="Helvetica,sans-Serif" font-size="14.00" fill="#000000">class = 正常企业</text>
</g>
<!-- 6&#45;&gt;7 -->
<g id="edge7" class="edge">
<title>6&#45;&gt;7</title>
<path fill="none" stroke="#000000" d="M587,-222.8796C587,-214.6838 587,-205.9891 587,-197.5013"/>
<polygon fill="#000000" stroke="#000000" points="590.5001,-197.298 587,-187.2981 583.5001,-197.2981 590.5001,-197.298"/>
</g>
<!-- 10 -->
<g id="node11" class="node">
<title>10</title>
<path fill="#e5813a" stroke="#000000" d="M974,-187C974,-187 762,-187 762,-187 756,-187 750,-181 750,-175 750,-175 750,-116 750,-116 750,-110 756,-104 762,-104 762,-104 974,-104 974,-104 980,-104 986,-110 986,-116 986,-116 986,-175 986,-175 986,-181 980,-187 974,-187"/>
<text text-anchor="start" x="758" y="-171.8" font-family="Helvetica,sans-Serif" font-size="14.00" fill="#000000">纳税总额/营业总收入_d2 ≤ 3.215</text>
<text text-anchor="start" x="824" y="-156.8" font-family="Helvetica,sans-Serif" font-size="14.00" fill="#000000">gini = 0.008</text>
<text text-anchor="start" x="813.5" y="-141.8" font-family="Helvetica,sans-Serif" font-size="14.00" fill="#000000">samples = 529</text>
<text text-anchor="start" x="810" y="-126.8" font-family="Helvetica,sans-Serif" font-size="14.00" fill="#000000">value = [527, 2]</text>
<text text-anchor="start" x="811" y="-111.8" font-family="Helvetica,sans-Serif" font-size="14.00" fill="#000000">class = 正常企业</text>
</g>
<!-- 6&#45;&gt;10 -->
<g id="edge10" class="edge">
<title>6&#45;&gt;10</title>
<path fill="none" stroke="#000000" d="M685.2802,-222.8796C709.5586,-212.598 735.6912,-201.5311 760.3874,-191.0726"/>
<polygon fill="#000000" stroke="#000000" points="761.9319,-194.2195 769.7753,-187.0969 759.2021,-187.7737 761.9319,-194.2195"/>
</g>
<!-- 8 -->
<g id="node9" class="node">
<title>8</title>
<path fill="#e58139" stroke="#000000" d="M548.5,-68C548.5,-68 431.5,-68 431.5,-68 425.5,-68 419.5,-62 419.5,-56 419.5,-56 419.5,-12 419.5,-12 419.5,-6 425.5,0 431.5,0 431.5,0 548.5,0 548.5,0 554.5,0 560.5,-6 560.5,-12 560.5,-12 560.5,-56 560.5,-56 560.5,-62 554.5,-68 548.5,-68"/>
<text text-anchor="start" x="446" y="-52.8" font-family="Helvetica,sans-Serif" font-size="14.00" fill="#000000">gini = 0.004</text>
<text text-anchor="start" x="431" y="-37.8" font-family="Helvetica,sans-Serif" font-size="14.00" fill="#000000">samples = 1337</text>
<text text-anchor="start" x="427.5" y="-22.8" font-family="Helvetica,sans-Serif" font-size="14.00" fill="#000000">value = [1334, 3]</text>
<text text-anchor="start" x="433" y="-7.8" font-family="Helvetica,sans-Serif" font-size="14.00" fill="#000000">class = 正常企业</text>
</g>
<!-- 7&#45;&gt;8 -->
<g id="edge8" class="edge">
<title>7&#45;&gt;8</title>
<path fill="none" stroke="#000000" d="M550.8808,-103.9815C542.8853,-94.7908 534.4087,-85.0472 526.4021,-75.8436"/>
<polygon fill="#000000" stroke="#000000" points="529.012,-73.5111 519.8079,-68.2637 523.7307,-78.1055 529.012,-73.5111"/>
</g>
<!-- 9 -->
<g id="node10" class="node">
<title>9</title>
<path fill="#e58139" stroke="#000000" d="M725.5,-68C725.5,-68 590.5,-68 590.5,-68 584.5,-68 578.5,-62 578.5,-56 578.5,-56 578.5,-12 578.5,-12 578.5,-6 584.5,0 590.5,0 590.5,0 725.5,0 725.5,0 731.5,0 737.5,-6 737.5,-12 737.5,-12 737.5,-56 737.5,-56 737.5,-62 731.5,-68 725.5,-68"/>
<text text-anchor="start" x="614" y="-52.8" font-family="Helvetica,sans-Serif" font-size="14.00" fill="#000000">gini = 0.001</text>
<text text-anchor="start" x="594.5" y="-37.8" font-family="Helvetica,sans-Serif" font-size="14.00" fill="#000000">samples = 24785</text>
<text text-anchor="start" x="586.5" y="-22.8" font-family="Helvetica,sans-Serif" font-size="14.00" fill="#000000">value = [24771, 14]</text>
<text text-anchor="start" x="601" y="-7.8" font-family="Helvetica,sans-Serif" font-size="14.00" fill="#000000">class = 正常企业</text>
</g>
<!-- 7&#45;&gt;9 -->
<g id="edge9" class="edge">
<title>7&#45;&gt;9</title>
<path fill="none" stroke="#000000" d="M613.4378,-103.9815C619.056,-95.1585 624.9988,-85.8258 630.6503,-76.9506"/>
<polygon fill="#000000" stroke="#000000" points="633.7629,-78.5787 636.1819,-68.2637 627.8584,-74.8188 633.7629,-78.5787"/>
</g>
<!-- 11 -->
<g id="node12" class="node">
<title>11</title>
<path fill="#eeab7b" stroke="#000000" d="M897,-68C897,-68 791,-68 791,-68 785,-68 779,-62 779,-56 779,-56 779,-12 779,-12 779,-6 785,0 791,0 791,0 897,0 897,0 903,0 909,-6 909,-12 909,-12 909,-56 909,-56 909,-62 903,-68 897,-68"/>
<text text-anchor="start" x="800" y="-52.8" font-family="Helvetica,sans-Serif" font-size="14.00" fill="#000000">gini = 0.375</text>
<text text-anchor="start" x="798.5" y="-37.8" font-family="Helvetica,sans-Serif" font-size="14.00" fill="#000000">samples = 4</text>
<text text-anchor="start" x="795" y="-22.8" font-family="Helvetica,sans-Serif" font-size="14.00" fill="#000000">value = [3, 1]</text>
<text text-anchor="start" x="787" y="-7.8" font-family="Helvetica,sans-Serif" font-size="14.00" fill="#000000">class = 正常企业</text>
</g>
<!-- 10&#45;&gt;11 -->
<g id="edge11" class="edge">
<title>10&#45;&gt;11</title>
<path fill="none" stroke="#000000" d="M859.0633,-103.9815C857.2433,-95.5261 855.3225,-86.6026 853.4843,-78.0623"/>
<polygon fill="#000000" stroke="#000000" points="856.9011,-77.3032 851.3751,-68.2637 850.0579,-78.7763 856.9011,-77.3032"/>
</g>
<!-- 12 -->
<g id="node13" class="node">
<title>12</title>
<path fill="#e58139" stroke="#000000" d="M1047,-68C1047,-68 939,-68 939,-68 933,-68 927,-62 927,-56 927,-56 927,-12 927,-12 927,-6 933,0 939,0 939,0 1047,0 1047,0 1053,0 1059,-6 1059,-12 1059,-12 1059,-56 1059,-56 1059,-62 1053,-68 1047,-68"/>
<text text-anchor="start" x="949" y="-52.8" font-family="Helvetica,sans-Serif" font-size="14.00" fill="#000000">gini = 0.004</text>
<text text-anchor="start" x="938.5" y="-37.8" font-family="Helvetica,sans-Serif" font-size="14.00" fill="#000000">samples = 525</text>
<text text-anchor="start" x="935" y="-22.8" font-family="Helvetica,sans-Serif" font-size="14.00" fill="#000000">value = [524, 1]</text>
<text text-anchor="start" x="936" y="-7.8" font-family="Helvetica,sans-Serif" font-size="14.00" fill="#000000">class = 正常企业</text>
</g>
<!-- 10&#45;&gt;12 -->
<g id="edge12" class="edge">
<title>10&#45;&gt;12</title>
<path fill="none" stroke="#000000" d="M914.5454,-103.9815C925.1579,-94.5151 936.4282,-84.462 947.0171,-75.0168"/>
<polygon fill="#000000" stroke="#000000" points="949.4551,-77.5322 954.5878,-68.2637 944.7954,-72.3084 949.4551,-77.5322"/>
</g>
</g>
</svg>
